<svg xmlns="http://www.w3.org/2000/svg" viewBox="0 0 438.25 429.89"><defs><style>.cls-1{fill:#f5f5f5;}.cls-2{fill:#e0e0e0;}.cls-3{fill:#ebebeb;}.cls-4{fill:#fff;}.cls-5{fill:#263238;}.cls-6{fill:#ff725e;}.cls-7{fill:#fafafa;}.cls-8{fill:#455a64;}.cls-9{fill:#967262;}.cls-10{opacity:0.3;}.cls-11{fill:#77574a;}</style></defs><g id="Layer_2" data-name="Layer 2"><g id="Background_Complete" data-name="Background Complete"><path class="cls-1" d="M345.28,273.41c-15.78-13.77-17.27-36.33-14.45-56.15.47-3.31.48-6.85,2.38-9.6s5.79-4.34,8.62-2.62c2.34,1.43,3.1,4.42,4.23,6.94a19.55,19.55,0,0,0,7,8.28c2,1.32,4.54,2.28,6.75,1.35,3-1.27,3.8-5.19,4.14-8.5q.93-9.24,1.87-18.49c.34-3.3.69-6.68,2.06-9.7s3.95-5.69,7.18-6.24,6.93,1.69,7.25,5a31.81,31.81,0,0,1-.35,4.12c-.06,1.39.42,3,1.68,3.49s2.7-.26,3.79-1.12c3.77-3,6.55-7,9.17-11.06s5.19-8.19,8.68-11.49,8.08-5.73,12.84-5.49,9.48,3.71,10.18,8.48-2.53,9.22-5.89,12.67a74.49,74.49,0,0,1-16.94,13,6.05,6.05,0,0,0-2.86,2.48c-1,2.13.89,4.54,3,5.5,2.38,1.08,5.08,1.11,7.62,1.69s5.21,2,5.92,4.56c1,3.53-2.21,6.76-5.24,8.78A63.9,63.9,0,0,1,394,228.06c-2.53.62-5.17,1.13-7.31,2.63s-3.65,4.33-2.72,6.79,3.89,3.53,6.49,3.33,5-1.33,7.55-2c4.72-1.22,10.55-.28,13,4,1.63,2.78,1.41,6.39.12,9.36a24.29,24.29,0,0,1-5.89,7.63,64,64,0,0,1-29.18,16.14c-10.93,2.52-20.79,2.45-30.85-2.5"/><path class="cls-2" d="M351.76,261.49A297.87,297.87,0,0,1,367,230.88l4.39-7.82c1.45-2.56,2.89-5.1,4.44-7.5a149.33,149.33,0,0,1,9.74-13.27c3.31-4.08,6.59-7.82,9.68-11.3s6.06-6.65,8.88-9.44a117.67,117.67,0,0,1,14.25-12.14c1.78-1.3,3.2-2.26,4.18-2.9l1.11-.72a2.17,2.17,0,0,1,.38-.22,2.14,2.14,0,0,1-.35.28l-1.07.76c-.95.68-2.35,1.67-4.12,3a125.8,125.8,0,0,0-14.08,12.26c-2.79,2.8-5.72,6-8.8,9.47s-6.34,7.24-9.62,11.32a151.43,151.43,0,0,0-9.68,13.24c-1.54,2.39-3,4.91-4.41,7.48l-4.39,7.81a305.41,305.41,0,0,0-15.2,30.52"/><path class="cls-2" d="M376,215.55a6.83,6.83,0,0,1-.17-1.44c-.08-.93-.14-2.28-.2-4-.11-3.34-.11-8-.08-13s-.05-9.7-.21-13c-.08-1.66-.15-3-.22-3.94a6.83,6.83,0,0,1,0-1.46,6.67,6.67,0,0,1,.27,1.43c.14.93.28,2.28.41,3.94.27,3.34.41,8,.39,13.06s-.07,9.56-.09,13v3.95A7.26,7.26,0,0,1,376,215.55Z"/><path class="cls-2" d="M419.29,212.19a9.06,9.06,0,0,1-1.71,0c-1.1,0-2.7-.06-4.66,0-3.94,0-9.38.19-15.37.67s-11.39,1.15-15.28,1.75c-1.95.28-3.52.55-4.61.73a9.09,9.09,0,0,1-1.7.23,9.62,9.62,0,0,1,1.66-.46c1.07-.26,2.63-.6,4.58-.94,3.89-.71,9.3-1.45,15.31-1.93a149.63,149.63,0,0,1,15.41-.49c2,0,3.57.15,4.67.24A9.25,9.25,0,0,1,419.29,212.19Z"/><path class="cls-2" d="M352.37,260.76a2.17,2.17,0,0,1-.24-.55c-.15-.44-.33-1-.56-1.61-.48-1.41-1.12-3.46-1.88-6-1.53-5.09-3.41-12.18-5.39-20s-3.79-15-5.2-20.07c-.7-2.48-1.27-4.53-1.7-6.05l-.45-1.65a2.13,2.13,0,0,1-.12-.59,2.71,2.71,0,0,1,.24.56c.15.43.33,1,.56,1.61.48,1.4,1.12,3.45,1.88,6,1.53,5.08,3.41,12.18,5.39,20s3.79,15,5.2,20.06c.7,2.49,1.27,4.53,1.7,6l.45,1.65A2.13,2.13,0,0,1,352.37,260.76Z"/><path class="cls-2" d="M410.77,248.65a2,2,0,0,1-.58.17l-1.7.37-6.25,1.31c-5.29,1.11-12.56,2.72-20.6,4.51s-15.34,3.33-20.65,4.33c-2.65.5-4.8.88-6.29,1.11l-1.72.26a2.55,2.55,0,0,1-.61.05,2.38,2.38,0,0,1,.58-.17l1.7-.37,6.26-1.31c5.28-1.1,12.56-2.72,20.6-4.51s15.34-3.33,20.64-4.33c2.66-.5,4.81-.88,6.3-1.11l1.72-.26A2.46,2.46,0,0,1,410.77,248.65Z"/><path class="cls-3" d="M16.13,102.43s-6.23,2.52,1,15.76,12.1,19.75,12.1,19.75,1.3,3.08-1.31,3.63-8.41-.22-9.49,3,1.37,6.43,6.34,9,15.65,8.78,16.61,9.34,1.92,2,.2,2.64S26.88,168,28.05,174.06,44.27,185.2,45.9,185.78s2,1.26,1.93,2.15-4.51,1-8.17,1.68-7.8,2-6.83,5.47,10,10.54,31.48,12.09l10,.06,5.22-8.58c10.06-19.06,8.81-30.47,6.39-33.12s-5.78.13-8.25,2.9-4.94,6.43-5.75,6-1.18-1.08-.81-2.77,4-17.13-.5-21.35-12.83,5.88-14.3,7-2.17-.47-2.13-1.56.46-13.43.86-19-.89-9.36-4.34-10.18S45,131.11,43.14,133s-3.78-.81-3.78-.81S36.42,124.61,29,111.51s-13-9-13-9"/><path class="cls-2" d="M74.9,209.57c-5.42-9.64-14.76-26.94-22.86-41.75s-15.44-28.21-20.8-37.88c-2.69-4.82-4.86-8.73-6.37-11.44l-1.73-3.11-.45-.82-.14-.28.17.27.47.8L25,118.44c1.54,2.68,3.75,6.57,6.46,11.4,5.42,9.64,12.79,23,20.88,37.83s17.41,32.13,22.78,41.79"/><path class="cls-2" d="M26.45,146a3.73,3.73,0,0,1,.71.18c.44.13,1.08.34,1.87.6,1.58.53,3.73,1.32,6.1,2.24l6,2.36,1.84.71a3.08,3.08,0,0,1,.66.28,3.33,3.33,0,0,1-.7-.17c-.45-.13-1.09-.34-1.87-.61-1.57-.55-3.72-1.37-6.08-2.28L29,147l-1.84-.7A3.71,3.71,0,0,1,26.45,146Z"/><path class="cls-2" d="M44.34,151.71c-.08,0,1.35-4.55,3.2-10.1s3.42-10,3.5-10-1.35,4.55-3.2,10.09S44.42,151.73,44.34,151.71Z"/><path class="cls-2" d="M55.75,175a3,3,0,0,1,.39-.63l1.14-1.65c1-1.4,2.28-3.33,3.66-5.51s2.57-4.21,3.42-5.68l1-1.74a3.27,3.27,0,0,1,.4-.62,3.74,3.74,0,0,1-.29.68c-.21.43-.52,1-.92,1.79-.8,1.5-2,3.54-3.35,5.73s-2.73,4.11-3.74,5.48c-.51.68-.93,1.22-1.23,1.59A4,4,0,0,1,55.75,175Z"/><path class="cls-2" d="M38.43,173.4a3.3,3.3,0,0,1,.68,0l1.86.1c1.56.1,3.72.26,6.11.45s4.54.38,6.1.53l1.84.2a3,3,0,0,1,.68.11,3.38,3.38,0,0,1-.69,0l-1.85-.1c-1.56-.1-3.72-.25-6.11-.44s-4.54-.38-6.1-.54l-1.85-.2A3,3,0,0,1,38.43,173.4Z"/><path class="cls-2" d="M45.89,195.25a4.85,4.85,0,0,1,.87,0l2.38.12c2,.11,4.77.29,7.83.51s5.83.42,7.83.59l2.37.22a4.87,4.87,0,0,1,.86.12,4.85,4.85,0,0,1-.87,0l-2.38-.12c-2-.11-4.77-.29-7.83-.5s-5.82-.43-7.83-.6l-2.37-.22A5.11,5.11,0,0,1,45.89,195.25Z"/><path class="cls-2" d="M67.52,196.62a4.92,4.92,0,0,1,.47-.8c.35-.56.82-1.28,1.37-2.15,1.16-1.81,2.75-4.32,4.42-7.14s3.14-5.41,4.18-7.3L79.19,177a5.46,5.46,0,0,1,.48-.8,4.73,4.73,0,0,1-.37.86c-.26.54-.65,1.32-1.15,2.28-1,1.91-2.42,4.52-4.1,7.35s-3.3,5.32-4.5,7.1c-.61.89-1.11,1.61-1.46,2.09A5.29,5.29,0,0,1,67.52,196.62Z"/><rect class="cls-3" x="361.96" y="306.59" width="57.54" height="85.37" transform="translate(-26.64 666.24) rotate(-79.01)"/><path class="cls-2" d="M438.25,329.9a4.72,4.72,0,0,1-.92.6l-2.73,1.59-10.12,5.74-33.61,18.7-.28.15-.21-.24-.49-.58L364.7,326.1,357.14,317l-2-2.49a6.24,6.24,0,0,1-.66-.91,6.46,6.46,0,0,1,.78.81l2.14,2.4c1.89,2.16,4.52,5.19,7.75,8.91l25.36,29.61.49.59-.48-.09,33.72-18.5,10.24-5.52,2.8-1.46A6.92,6.92,0,0,1,438.25,329.9Z"/><path class="cls-2" d="M343.48,370.11c-.14-.16,7.67-6.68,17.43-14.56s17.79-14.12,17.92-13.95-7.67,6.68-17.43,14.56S343.61,370.28,343.48,370.11Z"/><path class="cls-2" d="M406.83,346.3c.19-.1,4.92,8.8,10.57,19.87s10.07,20.12,9.88,20.22-4.92-8.8-10.57-19.87S406.64,346.4,406.83,346.3Z"/><path class="cls-2" d="M401.66,66.88a7,7,0,0,1-1.43.1l-4.11.09L381,67.22l-49.8.13h-4v-.47c.06-18.6.11-35.28.15-47.42.06-6,.11-10.8.14-14.25q.06-2.41.09-3.87A7.76,7.76,0,0,1,327.68,0a7.76,7.76,0,0,1,.09,1.34l.09,3.87c0,3.45.08,8.29.14,14.25,0,12.14.09,28.82.15,47.42l-.47-.47h3.55l49.8.14,15.09.15,4.11.09A9,9,0,0,1,401.66,66.88Z"/><path class="cls-2" d="M393.44,16.23a20.42,20.42,0,0,1-2.21,2.11L385,23.82c-5.3,4.6-12.66,10.9-20.83,17.82l-1.24,1-.32.27-.3-.28L353,34.06h.58L340,45.3,336,48.46a8.27,8.27,0,0,1-1.47,1,8.66,8.66,0,0,1,1.29-1.27l3.79-3.35L353,33.4l.29-.25.29.27L362.93,42h-.62l1.23-1c8.17-6.92,15.61-13.14,21-17.61L391,18.06A18.74,18.74,0,0,1,393.44,16.23Z"/><path class="cls-2" d="M393.44,31.73a23.17,23.17,0,0,1-.33-4.62c-.08-2.86-.14-6.83-.14-11.25l.47.47h-.8c-4.6,0-8.77,0-11.78-.13a25.2,25.2,0,0,1-4.88-.34,25.82,25.82,0,0,1,4.88-.33c3-.08,7.18-.14,11.78-.14h1.27v.46c0,4.42-.06,8.39-.15,11.25A23.75,23.75,0,0,1,393.44,31.73Z"/><path class="cls-2" d="M13.05,313.42a18.82,18.82,0,0,1,4.52-2L18.5,307l7.56-.13,1.08,4.43a18.56,18.56,0,0,1,4.59,1.8l3.81-2.5L41,315.84l-2.37,3.9a18.46,18.46,0,0,1,2,4.52l4.47.93.13,7.55-4.44,1.09a18.49,18.49,0,0,1-1.8,4.58l2.5,3.82-5.24,5.44-3.91-2.37a18.53,18.53,0,0,1-4.51,2l-.94,4.48-7.55.13-1.09-4.44a18.65,18.65,0,0,1-4.58-1.8l-3.82,2.5-5.43-5.25L6.73,339a18.82,18.82,0,0,1-2-4.52L.3,333.53.17,326l4.43-1.09a18.29,18.29,0,0,1,1.81-4.58L3.9,316.49l5.25-5.43,3.9,2.36Zm4,10.07a8.1,8.1,0,1,0,11.46-.21A8.1,8.1,0,0,0,17.08,323.49Z"/><path class="cls-2" d="M17.08,323.49a6.29,6.29,0,0,1,1.51-1.33,8.17,8.17,0,0,1,8.88,0,8.29,8.29,0,0,1,2.91,3.27,7.9,7.9,0,0,1,.73,2.28,7.69,7.69,0,0,1,.05,2.49,8.3,8.3,0,0,1-2.25,4.67,8.41,8.41,0,0,1-4.59,2.42,7.78,7.78,0,0,1-2.5,0,7.44,7.44,0,0,1-2.3-.66,8.25,8.25,0,0,1-3.37-2.79,8.19,8.19,0,0,1-.34-8.87,6.08,6.08,0,0,1,1.27-1.55c.05,0-.49.53-1.11,1.64a8.08,8.08,0,0,0-.9,5.19,7.9,7.9,0,0,0,4.63,6,7.89,7.89,0,0,0,4.54.56,7.85,7.85,0,0,0,6.47-6.7,7.83,7.83,0,0,0-.72-4.52,7.93,7.93,0,0,0-2.73-3.14,7.81,7.81,0,0,0-3.42-1.27,8.14,8.14,0,0,0-5.15,1.07C17.6,323,17.12,323.53,17.08,323.49Z"/><path class="cls-2" d="M13.05,313.42l-.25-.13-.75-.43-2.94-1.74H9.2L4,316.57v-.14l2.52,3.8.05.07,0,.08a18.13,18.13,0,0,0-1.78,4.55l0,.09-.09,0-4.43,1.1L.33,326q.08,3.57.15,7.55l-.14-.18,4.47.93.11,0,0,.11a18.09,18.09,0,0,0,2,4.47L7,339l-.06.11L4.54,343l0-.25L10,348l-.27,0,3.82-2.51.11-.07.12.07a18.43,18.43,0,0,0,4.53,1.77l.13,0,0,.13c.34,1.39.72,2.9,1.09,4.43l-.22-.17,7.55-.14-.22.19c.29-1.41.61-2.94.93-4.47l0-.14.13,0a18.48,18.48,0,0,0,4.46-1.93h0l.12-.07.12.07,3.91,2.37-.29,0,5.25-5.44,0,.29-2.5-3.82-.08-.12.07-.12a18.44,18.44,0,0,0,1.79-4.52l0-.13.13,0,4.44-1.08-.17.22c0-2.58-.09-5.1-.13-7.56l.17.21-4.47-.94-.12,0,0-.12a18.67,18.67,0,0,0-1.94-4.47l-.06-.11.06-.1,2.37-3.9,0,.24-5.42-5.26.22,0-3.82,2.49-.09.06-.08-.05a18.49,18.49,0,0,0-4.54-1.8l-.09,0,0-.09c-.38-1.62-.74-3.07-1.07-4.44l.14.1-7.56.1.1-.08c-.38,1.78-.69,3.25-1,4.46v0h-.05a19.37,19.37,0,0,0-3.45,1.33l-.81.42a1,1,0,0,1-.28.14l.26-.17c.17-.11.43-.26.79-.46a18.46,18.46,0,0,1,3.45-1.4l-.05.05c.24-1.22.54-2.68.9-4.47l0-.08h.08l7.55-.16h.11l0,.1,1.1,4.43-.11-.11A18.71,18.71,0,0,1,31.81,313h-.17l3.81-2.51.11-.07.11.09,5.44,5.24.11.11-.08.13q-1.14,1.9-2.36,3.91v-.21a19,19,0,0,1,2,4.56l-.16-.14,4.47.92.17,0v.17c.05,2.45.09,5,.14,7.55v.18l-.17,0-4.43,1.09.16-.16a18.88,18.88,0,0,1-1.82,4.64v-.24l2.51,3.82.1.15-.13.13-5.25,5.44-.13.13-.15-.09-3.91-2.37h.24a18.82,18.82,0,0,1-4.57,2l.16-.18c-.32,1.54-.64,3.06-.93,4.47l0,.18h-.18l-7.56.13h-.18l0-.18c-.37-1.53-.74-3-1.08-4.43l.16.16a18.56,18.56,0,0,1-4.64-1.83h.23l-3.82,2.5-.14.1-.13-.12L4.22,343l-.12-.11.09-.14,2.37-3.9v.2a18.35,18.35,0,0,1-2-4.56l.14.13-4.47-.94-.14,0v-.14c0-2.65-.08-5.18-.12-7.56v-.13l.13,0,4.44-1.08-.12.12a18.58,18.58,0,0,1,1.84-4.62v.14c-.89-1.38-1.73-2.66-2.49-3.82l0-.08.07-.07L9.1,311l0,0,0,0,2.87,1.79.74.47Z"/><path class="cls-1" d="M67.44,292.23a11.57,11.57,0,0,1,2.71-1.17l.55-2.68,4.53-.08.65,2.66A10.86,10.86,0,0,1,78.62,292l2.29-1.5,3.25,3.14L82.74,296a11,11,0,0,1,1.18,2.7l2.67.56.08,4.52-2.65.65a11.09,11.09,0,0,1-1.08,2.74l1.5,2.29-3.14,3.25L79,311.32a11.17,11.17,0,0,1-2.71,1.17l-.55,2.68-4.52.08-.65-2.66a10.78,10.78,0,0,1-2.75-1.08L65.5,313l-3.26-3.14,1.42-2.34a11,11,0,0,1-1.18-2.7l-2.67-.56-.08-4.52,2.65-.65a11.49,11.49,0,0,1,1.08-2.74L62,294.07l3.14-3.25,2.33,1.41Zm2.41,6a4.85,4.85,0,1,0,6.86-.12A4.86,4.86,0,0,0,69.85,298.26Z"/><path class="cls-1" d="M69.85,298.26a3.7,3.7,0,0,1,.91-.79,4.77,4.77,0,0,1,3.16-.75,4.91,4.91,0,0,1,3.89,2.72,4.52,4.52,0,0,1,.44,1.36,4.7,4.7,0,0,1,0,1.5,5,5,0,0,1-4.09,4.24,4.73,4.73,0,0,1-1.5,0,4.5,4.5,0,0,1-1.37-.39,4.86,4.86,0,0,1-2-1.67,4.91,4.91,0,0,1-.21-5.31,3.73,3.73,0,0,1,.76-.93s-.29.32-.66,1a4.8,4.8,0,0,0-.54,3.11,4.72,4.72,0,0,0,.83,2,4.82,4.82,0,0,0,1.94,1.57,4.7,4.7,0,0,0,1.31.36,4.46,4.46,0,0,0,1.41,0,4.71,4.71,0,0,0,3.87-4,4.43,4.43,0,0,0,0-1.41,4.39,4.39,0,0,0-.41-1.3,4.78,4.78,0,0,0-6.77-2A10.81,10.81,0,0,0,69.85,298.26Z"/><path class="cls-1" d="M67.44,292.23l-.15-.08-.45-.25c-.4-.25-1-.59-1.76-1h.06L62,294.12V294l1.51,2.28,0,0,0,0a11.41,11.41,0,0,0-1.06,2.72v.06h-.05l-2.66.66.08-.1c0,1.42.06,2.93.09,4.52l-.09-.1,2.68.55h.07v.07a11.08,11.08,0,0,0,1.17,2.67l0,.06,0,.07-1.41,2.33,0-.15,3.26,3.14-.16,0,2.28-1.5.07,0,.07,0a11.09,11.09,0,0,0,2.71,1.06l.08,0,0,.08c.2.83.42,1.74.65,2.66l-.14-.11L75.7,315l-.14.11c.18-.85.37-1.76.56-2.68l0-.08.08,0a10.7,10.7,0,0,0,2.66-1.16h0l.07-.05.07.05,2.34,1.41-.17,0,3.14-3.26,0,.18c-.5-.77-1-1.54-1.5-2.29l0-.07,0-.07a11,11,0,0,0,1.07-2.71l0-.08.08,0,2.65-.65-.1.13c0-1.54-.05-3.05-.07-4.52l.1.12-2.68-.56h-.07l0-.07a11.09,11.09,0,0,0-1.16-2.68l0-.06,0-.07,1.42-2.33,0,.14-3.25-3.14H81l-2.29,1.49,0,0-.05,0a11.12,11.12,0,0,0-2.72-1.07l0,0v0c-.24-1-.45-1.84-.64-2.66l.08.07-4.52.06.05-.05c-.22,1.06-.41,1.94-.57,2.67v0h0a11.35,11.35,0,0,0-2.07.8l-.48.25-.17.08.15-.1c.11-.06.26-.16.48-.27a10.44,10.44,0,0,1,2.06-.84l0,0c.15-.73.33-1.61.54-2.68v-.05h0l4.52-.1h.07l0,.06c.2.82.42,1.69.66,2.66l-.07-.07A11.24,11.24,0,0,1,78.67,292h-.1l2.28-1.5.07-.05.06.06,3.26,3.14.07.06,0,.08-1.41,2.34V296A11.35,11.35,0,0,1,84,298.69l-.1-.09,2.68.55.1,0v.11c0,1.47.06,3,.09,4.52v.1l-.11,0-2.65.65.1-.1a11.4,11.4,0,0,1-1.09,2.78v-.14l1.5,2.28.06.1-.07.08c-1,1.06-2.08,2.15-3.14,3.25l-.08.08-.1-.06-2.33-1.41H79a11.33,11.33,0,0,1-2.74,1.19l.1-.11c-.19.92-.38,1.83-.56,2.68l0,.1H75.7l-4.52.07h-.11l0-.11c-.22-.92-.44-1.82-.65-2.66l.1.1a10.81,10.81,0,0,1-2.77-1.09h.13l-2.28,1.5-.09.06-.07-.08L62.16,310l-.07-.07,0-.08c.49-.82,1-1.61,1.42-2.34v.13a11.39,11.39,0,0,1-1.19-2.74l.09.08-2.67-.56-.09,0v-.09c0-1.58-.05-3.09-.07-4.52v-.08l.08,0,2.65-.64-.06.07a11.19,11.19,0,0,1,1.09-2.76v.08l-1.48-2.29,0-.05,0,0c1.29-1.32,2.36-2.4,3.16-3.23l0,0,0,0,1.72,1.07.44.28Z"/><path class="cls-2" d="M82,410.65v0l-2.06-8.39a35,35,0,0,1-8.67-3.42L64,403.57h0l-10.32-10v0l4.48-7.38a35.52,35.52,0,0,1-3.72-8.55L46,375.87v0L45.7,361.5h0l8.39-2.06a35.41,35.41,0,0,1,3.41-8.67l-4.74-7.25h0l10-10.32h0l7.4,4.48A35.28,35.28,0,0,1,78.71,334l1.77-8.48h0l14.35-.25v0l2.06,8.39a35,35,0,0,1,8.67,3.42l7.25-4.75h0l10.32,10h0l-4.48,7.39a35.35,35.35,0,0,1,3.72,8.55l8.48,1.77v0l.25,14.35h0l-8.39,2.06a35,35,0,0,1-3.42,8.67l4.75,7.25h0l-10,10.32h0l-7.39-4.48a35.52,35.52,0,0,1-8.55,3.72l-1.77,8.48h0ZM71.24,398.77h0a35.18,35.18,0,0,0,8.69,3.42h0v0L82,410.6l14.29-.25,1.77-8.47h0a34.66,34.66,0,0,0,8.56-3.72h0l7.38,4.48L124,392.35l-4.74-7.24h0a35.18,35.18,0,0,0,3.42-8.69h0l8.39-2.05-.25-14.29-8.47-1.77h0a35,35,0,0,0-3.72-8.56v0h0l4.48-7.38-10.28-9.93-7.24,4.74h0a35,35,0,0,0-8.69-3.42h0l-2-8.39-14.29.25L78.75,334h0a34.66,34.66,0,0,0-8.56,3.72h0l-7.38-4.48-9.93,10.28,4.74,7.24h0a35.18,35.18,0,0,0-3.42,8.69h0l-8.39,2.05L46,375.83l8.47,1.77h0a34.66,34.66,0,0,0,3.72,8.56v0h0l-4.48,7.38L64,403.51Zm17.62-15.9a15.39,15.39,0,0,1-11.07-26.09h0a15.26,15.26,0,0,1,10.8-4.7h.28a15.4,15.4,0,0,1,.26,30.8ZM77.8,356.79l0,0a15.35,15.35,0,0,0,11,26h.27a15.35,15.35,0,0,0-.26-30.7h-.28a15.23,15.23,0,0,0-10.77,4.68Z"/><path class="cls-2" d="M77.8,356.79a11.79,11.79,0,0,1,2.87-2.51,15.34,15.34,0,0,1,10-2.37,15.58,15.58,0,0,1,6.82,2.42,15.76,15.76,0,0,1,5.51,6.21,15.81,15.81,0,0,1,1.49,9,15.69,15.69,0,0,1-13,13.44,15.81,15.81,0,0,1-9.09-1.16,15.75,15.75,0,0,1-6.41-5.3,15.56,15.56,0,0,1-.64-16.83,11.9,11.9,0,0,1,2.41-2.95c.09.07-.92,1-2.11,3.12a15.34,15.34,0,0,0-1.7,9.84,15,15,0,0,0,8.78,11.37,13.9,13.9,0,0,0,4.14,1.16,14.08,14.08,0,0,0,4.48-.1,14.88,14.88,0,0,0,12.26-12.71,15,15,0,0,0-1.36-8.57,15,15,0,0,0-11.67-8.37,15.33,15.33,0,0,0-9.77,2C78.78,355.83,77.88,356.87,77.8,356.79Z"/><path class="cls-2" d="M70.17,337.71a3.85,3.85,0,0,1-.48-.26l-1.42-.82-5.58-3.29.17,0L53,343.68l0-.28,4.77,7.23.09.13-.08.13a34.86,34.86,0,0,0-3.36,8.64l-.05.17-.17,0-8.4,2.09.24-.31c.09,4.51.18,9.3.28,14.32l-.28-.33,8.49,1.75.21,0,.06.22A35.21,35.21,0,0,0,58.5,386l.12.19-.12.2L54,393.79l-.06-.48,10.32,9.94-.51-.05L71,398.44l.21-.13.22.12A34.87,34.87,0,0,0,80,401.8l.25.06.07.25c.64,2.64,1.35,5.51,2.06,8.42L82,410.2l14.32-.26-.42.35c.56-2.68,1.16-5.57,1.77-8.48l0-.26.26-.08a34.88,34.88,0,0,0,8.45-3.67h0l.23-.14.22.14,7.41,4.49-.55.07,10-10.31,0,.54-4.75-7.24-.14-.22.13-.23a34.9,34.9,0,0,0,3.38-8.58l.06-.26.25-.06L131,374l-.32.41q-.12-7.33-.24-14.32l.32.38-8.47-1.77-.24,0-.06-.23a34.81,34.81,0,0,0-3.67-8.48l-.12-.2.12-.19,4.5-7.4.06.45-10.29-10,.42,0-7.25,4.73-.17.1-.16-.09a35.25,35.25,0,0,0-8.61-3.42l-.17,0,0-.17-2-8.42.26.2-14.33.19.19-.16c-.73,3.39-1.32,6.16-1.82,8.47l0,.09-.08,0a37.14,37.14,0,0,0-6.55,2.52l-1.54.81a5.28,5.28,0,0,1-.51.26,3.77,3.77,0,0,1,.47-.33c.33-.2.83-.5,1.51-.87a33.63,33.63,0,0,1,6.54-2.66l-.1.1c.47-2.31,1-5.1,1.71-8.49l0-.15h.15L94.82,325H95l0,.2c.65,2.6,1.33,5.35,2.09,8.4l-.21-.21a35.74,35.74,0,0,1,8.78,3.43h-.33l7.23-4.76.22-.15.2.19L123.39,342l.21.2-.16.25L119,349.89v-.39a35.73,35.73,0,0,1,3.78,8.65l-.3-.27,8.48,1.75.32.07V360q.13,7,.27,14.33v.33l-.32.08-8.41,2.07.31-.31a35.18,35.18,0,0,1-3.46,8.8v-.45c1.56,2.39,3.15,4.81,4.75,7.24l.19.29-.24.26-10,10.31-.25.25-.3-.18-7.4-4.49h.45a35.54,35.54,0,0,1-8.67,3.77l.31-.33c-.61,2.91-1.21,5.8-1.77,8.48l-.07.34h-.35L82,411.06h-.34l-.09-.34c-.71-2.9-1.41-5.78-2-8.41l.31.31A35.27,35.27,0,0,1,71,399.16l.43,0-7.25,4.74-.27.18-.24-.22-10.29-10-.23-.22.16-.27,4.5-7.39v.39a35.84,35.84,0,0,1-3.75-8.66l.28.25-8.48-1.78-.27-.06v-.27c-.08-5-.15-9.82-.22-14.33v-.25l.25-.06,8.42-2-.22.21a35.53,35.53,0,0,1,3.48-8.75v.27l-4.72-7.26-.1-.15.13-.13,10-10.25.08-.08.09.06,5.46,3.39,1.4.89A3.27,3.27,0,0,1,70.17,337.71Z"/></g><g id="Document"><rect class="cls-4" x="70.42" y="35.04" width="300.65" height="383.74" transform="translate(-16.15 16.92) rotate(-4.23)"/><path class="cls-5" d="M84.53,429.89l0-.49L56.13,46.2l.5,0L357,23.93l0,.5,28.37,383.19-.5,0ZM57.2,47.13,85.46,428.82,384.29,406.7,356,25Z"/><rect class="cls-6" x="249.33" y="44.15" width="81" height="5.2" transform="translate(-2.66 21.53) rotate(-4.23)"/><path class="cls-6" d="M329.07,81a1.71,1.71,0,0,1-.5.09l-1.42.15-5.25.48-17.31,1.44c-6.76.55-12.89,1-17.33,1.28l-5.25.32-1.44,0a1.78,1.78,0,0,1-.5,0,1.71,1.71,0,0,1,.5-.09l1.42-.16,5.24-.47,17.32-1.44c6.76-.56,12.89-1,17.33-1.29l5.25-.31,1.44-.06A2,2,0,0,1,329.07,81Z"/><path class="cls-5" d="M333.91,100.55c0,.15-17.6,1.57-39.34,3.18s-39.36,2.8-39.37,2.65,17.59-1.56,39.34-3.17S333.9,100.41,333.91,100.55Z"/><path class="cls-5" d="M335.24,125.49c0,.14-17.6,1.56-39.34,3.17s-39.37,2.8-39.38,2.65,17.6-1.56,39.34-3.17S335.23,125.34,335.24,125.49Z"/><path class="cls-5" d="M335.24,113c0,.14-17.6,1.56-39.34,3.17s-39.37,2.8-39.38,2.66,17.6-1.57,39.34-3.18S335.23,112.88,335.24,113Z"/><path class="cls-6" d="M170,287.58c0,.14-9.12.94-20.39,1.77s-20.42,1.4-20.43,1.25,9.11-.93,20.39-1.77S170,287.44,170,287.58Z"/><path class="cls-6" d="M153,311.54c0,.15-12.22,1.17-27.32,2.29s-27.35,1.91-27.36,1.76,12.22-1.16,27.32-2.28S153,311.4,153,311.54Z"/><path class="cls-5" d="M252.56,313.57c0,.14-34.37,2.81-76.77,5.95S99,325.08,99,324.94s34.36-2.8,76.77-5.94S252.55,313.43,252.56,313.57Z"/><path class="cls-6" d="M154.69,334.79c0,.14-12.22,1.16-27.32,2.28S100,339,100,338.83s12.22-1.16,27.32-2.28S154.68,334.64,154.69,334.79Z"/><path class="cls-5" d="M254.28,336.81c0,.15-34.36,2.81-76.77,5.95s-76.8,5.57-76.81,5.42,34.36-2.8,76.78-5.94S254.27,336.67,254.28,336.81Z"/><path class="cls-6" d="M156.41,358c0,.14-12.22,1.16-27.32,2.28s-27.35,1.91-27.36,1.77,12.22-1.17,27.32-2.29S156.4,357.89,156.41,358Z"/><path class="cls-5" d="M256,360.06c0,.14-34.36,2.8-76.77,5.94s-76.8,5.57-76.81,5.42,34.36-2.8,76.78-5.94S256,359.91,256,360.06Z"/><path class="cls-6" d="M160.2,381.56c0,.14-12.22,1.16-27.32,2.28s-27.35,1.91-27.36,1.76,12.22-1.16,27.32-2.28S160.19,381.41,160.2,381.56Z"/><path class="cls-5" d="M259.79,383.58c0,.15-34.36,2.81-76.76,5.95s-76.8,5.57-76.81,5.42,34.35-2.8,76.77-5.94S259.78,383.44,259.79,383.58Z"/><rect class="cls-6" x="100.63" y="283.62" width="18.8" height="11.94" transform="translate(-21.08 8.91) rotate(-4.23)"/><rect class="cls-6" x="106.84" y="295.55" width="7.55" height="3.74" transform="translate(-21.66 8.98) rotate(-4.23)"/><path class="cls-6" d="M117.38,298.66a37.26,37.26,0,0,1-6.28.83,37.59,37.59,0,0,1-6.32.3,39.24,39.24,0,0,1,6.28-.82A39.67,39.67,0,0,1,117.38,298.66Z"/><polygon class="cls-6" points="270.45 269.42 282.17 263 293.7 267.38 282.9 274.18 270.45 269.42"/><polygon class="cls-6" points="273.25 272.11 273.73 279.41 291.78 277.82 291.16 270.78 282.82 275.82 273.25 272.11"/><path class="cls-6" d="M344.57,270.84c0,.15-9.12.94-20.39,1.78s-20.42,1.39-20.43,1.25,9.12-.94,20.4-1.77S344.56,270.7,344.57,270.84Z"/><path class="cls-5" d="M302.7,295.94c0,.14-6.26.72-14,1.3s-14,.92-14.05.77,6.26-.72,14-1.29S302.69,295.79,302.7,295.94Z"/><path class="cls-5" d="M354.21,302.29c0,.14-17.63,1.56-39.39,3.17s-39.42,2.8-39.43,2.66,17.62-1.56,39.39-3.18S354.2,302.14,354.21,302.29Z"/><path class="cls-5" d="M304.8,321.91c0,.14-6.26.72-14,1.29s-14,.93-14.05.78,6.26-.72,14-1.3S304.79,321.76,304.8,321.91Z"/><path class="cls-5" d="M356.31,328.25c0,.15-17.62,1.57-39.39,3.18s-39.42,2.8-39.43,2.66,17.62-1.57,39.39-3.18S356.3,328.11,356.31,328.25Z"/><path class="cls-5" d="M306.4,347.56c0,.15-6.26.73-14,1.3s-14,.93-14.05.78,6.26-.72,14-1.3S306.39,347.42,306.4,347.56Z"/><path class="cls-5" d="M357.91,353.91c0,.15-17.62,1.57-39.39,3.18s-39.42,2.8-39.43,2.66,17.62-1.57,39.39-3.18S357.9,353.77,357.91,353.91Z"/><path class="cls-5" d="M309.27,374.7c0,.14-6.27.73-14,1.3s-14,.92-14.05.78,6.26-.73,14-1.3S309.26,374.56,309.27,374.7Z"/><path class="cls-5" d="M360.78,381.05c0,.14-17.63,1.57-39.4,3.18S282,387,282,386.88s17.62-1.56,39.4-3.17S360.77,380.91,360.78,381.05Z"/><path class="cls-6" d="M264,80.25a4.57,4.57,0,0,0,2.4-4.41,4.29,4.29,0,1,0-8.54.59,4.57,4.57,0,0,0,3,4c-6.5,1.47-5.67,8.59-5.67,8.59L270.76,88S270.58,80.75,264,80.25Z"/><path class="cls-5" d="M289.31,181.06c0,.15-6.31.73-14.12,1.31s-14.16.93-14.17.79,6.31-.73,14.13-1.31S289.3,180.92,289.31,181.06Z"/><path class="cls-5" d="M290.38,193.55c0,.14-6.31.73-14.12,1.31s-14.16.93-14.17.78,6.31-.72,14.13-1.3S290.37,193.41,290.38,193.55Z"/><path class="cls-2" d="M345.24,178.39l-46,3.41a1.56,1.56,0,0,1-1.67-1.44h0a1.55,1.55,0,0,1,1.44-1.67l46-3.41a1.56,1.56,0,0,1,1.67,1.44h0A1.56,1.56,0,0,1,345.24,178.39Z"/><path class="cls-6" d="M338.51,178.89l-39.3,2.91a1.56,1.56,0,0,1-1.67-1.44h0a1.55,1.55,0,0,1,1.44-1.67l39.3-2.91a1.55,1.55,0,0,1,1.67,1.44h0A1.56,1.56,0,0,1,338.51,178.89Z"/><path class="cls-2" d="M346.11,190.14l-46,3.41a1.56,1.56,0,0,1-1.67-1.44h0a1.55,1.55,0,0,1,1.44-1.67l46-3.41a1.56,1.56,0,0,1,1.67,1.44h0A1.56,1.56,0,0,1,346.11,190.14Z"/><path class="cls-6" d="M332.37,191.15l-32.29,2.4a1.56,1.56,0,0,1-1.67-1.44h0a1.55,1.55,0,0,1,1.44-1.67l32.29-2.4a1.56,1.56,0,0,1,1.67,1.44h0A1.55,1.55,0,0,1,332.37,191.15Z"/><path class="cls-5" d="M291.74,206.3c0,.14-6.32.73-14.13,1.3s-14.15.94-14.16.79,6.31-.73,14.13-1.3S291.73,206.15,291.74,206.3Z"/><path class="cls-5" d="M292.81,218.78c0,.15-6.32.73-14.13,1.31s-14.15.93-14.16.79,6.31-.73,14.13-1.31S292.8,218.64,292.81,218.78Z"/><path class="cls-2" d="M347.67,203.62l-46,3.41a1.56,1.56,0,0,1-1.67-1.44h0a1.55,1.55,0,0,1,1.44-1.67l46-3.41a1.57,1.57,0,0,1,1.67,1.44h0A1.56,1.56,0,0,1,347.67,203.62Z"/><path class="cls-6" d="M340.94,204.12,301.64,207a1.56,1.56,0,0,1-1.67-1.44h0a1.55,1.55,0,0,1,1.44-1.67l39.3-2.91a1.56,1.56,0,0,1,1.67,1.44h0A1.56,1.56,0,0,1,340.94,204.12Z"/><path class="cls-2" d="M348.54,215.37l-46,3.41a1.56,1.56,0,0,1-1.67-1.44h0a1.55,1.55,0,0,1,1.44-1.67l46-3.41A1.57,1.57,0,0,1,350,213.7h0A1.56,1.56,0,0,1,348.54,215.37Z"/><path class="cls-6" d="M334.8,216.39l-32.29,2.39a1.56,1.56,0,0,1-1.67-1.44h0a1.55,1.55,0,0,1,1.44-1.67l32.29-2.39a1.55,1.55,0,0,1,1.67,1.44h0A1.56,1.56,0,0,1,334.8,216.39Z"/><path class="cls-5" d="M294.41,232.09c0,.15-6.31.73-14.12,1.31s-14.15.93-14.17.79,6.32-.73,14.13-1.31S294.4,232,294.41,232.09Z"/><path class="cls-2" d="M350.34,229.42l-46,3.41a1.56,1.56,0,0,1-1.67-1.44h0a1.56,1.56,0,0,1,1.44-1.67l46-3.41a1.55,1.55,0,0,1,1.67,1.44h0A1.56,1.56,0,0,1,350.34,229.42Z"/><path class="cls-6" d="M329.84,230.94l-25.53,1.89a1.56,1.56,0,0,1-1.67-1.44h0a1.56,1.56,0,0,1,1.44-1.67l25.53-1.89a1.55,1.55,0,0,1,1.67,1.44h0A1.56,1.56,0,0,1,329.84,230.94Z"/><path class="cls-6" d="M274,168.34l-1.62-2.85a7.67,7.67,0,1,0-1.83,2h0Z"/><path class="cls-6" d="M333.11,157.5c0,.14-10.66,1.05-23.82,2s-23.85,1.65-23.86,1.51,10.65-1,23.82-2S333.1,157.35,333.11,157.5Z"/></g><g id="Character"><polygon class="cls-3" points="62.67 46.62 81.77 272.57 250.3 260.03 232.09 33.68 62.67 46.62"/><rect class="cls-7" x="77.48" y="31.74" width="167.03" height="226.92" transform="matrix(1, -0.07, 0.07, 1, -10.28, 12.28)"/><path class="cls-5" d="M85.62,265.05l0-.5L68.79,37.75l.5,0L236.36,25.35l0,.49,16.79,226.8-.5,0ZM69.86,38.68,86.54,264l165.58-12.26L235.43,26.42Z"/><path class="cls-5" d="M202.39,60.14a1.74,1.74,0,0,1-.08-.38c0-.28-.09-.65-.15-1.12-.13-1-.32-2.47-.56-4.32s-.52-4.18-.85-6.84a35.91,35.91,0,0,0-.64-4.23,6.58,6.58,0,0,0-.91-2.09,3.61,3.61,0,0,0-1.84-1.41,4.9,4.9,0,0,0-4.72,1.2,8.93,8.93,0,0,0-2.43,5,35.62,35.62,0,0,0,.4,12.54c.39,2.19.81,4.45,1.31,6.73a22,22,0,0,0,2.44,6.61,10.49,10.49,0,0,0,5.46,4.54,6.92,6.92,0,0,0,3.61.25,6.81,6.81,0,0,0,3.24-1.69,10.76,10.76,0,0,0,3.16-6.6,30.51,30.51,0,0,0-.19-7.34c-.54-4.83-1.06-9.5-1.55-14-.25-2.22-.49-4.39-.72-6.49s-.45-4.15-.82-6.09A21.2,21.2,0,0,0,204.84,29,11.84,11.84,0,0,0,201.62,25a12.63,12.63,0,0,0-8.44-2.55,10.47,10.47,0,0,0-6.27,2.34,8.44,8.44,0,0,0-2.4,3.52c-.32.94-.39,1.46-.42,1.46a7.19,7.19,0,0,1,.32-1.49,8.21,8.21,0,0,1,2.37-3.64,10.58,10.58,0,0,1,6.38-2.48,12.91,12.91,0,0,1,8.69,2.55,12.25,12.25,0,0,1,3.35,4.17A21,21,0,0,1,207,34.35c.39,2,.61,4,.85,6.12s.49,4.27.74,6.49c.51,4.45,1,9.11,1.59,13.95a31.4,31.4,0,0,1,.2,7.46A11.26,11.26,0,0,1,207,75.28a7.27,7.27,0,0,1-3.49,1.82,7.51,7.51,0,0,1-3.88-.27,11,11,0,0,1-5.72-4.76,22.2,22.2,0,0,1-2.5-6.77c-.5-2.3-.91-4.55-1.3-6.76a36,36,0,0,1-.34-12.71,9.33,9.33,0,0,1,2.57-5.18,5.29,5.29,0,0,1,5.12-1.25,4,4,0,0,1,2,1.56,6.93,6.93,0,0,1,.94,2.2,36.08,36.08,0,0,1,.61,4.28c.3,2.67.55,5,.76,6.85s.35,3.32.46,4.34c.05.47.08.84.11,1.12S202.39,60.14,202.39,60.14Z"/><path class="cls-5" d="M133.79,52.11l-13.22-5.49c-3.57,2.27-9.4,8.52-11,15.5a39.28,39.28,0,0,0-1,11.69c.22,4.23-.16,8.71-2.5,12.24-1.66,2.52-4.35,4.7-4.4,7.72-.06,3.48,3.54,6.46,2.81,9.86-.59,2.72-3.62,4.1-5.21,6.38-2.3,3.32-1.19,7.86.31,11.61,3.62,9-4.08,22.08,2.71,29.07,6.68-5.49,26.47-15.66,33.15-21.15a12.77,12.77,0,0,0,3.81-4.25c1.16-2.54.53-5.5-.07-8.22A244,244,0,0,1,133.79,52.11Z"/><path class="cls-5" d="M212.85,208.19l-6.52-6.61-69.7,19.66s-3.83,30.64-3.43,32.6,0,7.56,0,7.56l96.19-7.49S230.47,227.81,212.85,208.19Z"/><path class="cls-8" d="M155.48,234.82a2.77,2.77,0,0,1-.39.78c-.29.47-.72,1.16-1.31,2a16.29,16.29,0,0,1-2.39,2.61,11.16,11.16,0,0,1-3.8,2.1,24.4,24.4,0,0,1-7.73,1.15,21.49,21.49,0,0,1-2.37-.14,2.93,2.93,0,0,1-.85-.15c0-.09,1.24,0,3.21-.08a27.5,27.5,0,0,0,7.57-1.28,11,11,0,0,0,3.66-2,17.77,17.77,0,0,0,2.41-2.47C154.72,235.8,155.41,234.77,155.48,234.82Z"/><path class="cls-8" d="M178.42,257.94a3.48,3.48,0,0,1-.28-.95c-.14-.61-.32-1.51-.53-2.63-.41-2.23-.9-5.32-1.28-8.76s-.58-6.57-.66-8.84c0-1.13-.06-2-.06-2.68a4.31,4.31,0,0,1,.06-1,26.71,26.71,0,0,1,.36,3.65c.18,2.26.44,5.37.82,8.8s.8,6.52,1.12,8.76A31.11,31.11,0,0,1,178.42,257.94Z"/><path class="cls-8" d="M185.07,256.34c-.14,0-.73-5.17-1.32-11.59s-.95-11.62-.8-11.64.73,5.18,1.32,11.6S185.21,256.33,185.07,256.34Z"/><path class="cls-8" d="M218.87,220.58a3.52,3.52,0,0,1-.64.79c-.45.49-1.1,1.19-1.95,2A21.43,21.43,0,0,1,213,226a12.93,12.93,0,0,1-4.75,1.88,9.63,9.63,0,0,1-5.09-.57,15,15,0,0,1-3.61-2.08,25,25,0,0,1-2.12-1.82,3.48,3.48,0,0,1-.69-.75c.06-.07,1.13.92,3,2.27a15.53,15.53,0,0,0,3.56,1.93,9.33,9.33,0,0,0,4.83.5,12.9,12.9,0,0,0,4.59-1.77A25.09,25.09,0,0,0,216,223.1C217.78,221.54,218.81,220.52,218.87,220.58Z"/><path class="cls-8" d="M224.21,240a5,5,0,0,1-.92.54l-2.58,1.34c-2.17,1.14-5.13,2.77-8.31,4.73s-6,3.9-7.94,5.33l-2.36,1.7a5.17,5.17,0,0,1-.89.59s.25-.3.77-.75,1.29-1.08,2.25-1.84a93.74,93.74,0,0,1,7.9-5.47,92,92,0,0,1,8.42-4.62c1.11-.53,2-.93,2.65-1.19A3.54,3.54,0,0,1,224.21,240Z"/><path class="cls-8" d="M160.62,231.81a3.93,3.93,0,0,1-.62-1.33,16.16,16.16,0,0,1-.88-3.45,9,9,0,0,1,.2-3.58c.25-.89.55-1.38.61-1.35a15.69,15.69,0,0,0-.3,4.86,29.47,29.47,0,0,0,.72,3.41A4.46,4.46,0,0,1,160.62,231.81Z"/><path class="cls-8" d="M164.83,232.06a4.38,4.38,0,0,1-.49-1.43,18.8,18.8,0,0,1-.65-3.59,8.55,8.55,0,0,1,.1-2,6,6,0,0,1,.54-1.59c.45-.84.9-1.24.94-1.2a12.54,12.54,0,0,1-.6,1.36,7.61,7.61,0,0,0-.46,3.44c.09,1.38.35,2.64.49,3.55A4.33,4.33,0,0,1,164.83,232.06Z"/><path class="cls-8" d="M190.57,229.65a21.92,21.92,0,0,0-1.51-7.26,22.48,22.48,0,0,0-4.26-6.07,6.42,6.42,0,0,1,1.74,1.39,14.8,14.8,0,0,1,3,4.47,15.08,15.08,0,0,1,1.22,5.25A6,6,0,0,1,190.57,229.65Z"/><path class="cls-8" d="M195.2,228a46.28,46.28,0,0,0-1.83-6.62,44.84,44.84,0,0,0-3.29-6,6.32,6.32,0,0,1,1.37,1.52,20.22,20.22,0,0,1,3.68,9.09A6.29,6.29,0,0,1,195.2,228Z"/><path class="cls-8" d="M177.5,224.57s.18-.27.69-.51a3.26,3.26,0,0,1,2.36-.09,3.22,3.22,0,0,1,1.4.93,3,3,0,0,1,.68,1.81,3.54,3.54,0,0,1-.55,2.06,3,3,0,0,1-1.88,1.34,3.44,3.44,0,0,1-3.77-1.85,3.31,3.31,0,0,1-.17-1.92,3.13,3.13,0,0,1,.66-1.54,3.29,3.29,0,0,1,2.14-1c.58,0,.85.2.83.21a4.86,4.86,0,0,0-.82,0A3.35,3.35,0,0,0,177.2,225a2.87,2.87,0,0,0-.52,1.37,2.93,2.93,0,0,0,.19,1.65,3,3,0,0,0,3.22,1.54,2.82,2.82,0,0,0,2.06-2.87,2.58,2.58,0,0,0-.54-1.56,2.86,2.86,0,0,0-1.19-.85,3.2,3.2,0,0,0-2.15-.07C177.77,224.42,177.53,224.61,177.5,224.57Z"/><path class="cls-6" d="M115.19,127.5c-.54.66-16.58,10.88-19,17.47s1.48,33.41,2.14,38.05,9.77,22.16,9.77,22.16-1.91,7.56.6,12.22a16.94,16.94,0,0,0,7,6.74l16.12-8.83-10-45.26Z"/><path class="cls-4" d="M116.94,175c.46-.65,1.09-1.07,1.46-1.56s1.2-.71,1.6-.23,0,1.33-.52,1.85c1.63.06,2.86-2.16,4.43-1.72a2,2,0,0,1,1,2.65,5,5,0,0,1-2.27,2.17,8.26,8.26,0,0,0-2.56,1.87,1.27,1.27,0,0,0-.19,1.54c.62.71,2.09-.13,2.64.63.38.52-.08,1.22-.51,1.7l-4.72,5.16a3.62,3.62,0,0,1-1.44,1.11,1.22,1.22,0,0,1-1.54-.63,1.39,1.39,0,0,1,.78-1.49,12.77,12.77,0,0,0,1.58-.88,1.17,1.17,0,0,0,.29-1.6c-.52-.54-1.42-.09-2,.38l-5.5,4.32a2.82,2.82,0,0,1-1.34.71,1,1,0,0,1-1.15-.77,1.43,1.43,0,0,1,.25-.75,13.67,13.67,0,0,1,4-4.41,7.21,7.21,0,0,0,1.76-1.44,1.82,1.82,0,0,0,.18-2.12,19.15,19.15,0,0,1-3.56,2.65c-.46.27-1.12.49-1.45.08s0-1,.36-1.45l5.7-6.68a2.78,2.78,0,0,1,1.8-1.22Z"/><path class="cls-6" d="M124.87,112.86l-1.26,7.9-11.87,9.5s-2.8,17.86-.13,36c0,0,17.34,47,17.76,49.05.79,3.81,7.8,7,7.8,7s26.42.25,35.5-1.06,31-15.16,33.11-17,4.46-10.68,4.46-10.68l-16.15-45.26-.91-31.83L169,110.32l-8.2-6.35Z"/><path class="cls-4" d="M196.09,145.87c.46-.65,1.08-1.07,1.46-1.56s1.2-.71,1.59-.23,0,1.33-.51,1.85c1.63.07,2.86-2.16,4.43-1.72a2,2,0,0,1,1,2.65,5,5,0,0,1-2.27,2.17,8.26,8.26,0,0,0-2.56,1.87c-.34.45-.56,1.12-.19,1.54.62.71,2.08-.13,2.64.63.38.52-.08,1.22-.51,1.7l-4.72,5.16A3.58,3.58,0,0,1,195,161a1.22,1.22,0,0,1-1.54-.63,1.41,1.41,0,0,1,.79-1.49,12.77,12.77,0,0,0,1.58-.88,1.17,1.17,0,0,0,.29-1.6c-.52-.54-1.42-.09-2,.38l-5.5,4.32a2.81,2.81,0,0,1-1.35.71,1,1,0,0,1-1.14-.77,1.35,1.35,0,0,1,.25-.75,13.67,13.67,0,0,1,4.05-4.41,7.21,7.21,0,0,0,1.76-1.44,1.82,1.82,0,0,0,.18-2.12,19.15,19.15,0,0,1-3.56,2.65c-.46.27-1.12.49-1.46.08s0-1,.37-1.45l5.7-6.68a2.78,2.78,0,0,1,1.8-1.22Z"/><path class="cls-6" d="M192.79,116.55s13.37,4.65,16.86,12.67,16.9,46,16.07,53-3.08,15-9.13,15.37-13-5.82-13-5.82l-5.45-8.84.29-9.28-6.17-24.68Z"/><path class="cls-9" d="M125.39,116.72c0,.06,27.61,33.84,27.61,33.84l3.76-31.29L162,103.85,126,112.74Z"/><g class="cls-10"><path d="M182.39,114.29c-1.63-.82-3.59-.17-5.24.61-9.34,4.4-19.49,9.75-22.23,19.7l-.12,6c.86,3.62,4.61,6,8.32,6.32s7.35-1.06,10.68-2.74a56.63,56.63,0,0,0,8.49-5.26c1.49-1.11,3-2.47,3.29-4.3.37-2.5-1.72-4.68-2.2-7.16-.44-2.31.55-4.62,1-6.94S184.49,115.35,182.39,114.29Z"/></g><path class="cls-5" d="M111.61,166.29a3.13,3.13,0,0,1,.27.58c.17.44.4,1,.67,1.7.58,1.49,1.39,3.64,2.37,6.31,2,5.34,4.49,12.79,7.33,21,1.42,4.1,2.81,8,4.09,11.53.65,1.77,1.23,3.46,1.86,5a23.79,23.79,0,0,0,2.11,4.1,15.52,15.52,0,0,0,4.71,4.65c1.34.83,2.17,1.15,2.15,1.2a2.67,2.67,0,0,1-.61-.22,13.16,13.16,0,0,1-1.65-.81A15.13,15.13,0,0,1,130,216.7a24.22,24.22,0,0,1-2.2-4.13c-.65-1.55-1.25-3.24-1.91-5-1.3-3.53-2.71-7.42-4.14-11.53l-7.18-21c-.91-2.64-1.66-4.8-2.21-6.37l-.58-1.73A2.68,2.68,0,0,1,111.61,166.29Z"/><path class="cls-5" d="M152.87,151.63s-.1-.09-.26-.3l-.71-.91c-.61-.79-1.51-2-2.69-3.4a113.59,113.59,0,0,0-10.44-11.1l.4-.17c-.11,4.58-.23,9.72-.35,15.15,0,.47,0,.95,0,1.39l0,1.07-.47-1-10.83-22.25-3.21-6.73c-.35-.76-.63-1.37-.85-1.83a3.07,3.07,0,0,1-.26-.66,3.51,3.51,0,0,1,.35.61l.94,1.79,3.35,6.66,11,22.18-.5.11c0-.44,0-.92,0-1.4.14-5.42.28-10.56.4-15.14v-.53l.39.36a101.76,101.76,0,0,1,10.33,11.28c1.15,1.47,2,2.66,2.6,3.48l.64,1A1.1,1.1,0,0,1,152.87,151.63Z"/><path class="cls-5" d="M192.2,176.06c.1.1-8,8.73-18,19.27s-18.27,19-18.38,18.91,8-8.72,18-19.27S192.09,176,192.2,176.06Z"/><path class="cls-5" d="M177.2,219.55a25,25,0,0,1-.77-3.13c-.45-1.94-1.13-4.6-2.07-7.48s-2-5.44-2.72-7.27a25.6,25.6,0,0,1-1.22-3,15.34,15.34,0,0,1,1.55,2.84,60,60,0,0,1,2.89,7.26,61,61,0,0,1,1.93,7.56A15.44,15.44,0,0,1,177.2,219.55Z"/><path class="cls-5" d="M109.51,164.63a60.74,60.74,0,0,1-6.72-4.24,60.11,60.11,0,0,1-6.43-4.66,60.4,60.4,0,0,1,6.72,4.23A60.94,60.94,0,0,1,109.51,164.63Z"/><path class="cls-5" d="M216.59,197.55l-.35,0h-1a9.65,9.65,0,0,1-1.65-.13,13.6,13.6,0,0,1-2.18-.48,14.62,14.62,0,0,1-5.15-3,18,18,0,0,1-4.43-6.24h0v0c-.93-3.79-2-8-3.07-12.46-2-8.46-3.89-16.11-5.25-21.73-.63-2.74-1.15-5-1.53-6.6l-.39-1.8a2.32,2.32,0,0,1-.1-.63,3.89,3.89,0,0,1,.2.61c.13.46.29,1,.49,1.78.41,1.61,1,3.83,1.69,6.55,1.39,5.61,3.29,13.25,5.39,21.7,1.08,4.44,2.11,8.67,3,12.47v0a17.69,17.69,0,0,0,4.24,6.11,14.63,14.63,0,0,0,5,3A22,22,0,0,0,216.59,197.55Z"/><path class="cls-5" d="M118.91,198.16a19.79,19.79,0,0,1-2,.44,13.68,13.68,0,0,0-7.8,5.31A17.63,17.63,0,0,1,108,205.6a5.23,5.23,0,0,1,.83-1.89,11.94,11.94,0,0,1,3.43-3.58,11.79,11.79,0,0,1,4.59-1.89A4.89,4.89,0,0,1,118.91,198.16Z"/><path class="cls-5" d="M119.08,197a14.64,14.64,0,0,1-4.68,1.78,14.58,14.58,0,0,1-5,.62c0-.15,2.2-.45,4.85-1.12S119,196.88,119.08,197Z"/><path class="cls-4" d="M116,141.47c.46-.65,1.08-1.07,1.46-1.56s1.2-.71,1.59-.24,0,1.34-.51,1.85c1.63.07,2.85-2.15,4.42-1.71a2,2,0,0,1,1,2.65,5,5,0,0,1-2.27,2.17,8.3,8.3,0,0,0-2.57,1.87,1.27,1.27,0,0,0-.19,1.53c.63.72,2.09-.13,2.65.64.37.52-.08,1.22-.51,1.69l-4.72,5.16a3.58,3.58,0,0,1-1.45,1.12,1.23,1.23,0,0,1-1.54-.63,1.43,1.43,0,0,1,.79-1.5,10.61,10.61,0,0,0,1.58-.88A1.16,1.16,0,0,0,116,152c-.52-.55-1.43-.09-2,.38l-5.5,4.32a2.85,2.85,0,0,1-1.35.71,1,1,0,0,1-1.14-.77,1.39,1.39,0,0,1,.24-.75,13.89,13.89,0,0,1,4.05-4.41,7.07,7.07,0,0,0,1.77-1.44,1.83,1.83,0,0,0,.18-2.12,20,20,0,0,1-3.56,2.65c-.46.27-1.12.49-1.46.08s0-1,.37-1.45l5.7-6.68a2.84,2.84,0,0,1,1.79-1.23Z"/><path class="cls-4" d="M158,155.05c.46-.65,1.09-1.07,1.46-1.56s1.2-.72,1.6-.24-.05,1.33-.52,1.85c1.63.07,2.86-2.15,4.43-1.71a2,2,0,0,1,1,2.65,5,5,0,0,1-2.27,2.17,8.26,8.26,0,0,0-2.56,1.87c-.34.44-.56,1.11-.19,1.53.62.72,2.09-.13,2.64.64.38.52-.08,1.22-.51,1.69l-4.72,5.16a3.52,3.52,0,0,1-1.45,1.12,1.23,1.23,0,0,1-1.53-.63,1.41,1.41,0,0,1,.78-1.5,11.59,11.59,0,0,0,1.58-.88c.46-.39.71-1.16.29-1.59s-1.42-.09-2,.37l-5.5,4.33a2.81,2.81,0,0,1-1.35.71,1,1,0,0,1-1.14-.77,1.3,1.3,0,0,1,.25-.75,13.57,13.57,0,0,1,4.05-4.41,7.44,7.44,0,0,0,1.76-1.44,1.82,1.82,0,0,0,.18-2.12,20.08,20.08,0,0,1-3.56,2.65c-.46.27-1.12.48-1.46.08s0-1,.37-1.46l5.7-6.67a2.83,2.83,0,0,1,1.8-1.23Z"/><path class="cls-4" d="M142,194.86c.46-.65,1.08-1.07,1.46-1.56s1.2-.71,1.59-.24,0,1.34-.51,1.86c1.63.06,2.86-2.16,4.42-1.72a2,2,0,0,1,1,2.65,5,5,0,0,1-2.27,2.17,8.26,8.26,0,0,0-2.56,1.87,1.26,1.26,0,0,0-.2,1.53c.63.72,2.09-.13,2.65.64.37.52-.08,1.22-.51,1.7l-4.72,5.15a3.58,3.58,0,0,1-1.45,1.12,1.23,1.23,0,0,1-1.54-.63,1.43,1.43,0,0,1,.79-1.5,10.61,10.61,0,0,0,1.58-.88,1.16,1.16,0,0,0,.29-1.59c-.52-.54-1.42-.09-2,.38l-5.5,4.32a2.85,2.85,0,0,1-1.35.71,1,1,0,0,1-1.14-.77,1.32,1.32,0,0,1,.25-.75,13.67,13.67,0,0,1,4.05-4.41,7.21,7.21,0,0,0,1.76-1.44,1.82,1.82,0,0,0,.18-2.12,19.6,19.6,0,0,1-3.56,2.65c-.46.27-1.12.49-1.46.08s0-1,.37-1.45l5.7-6.68a2.78,2.78,0,0,1,1.79-1.22Z"/><path class="cls-4" d="M189.74,191.36c.46-.65,1.08-1.07,1.45-1.56s1.21-.71,1.6-.24,0,1.34-.52,1.85c1.63.07,2.86-2.15,4.43-1.71a2,2,0,0,1,1,2.65,5,5,0,0,1-2.27,2.17,8.18,8.18,0,0,0-2.57,1.87c-.34.44-.56,1.11-.19,1.53.62.72,2.09-.13,2.65.64.37.52-.08,1.22-.51,1.69l-4.72,5.16a3.58,3.58,0,0,1-1.45,1.12,1.23,1.23,0,0,1-1.54-.63,1.44,1.44,0,0,1,.78-1.5,10.23,10.23,0,0,0,1.59-.88,1.17,1.17,0,0,0,.29-1.59c-.53-.55-1.43-.09-2,.37l-5.51,4.33a2.78,2.78,0,0,1-1.34.71,1,1,0,0,1-1.14-.77,1.36,1.36,0,0,1,.24-.75,13.78,13.78,0,0,1,4-4.41,7.07,7.07,0,0,0,1.77-1.44,1.83,1.83,0,0,0,.17-2.12,19.6,19.6,0,0,1-3.56,2.65c-.46.27-1.11.49-1.45.08s0-1,.37-1.45q2.85-3.34,5.69-6.68a2.88,2.88,0,0,1,1.8-1.23Z"/><path class="cls-5" d="M171.5,196.71s-.11-.13-.28-.41l-.7-1.22c-.6-1.07-1.43-2.64-2.43-4.59-2-3.9-4.6-9.37-7.17-15.55s-4.61-11.89-6-16.06c-.68-2.09-1.2-3.78-1.53-5-.15-.54-.28-1-.38-1.36a2.32,2.32,0,0,1-.1-.49,1.59,1.59,0,0,1,.2.46l.47,1.33c.43,1.23,1,2.89,1.69,4.9,1.44,4.13,3.54,9.81,6.1,16s5.11,11.65,7,15.59L170.7,195l.61,1.27A2.56,2.56,0,0,1,171.5,196.71Z"/><path class="cls-4" d="M225.75,181.38c0,.75-3.45,2.32-4.19,2.25l-.88-.28c-.55.57-1.23.89-1.68,1.32s-1.3.52-1.61,0,.25-1.31.8-1.75c-1.6-.32-3.16,1.68-4.64,1a2,2,0,0,1-.58-2.77,5.07,5.07,0,0,1,2.58-1.79,8.13,8.13,0,0,0,2.82-1.45c.41-.39.73-1,.43-1.49-.51-.8-2.08-.19-2.52-1-.29-.57.27-1.19.77-1.59,1.82-1.46,4.31-3.49,6.12-4.94C223.17,168.84,225.69,178,225.75,181.38Z"/><g class="cls-10"><path d="M156.07,213.68c14.51-7.91,27.44-20.64,34.46-35.6Z"/></g><g class="cls-10"><path d="M108,205.6c2.85-6.11,8.43-7.78,13.86-7.71a1.29,1.29,0,0,0-.93-1.47,3.75,3.75,0,0,0-1.91,0,21.41,21.41,0,0,0-7.5,2.57,7.52,7.52,0,0,0-3.43,6.4"/></g><g class="cls-10"><path d="M123.3,121.1a137.68,137.68,0,0,0,17,38.17,22,22,0,0,0,3.36-14.64,16.84,16.84,0,0,0,8.28,5.82c-3.86-5.28-7.85-10.32-12.86-14.53,0,0-.43,17-.41,16.53-5.24-10.5-10.32-20.86-15.39-31.35"/></g><path class="cls-5" d="M167.37,73.9c-1.5,4.85-3.62,8.59-8.32,10.49-4.11,1.67-8.76,1.35-13.1.46C131.84,81.94,117,74.42,109.54,62.12l4-8.72c4.24-6.65,14.58-14.53,26.58-10.63A19.92,19.92,0,0,1,159,47.11C168.12,54.94,167.37,73.9,167.37,73.9Z"/><path class="cls-9" d="M133.46,49.42c-8.24-1-18.87,9-19.56,17.28-.75,9.2-1.32,20.46-.36,27.35,1.93,13.86,12.48,15.83,12.48,15.83l-.51,7,31.57-6.06,1.35-49.43.18-4.46Z"/><path class="cls-5" d="M119,76.68a1.77,1.77,0,0,0,1.68,1.82,1.69,1.69,0,0,0,1.85-1.56,1.77,1.77,0,0,0-1.67-1.82A1.7,1.7,0,0,0,119,76.68Z"/><path class="cls-5" d="M116.71,72.63c.22.24,1.58-.73,3.49-.69s3.28,1,3.49.79-.11-.52-.71-1a4.83,4.83,0,0,0-2.79-.93,4.75,4.75,0,0,0-2.78.84C116.81,72.11,116.61,72.53,116.71,72.63Z"/><path class="cls-5" d="M136.83,77.37a1.78,1.78,0,0,0,1.68,1.82,1.71,1.71,0,0,0,1.86-1.56,1.77,1.77,0,0,0-1.68-1.82A1.69,1.69,0,0,0,136.83,77.37Z"/><path class="cls-5" d="M135.45,73.35c.21.24,1.58-.73,3.48-.69s3.29,1,3.5.79-.11-.52-.71-1a4.87,4.87,0,0,0-2.8-.93,4.78,4.78,0,0,0-2.78.84C135.55,72.83,135.34,73.24,135.45,73.35Z"/><path class="cls-5" d="M128.25,87.36a12.32,12.32,0,0,0-3.08-.62c-.49-.06-1-.17-1-.5a2.43,2.43,0,0,1,.35-1.44L126,81.12c2.1-5.24,3.64-9.55,3.42-9.63s-2.08,4.09-4.19,9.33c-.5,1.3-1,2.53-1.45,3.71a2.86,2.86,0,0,0-.29,1.9,1.24,1.24,0,0,0,.79.73,3.37,3.37,0,0,0,.82.13A13.19,13.19,0,0,0,128.25,87.36Z"/><path class="cls-11" d="M126,109.91a36.63,36.63,0,0,0,19.07-4.59s-5,9.54-19.33,8Z"/><path class="cls-11" d="M129,92a3.42,3.42,0,0,1,3.11-1.22,3.17,3.17,0,0,1,2.14,1.2,2,2,0,0,1,.11,2.28,2.32,2.32,0,0,1-2.52.58,7.27,7.27,0,0,1-2.41-1.5,2.21,2.21,0,0,1-.53-.57.65.65,0,0,1,0-.71"/><path class="cls-5" d="M133.84,88.78c-.31,0-.35,2-2.15,3.48s-4,1.17-4,1.46c0,.13.49.41,1.42.45a5.18,5.18,0,0,0,3.35-1.09,4.52,4.52,0,0,0,1.68-2.92C134.2,89.29,134,88.77,133.84,88.78Z"/><path class="cls-5" d="M135.1,65.87c.18.52,2.09.31,4.32.62s4,1,4.33.5c.14-.22-.17-.71-.88-1.23a7.42,7.42,0,0,0-3.2-1.19,7.24,7.24,0,0,0-3.4.34C135.45,65.22,135,65.62,135.1,65.87Z"/><path class="cls-5" d="M117.52,67.13c.33.44,1.65,0,3.23,0s2.91.35,3.23-.1c.14-.22-.07-.65-.64-1.07a4.49,4.49,0,0,0-2.61-.77,4.42,4.42,0,0,0-2.59.83C117.57,66.47,117.38,66.91,117.52,67.13Z"/><path class="cls-5" d="M157.32,55.59c-1.1-2.33-3.84-3.29-6.26-4.17-3.42-1.24-6.74-2.77-10.23-3.79A21,21,0,0,0,130.07,47c-3.65.89-6.81,3.15-9.61,5.66-3.68,3.31-7,7.37-7.93,12.24v1.67c7.94-2.26,15.82-10.54,21.57-16.46C139,57,147.27,69.27,154.53,72.28c.5-3.53,3.06-8.65,3.29-12.2A9,9,0,0,0,157.32,55.59Z"/><path class="cls-5" d="M184,111.39c-.53-2.76-3.26-4.43-5.65-5.91s-5-3.6-4.82-6.41,3.28-5.23,3-8.16-3.91-4.49-5.84-6.9c-2.79-3.48-3.33-5.65-3.33-10.11,0-8.73-3.5-20.13-11.18-24.29L146.14,58C149.05,66.2,152,74.72,151,83.32c-.61,5.1-2.61,10.07-2.32,15.2.31,5.5,3.22,10.52,4.22,15.94.94,5.14.12,10.43.39,15.65s2,10.87,6.41,13.63l16.7-8c1.8-.87,3.84-2,4.1-4s-1.5-3.75-2-5.76C177.3,120.75,185,116.66,184,111.39Z"/><path class="cls-8" d="M167.09,68.73a12.37,12.37,0,0,1-2.48.82,30.64,30.64,0,0,1-6.21,1.11,18.6,18.6,0,0,1-6.29-.68,9,9,0,0,1-2.43-1c0-.21,3.8,1.44,8.69,1.11a43.16,43.16,0,0,0,6.16-1A14.73,14.73,0,0,1,167.09,68.73Z"/><path class="cls-8" d="M167.41,71.94a8.64,8.64,0,0,1-2.25,1.23,16.71,16.71,0,0,1-6.06,1.3,21.49,21.49,0,0,1-6.13-.84,9.69,9.69,0,0,1-2.41-.87,16.3,16.3,0,0,1,2.5.52,26.41,26.41,0,0,0,6,.67A19.31,19.31,0,0,0,165,72.83,23.07,23.07,0,0,1,167.41,71.94Z"/><path class="cls-8" d="M108.77,66.77a23.23,23.23,0,0,1,2.66-.22,25.35,25.35,0,0,1,2.63-.42,6,6,0,0,1-5.29.64Z"/><path class="cls-8" d="M108.27,68.35c.09-.12,1.16.61,2.63,1.11s2.75.6,2.75.75a6.07,6.07,0,0,1-5.38-1.86Z"/><path class="cls-5" d="M155,137a2.66,2.66,0,0,1-.73-.21,5.11,5.11,0,0,1-1.78-1.26,5.79,5.79,0,0,1-1.5-3.11,5.17,5.17,0,0,1,.15-2.19,9.38,9.38,0,0,1,1.06-2.19,21.7,21.7,0,0,0,1.28-2.28,7.09,7.09,0,0,0,.57-2.7,11.94,11.94,0,0,0-1.78-5.86,63.43,63.43,0,0,0-4.08-5.63,15.85,15.85,0,0,1-3.24-6.81,18.28,18.28,0,0,1,.45-7.54,45.83,45.83,0,0,1,2.34-6.61c.86-2,1.7-4,2.34-5.85a26.76,26.76,0,0,0,1.27-5.31,18.48,18.48,0,0,0-.47-7.83A12.45,12.45,0,0,0,149.68,69a4.73,4.73,0,0,1,.47.6,8.94,8.94,0,0,1,.95,2,17.88,17.88,0,0,1,.64,7.94,26,26,0,0,1-1.23,5.4c-.62,1.89-1.45,3.84-2.3,5.9a47.55,47.55,0,0,0-2.29,6.55,17.79,17.79,0,0,0-.42,7.32,15.47,15.47,0,0,0,3.13,6.6,62,62,0,0,1,4.08,5.69,12.06,12.06,0,0,1,1.8,6.11,7.56,7.56,0,0,1-.63,2.86,19.9,19.9,0,0,1-1.34,2.3,9.16,9.16,0,0,0-1,2.1,4.7,4.7,0,0,0-.18,2A5.7,5.7,0,0,0,155,137Z"/><path class="cls-8" d="M140.64,42.62a14,14,0,0,0-4,2.74,13.52,13.52,0,0,0-2.4,4.21,2.91,2.91,0,0,1,.21-1.47A8.29,8.29,0,0,1,139.2,43,2.91,2.91,0,0,1,140.64,42.62Z"/><path class="cls-9" d="M193.64,136.62l-6.82-10.73-.47-10.55,2.67-7.22s2.13-.5,2.49,2a13.87,13.87,0,0,1-.79,5.62l1.45,5.12s.49.55.94-1.58-.34-17.92-.35-19,.08-3.67,1.69-3.43,2.12,2.37,2.13,3.46S197.76,112,197.76,112s.37,1,.75.81-.33-11.36-.41-13.14S197.63,94,199.72,94s2.08,2,2.19,4.14,1.48,14.33,1.48,14.33.32.76.61-.26.67-14.24.91-14.86,1.44-1.43,2.38.06.72,5,.59,11.15c-.12,5.55-.29,7.86.35,8.29s3-3,3-3,2.84-7.32,5.24-7.06.8,2.14.38,3.83c-.35,1.44-4.55,10-4.64,10.11S208,136.09,208,136.09l9.13,17.47a16.38,16.38,0,0,1,1.78,9.92c-.55,3.73-2.47,7.89-7.94,9.59-4,1.26-7-.54-9-2.66a13.11,13.11,0,0,1-3.23-6.7c-1.18-6.73-5.11-27.09-5.11-27.09Z"/><path class="cls-11" d="M200.43,128.92c-.09,0,0-.81-.21-2.06a8.34,8.34,0,0,0-2.22-4.29,5.79,5.79,0,0,0-3.44-1.75,3.61,3.61,0,0,0-2.34.53l-.09.06,0-.09c-.14-.28-.2-.44-.17-.45s.14.1.32.36l-.13,0a3.29,3.29,0,0,1,2.48-.81,5.86,5.86,0,0,1,3.78,1.8,7.94,7.94,0,0,1,2.21,4.6A4.23,4.23,0,0,1,200.43,128.92Z"/><path class="cls-11" d="M206.19,120.81c.09.13-.84.92-1.74,2.09a21.94,21.94,0,0,1-1.59,2.19,6.33,6.33,0,0,1,3.33-4.28Z"/><path class="cls-9" d="M113.78,216.34a18.54,18.54,0,0,0,4.89,12,94.8,94.8,0,0,0,7.07,6.92L143,243s4.49.68,9-3.72a14.73,14.73,0,0,0,3.5-4.5s5.17,2.31,7.18,2.22c3.4-.15,2.87-2.54,2.87-2.54s-11.37-6.27-14.08-8.69-10.47-4-16-3.29l-3.2-.62-1.15-4.3s-6.24-9.3-12-6S113.78,216.34,113.78,216.34Z"/></g></g></svg>