<svg xmlns="http://www.w3.org/2000/svg" xmlns:xlink="http://www.w3.org/1999/xlink" viewBox="0 0 617.39 422.01"><defs><style>.cls-1{fill:none;}.cls-2{fill:#ebebeb;}.cls-3{fill:#e0e0e0;}.cls-4{fill:#f5f5f5;}.cls-5{fill:#fafafa;}.cls-6{fill:#fff;}.cls-7{fill:#455a64;}.cls-8{fill:#263238;}.cls-9{fill:#e8505b;}.cls-10{opacity:0.4;}.cls-11{clip-path:url(#clip-path);}.cls-12{opacity:0.3;}.cls-13{fill:#ffbe9d;}.cls-14{fill:#eb996e;}</style><clipPath id="clip-path"><path class="cls-1" d="M128.74,199.15a2.58,2.58,0,0,1,.36,1.29,2.55,2.55,0,1,1-4.74-1.29h-3a2.48,2.48,0,0,1,.36,1.29,2.55,2.55,0,1,1-4.74-1.29h-3a2.48,2.48,0,0,1,.36,1.29,2.55,2.55,0,1,1-5.09,0,2.48,2.48,0,0,1,.36-1.29h-3a2.48,2.48,0,0,1,.36,1.29,2.55,2.55,0,1,1-5.09,0,2.48,2.48,0,0,1,.36-1.29H99.43a2.55,2.55,0,1,1-4.74,1.29,2.48,2.48,0,0,1,.36-1.29h-3a2.57,2.57,0,0,1,.35,1.29,2.54,2.54,0,1,1-5.08,0,2.57,2.57,0,0,1,.35-1.29H85.87v52.63h43.84V199.15Z"/></clipPath></defs><g id="Layer_2" data-name="Layer 2"><g id="Plant"><polygon class="cls-2" points="253.79 46.56 271.69 103.2 258.73 103.2 253.02 83.67 253.79 46.56"/><rect class="cls-3" x="22.58" y="103.14" width="267.38" height="15.98"/><rect class="cls-3" x="59.84" y="115.63" width="12.94" height="24.53"/><rect class="cls-3" x="226.78" y="115.63" width="12.93" height="24.53"/><path class="cls-2" d="M31.66,29.06s-12,9.14-.5,21.22a1.07,1.07,0,0,0,.76.32L136.76,50s9-10.05,1.52-21.62Z"/><path class="cls-3" d="M113.59,38.6c0,.11-13.06.21-29.16.21s-29.16-.1-29.16-.21,13.06-.21,29.16-.21S113.59,38.48,113.59,38.6Z"/><path class="cls-3" d="M97.28,42.39c0,.12-6.14.21-13.71.21s-13.71-.09-13.71-.21,6.14-.21,13.71-.21S97.28,42.27,97.28,42.39Z"/><path class="cls-3" d="M124.31,49.65c-.07,0,.23-1.2.55-3.15a43.26,43.26,0,0,0-.14-15.28c-.36-1.94-.68-3.12-.62-3.14a3.34,3.34,0,0,1,.31.81c.17.53.38,1.3.6,2.27a37.23,37.23,0,0,1,.15,15.4c-.2,1-.4,1.75-.56,2.28A3.2,3.2,0,0,1,124.31,49.65Z"/><path class="cls-3" d="M132.13,28.24a3.72,3.72,0,0,1,.47.76c.14.26.3.57.46.94s.37.8.54,1.29a22.93,22.93,0,0,1,1,3.47,26,26,0,0,1,.45,4.42,25.45,25.45,0,0,1-.38,4.42,22.52,22.52,0,0,1-.94,3.49c-.16.49-.36.91-.52,1.29a8.65,8.65,0,0,1-.45,1,4.38,4.38,0,0,1-.45.77c-.08,0,.51-1.17,1.13-3.11a24.43,24.43,0,0,0,.84-3.46,28,28,0,0,0,.35-4.35,26.29,26.29,0,0,0-.42-4.34,25.19,25.19,0,0,0-.89-3.45C132.66,29.4,132.06,28.28,132.13,28.24Z"/><path class="cls-3" d="M48.2,49.79a3.36,3.36,0,0,1-.48-.7,6.17,6.17,0,0,1-.49-.88,10.5,10.5,0,0,1-.56-1.2,17.8,17.8,0,0,1-1-3.31,21.37,21.37,0,0,1-.4-4.22,20.89,20.89,0,0,1,.52-4.21A17.64,17.64,0,0,1,46.87,32a11,11,0,0,1,.59-1.19,8.16,8.16,0,0,1,.51-.86c.31-.46.48-.71.51-.69s-.6,1.06-1.34,2.86a20.2,20.2,0,0,0-1,3.24,22.83,22.83,0,0,0-.48,4.13A22.4,22.4,0,0,0,46,43.63a20.43,20.43,0,0,0,.91,3.27C47.63,48.72,48.28,49.75,48.2,49.79Z"/><path class="cls-3" d="M36.88,52.35a5.29,5.29,0,0,1-.54-.8,10,10,0,0,1-.54-1c-.2-.4-.44-.84-.64-1.35a23,23,0,0,1-1.2-3.7,26.24,26.24,0,0,1-.59-4.73A25.44,25.44,0,0,1,33.75,36a22.62,22.62,0,0,1,1-3.75c.17-.52.4-1,.57-1.38a9.25,9.25,0,0,1,.5-1,3.33,3.33,0,0,1,.51-.82c.07,0-.6,1.23-1.3,3.3a24.27,24.27,0,0,0-.93,3.72,24.95,24.95,0,0,0,.2,9.33,25.46,25.46,0,0,0,1.1,3.67C36.23,51.14,37,52.31,36.88,52.35Z"/><path class="cls-2" d="M132.91,81.92V102H94.09V81.92Z"/><path class="cls-3" d="M7.53,92.13l0,.53a11.5,11.5,0,0,0,11.55,10.77H134.72V102H107.28a10,10,0,0,1-10-10h0a10,10,0,0,1,10-10h27.44V79.78l-115.65.39A11.58,11.58,0,0,0,7.53,92.13Z"/><path class="cls-3" d="M132.91,92.21c0,.12-8,.22-17.82.22s-17.83-.1-17.83-.22,8-.21,17.83-.21S132.91,92.1,132.91,92.21Z"/><path class="cls-3" d="M132.35,96.73c0,.12-7.55.22-16.87.22s-16.87-.1-16.87-.22,7.55-.21,16.87-.21S132.35,96.62,132.35,96.73Z"/><path class="cls-3" d="M132.91,100.87c0,.12-6.79.21-15.16.21s-15.17-.09-15.17-.21,6.79-.21,15.17-.21S132.91,100.75,132.91,100.87Z"/><path class="cls-3" d="M132.91,88.15c0,.12-7.82.21-17.46.21S98,88.27,98,88.15s7.82-.21,17.46-.21S132.91,88,132.91,88.15Z"/><path class="cls-3" d="M132.35,84.09c0,.12-7,.21-15.54.21s-15.55-.09-15.55-.21,7-.21,15.55-.21S132.35,84,132.35,84.09Z"/><path class="cls-4" d="M21.54,80.51a26.66,26.66,0,0,0-2.45,2.92,14.85,14.85,0,0,0,.2,17.19,27.72,27.72,0,0,0,2.52,2.87,5.18,5.18,0,0,1-.83-.62,13.55,13.55,0,0,1-1.93-2.07,14.61,14.61,0,0,1-.21-17.54,13.36,13.36,0,0,1,1.88-2.11A4,4,0,0,1,21.54,80.51Z"/><path class="cls-4" d="M17.63,80.08A26.66,26.66,0,0,0,15.18,83a14.87,14.87,0,0,0,.2,17.2,26.8,26.8,0,0,0,2.52,2.86,4.48,4.48,0,0,1-.83-.62,13.08,13.08,0,0,1-1.93-2.07,14.61,14.61,0,0,1-.21-17.54,13.36,13.36,0,0,1,1.88-2.11A4,4,0,0,1,17.63,80.08Z"/><path class="cls-4" d="M96.19,80.51a26.66,26.66,0,0,0-2.45,2.92,14.85,14.85,0,0,0,.2,17.19,27.72,27.72,0,0,0,2.52,2.87,5.18,5.18,0,0,1-.83-.62,13.55,13.55,0,0,1-1.93-2.07,14.61,14.61,0,0,1-.21-17.54,13.36,13.36,0,0,1,1.88-2.11A4,4,0,0,1,96.19,80.51Z"/><path class="cls-4" d="M92.28,80.08A26.66,26.66,0,0,0,89.83,83a14.87,14.87,0,0,0,.2,17.2,26.8,26.8,0,0,0,2.52,2.86,4.48,4.48,0,0,1-.83-.62,13.08,13.08,0,0,1-1.93-2.07,14.61,14.61,0,0,1-.21-17.54,13.36,13.36,0,0,1,1.88-2.11A4,4,0,0,1,92.28,80.08Z"/><path class="cls-4" d="M34.7,95l-.11-8.16a5.72,5.72,0,0,0-.29-2.1,2,2,0,0,0-1.55-1.3c-1-.46-2.61.4-3.32,1.57a7.69,7.69,0,0,0-.81,4,57.74,57.74,0,0,0,.32,6.44,7.24,7.24,0,0,0,.76,2.95,2.75,2.75,0,0,0,2.49,1.5A2.75,2.75,0,0,0,34.36,98,8.21,8.21,0,0,0,34.7,95Z"/><path class="cls-4" d="M79.6,92.61c0,.11-8.36.21-18.66.21s-18.67-.1-18.67-.21,8.35-.22,18.67-.22S79.6,92.49,79.6,92.61Z"/><polygon class="cls-4" points="26.95 79.71 26.74 60.69 37.09 60.69 37.45 79.71 26.95 79.71"/><path class="cls-3" d="M36.48,64.07a26.61,26.61,0,0,1-4.81.22,26.61,26.61,0,0,1-4.81-.22,28.42,28.42,0,0,1,4.81-.21A28.42,28.42,0,0,1,36.48,64.07Z"/><path class="cls-3" d="M36.48,67a27.22,27.22,0,0,1-4.81.21A27.22,27.22,0,0,1,26.86,67a27.22,27.22,0,0,1,4.81-.21A27.22,27.22,0,0,1,36.48,67Z"/><path class="cls-3" d="M36.48,70a28.42,28.42,0,0,1-4.81.21A28.42,28.42,0,0,1,26.86,70a26.61,26.61,0,0,1,4.81-.22A26.61,26.61,0,0,1,36.48,70Z"/><path class="cls-3" d="M36.48,72.88a27.22,27.22,0,0,1-4.81.21,27.22,27.22,0,0,1-4.81-.21,27.22,27.22,0,0,1,4.81-.21A27.22,27.22,0,0,1,36.48,72.88Z"/><path class="cls-3" d="M36.48,75.82a28.42,28.42,0,0,1-4.81.21,28.42,28.42,0,0,1-4.81-.21,26.61,26.61,0,0,1,4.81-.22A26.61,26.61,0,0,1,36.48,75.82Z"/><path class="cls-2" d="M26.19,60.19H140.92c1.42,6.3,1.22,13.23,0,20.55H26.68v-1.4h7A3.29,3.29,0,0,0,37,76.05V64.67a3.29,3.29,0,0,0-3.3-3.29H26.19Z"/><path class="cls-5" d="M53.31,70.48h1.92a.54.54,0,0,1,.21,0,.4.4,0,0,1,.2.36.41.41,0,0,1,0,.12l-.13.49a5.49,5.49,0,0,1-1.2,2.17,2.27,2.27,0,0,1-1.63.84h-.24a1.9,1.9,0,0,1-1.3-.94,4.35,4.35,0,0,1-.57-2.31,6.24,6.24,0,0,1,.23-1.64,5.44,5.44,0,0,1,1.14-2.22,2.3,2.3,0,0,1,1.72-.92,1.59,1.59,0,0,1,.72.17A2.32,2.32,0,0,1,55.49,68a.41.41,0,0,1,0,.19.36.36,0,0,1-.06.2.38.38,0,0,1-.35.21l-.13,0a.38.38,0,0,1-.26-.26l0,0a1.59,1.59,0,0,0-.23-.45,1.07,1.07,0,0,0-.91-.55,1.14,1.14,0,0,0-.64.23,3.37,3.37,0,0,0-1,1.51,5.65,5.65,0,0,0-.45,2.16,3.86,3.86,0,0,0,.33,1.69,1.1,1.1,0,0,0,1,.75,1.35,1.35,0,0,0,.93-.56,4.92,4.92,0,0,0,1-1.77c-.88,0-1.34,0-1.37,0-.3,0-.45-.2-.46-.46a.57.57,0,0,1,0-.14A.43.43,0,0,1,53.31,70.48Z"/><path class="cls-5" d="M59.83,66.74s0,.09.05.14Q60,67.3,61.23,74a.36.36,0,0,1,0,.1.42.42,0,0,1-.06.21.37.37,0,0,1-.34.21h-.06a.37.37,0,0,1-.32-.29L60,71.86H57.66l-1.14,2.37,0,.08a.45.45,0,0,1-.36.2.43.43,0,0,1-.22-.06.4.4,0,0,1-.19-.35.5.5,0,0,1,0-.12q.1-.26.36-.78c1.64-3.6,2.63-5.73,2.95-6.38a.46.46,0,0,1,.4-.28A.43.43,0,0,1,59.83,66.74Zm-.52,1.59L58,71h1.8Z"/><path class="cls-5" d="M66.23,74.51H62.77a.43.43,0,0,1-.22-.06.65.65,0,0,1-.2-.44h0q0-.21,1-7.08a.77.77,0,0,1,0-.15.37.37,0,0,1,.37-.25.39.39,0,0,1,.41.41c0,.31-.11,1-.24,1.94-.39,3-.6,4.62-.62,4.78h2.94a.78.78,0,0,1,.22,0,.4.4,0,0,1,.27.39.28.28,0,0,1,0,.13A.46.46,0,0,1,66.23,74.51Z"/><path class="cls-5" d="M71,66.74a1.21,1.21,0,0,0,.05.14q.12.42,1.35,7.11a.36.36,0,0,1,0,.1.42.42,0,0,1-.06.21.37.37,0,0,1-.34.21h-.07a.36.36,0,0,1-.31-.29l-.46-2.36H68.78l-1.13,2.37a.2.2,0,0,1,0,.08.43.43,0,0,1-.35.2.46.46,0,0,1-.23-.06.41.41,0,0,1-.18-.35.25.25,0,0,1,0-.12c.07-.17.19-.43.35-.78q2.48-5.4,3-6.38a.44.44,0,0,1,.78-.08Zm-.52,1.59L69.17,71H71Z"/><path class="cls-5" d="M76.47,70.82c.26.75.47,1.33.62,1.73q.54,1.49.54,1.56a.38.38,0,0,1-.07.21.39.39,0,0,1-.35.19c-.15,0-.26-.09-.34-.28a1.2,1.2,0,0,1-.06-.17c-.19-.43-.5-1.24-.93-2.44l-2,2.68a.45.45,0,0,1-.36.21.54.54,0,0,1-.22-.05.39.39,0,0,1-.19-.35V74a1.21,1.21,0,0,1,.21-.33c.66-.85,1.38-1.86,2.17-3L75.3,70q-1.11-3-1.11-3.06a.54.54,0,0,1,0-.21.36.36,0,0,1,.34-.2.4.4,0,0,1,.38.22l1.16,3.12,2.3-3.14a.47.47,0,0,1,.37-.2.41.41,0,0,1,.19,0,.38.38,0,0,1,.2.36.43.43,0,0,1,0,.19Z"/><path class="cls-5" d="M85,66.56a.41.41,0,0,1,.19,0,.39.39,0,0,1,.22.35q-.84,6.71-.93,7.25a4.49,4.49,0,0,1-.74,1.89,2.7,2.7,0,0,1-2.3,1.12,2.65,2.65,0,0,1-1.11-.29,2.46,2.46,0,0,1-1.22-1.07.45.45,0,0,1,0-.2.54.54,0,0,1,0-.21.42.42,0,0,1,.36-.2.38.38,0,0,1,.31.17,2.26,2.26,0,0,0,1.77,1,1.79,1.79,0,0,0,1.38-.7,3.82,3.82,0,0,0,.76-2.17,2.16,2.16,0,0,1-.51.54,2.06,2.06,0,0,1-1.24.4h-.23a1.83,1.83,0,0,1-1.31-.95,4.2,4.2,0,0,1-.58-2.3c0-.42,0-.85.06-1.3.06-.7.22-1.69.46-3a.56.56,0,0,1,0-.12.39.39,0,0,1,.37-.28.36.36,0,0,1,.2.06.37.37,0,0,1,.21.33c0,.21-.07.74-.19,1.57a23.17,23.17,0,0,0-.28,2.41A5,5,0,0,0,81,72.81c.24.56.58.84,1,.84h.14a1.92,1.92,0,0,0,1-.83,5.12,5.12,0,0,0,.86-1.91L84.61,67a.48.48,0,0,1,0-.17A.39.39,0,0,1,85,66.56Z"/><path class="cls-4" d="M136.61,81c-.12,0-.21-4.72-.21-10.54s.09-10.55.21-10.55.21,4.72.21,10.55S136.73,81,136.61,81Z"/><path class="cls-3" d="M42.73,81c-.12,0-.21-4.72-.21-10.54s.09-10.55.21-10.55.21,4.72.21,10.55S42.85,81,42.73,81Z"/><path class="cls-4" d="M138.62,81c-.11,0-.21-4.72-.21-10.54s.1-10.55.21-10.55.22,4.72.22,10.55S138.74,81,138.62,81Z"/><path class="cls-3" d="M40.85,81c-.12,0-.22-4.72-.22-10.54s.1-10.55.22-10.55.21,4.72.21,10.55S41,81,40.85,81Z"/><path class="cls-3" d="M108.79,63.39l0,0,12.13,9.78.11.09-.14,0-1.61.43L109,76.37h0L99.7,72.44l-2.62-1.13-.7-.3-.17-.08-.06,0,.06,0,.18.07.7.28,2.64,1.1,9.3,3.89h0l10.24-2.7,1.61-.42,0,.12-12.1-9.81,0,0v0"/><polygon class="cls-3" points="119.81 71.62 120.47 72.24 121.35 72.05 120.97 72.87 121.42 73.65 120.52 73.54 119.92 74.22 119.75 73.32 118.92 72.96 119.71 72.52 119.81 71.62"/><polygon class="cls-3" points="108.17 75.47 108.63 75.85 109.19 75.69 108.97 76.24 109.3 76.72 108.71 76.69 108.35 77.15 108.2 76.58 107.65 76.37 108.15 76.06 108.17 75.47"/><polygon class="cls-3" points="95.33 70.2 96.05 70.25 96.49 69.68 96.67 70.38 97.35 70.63 96.74 71.01 96.71 71.73 96.16 71.27 95.46 71.47 95.73 70.8 95.33 70.2"/><polygon class="cls-3" points="125.24 63.55 125.96 63.59 126.41 63.03 126.59 63.73 127.26 63.97 126.65 64.36 126.63 65.08 126.07 64.62 125.38 64.82 125.64 64.15 125.24 63.55"/><polygon class="cls-3" points="108.21 63.08 108.67 63.1 108.95 62.74 109.06 63.19 109.5 63.35 109.11 63.59 109.09 64.05 108.73 63.76 108.29 63.89 108.46 63.46 108.21 63.08"/><path class="cls-3" d="M126.25,64.05s-3.92-.08-8.76-.29-8.75-.41-8.75-.46,3.92.09,8.76.29S126.25,64,126.25,64.05Z"/><path class="cls-3" d="M130.66,60H14.3c-1.53-3.46-1.9-6.74,0-9.69H130.66A11.25,11.25,0,0,1,130.66,60Z"/><rect class="cls-2" x="38.39" y="53.09" width="63.04" height="3.52"/><path class="cls-3" d="M18.76,60.06a3.42,3.42,0,0,1-.91-1.17,8.46,8.46,0,0,1-1.07-3.44,8.57,8.57,0,0,1,.45-3.57,3.4,3.4,0,0,1,.7-1.31,11.61,11.61,0,0,1-.42,1.4,10.17,10.17,0,0,0-.3,3.45,10,10,0,0,0,.9,3.33A10.92,10.92,0,0,1,18.76,60.06Z"/><path class="cls-3" d="M21.28,60.06a3.51,3.51,0,0,1-.92-1.17,8.55,8.55,0,0,1-.61-7,3.4,3.4,0,0,1,.7-1.31A11.61,11.61,0,0,1,20,52a10.14,10.14,0,0,0-.31,3.45,10,10,0,0,0,.91,3.33A10.92,10.92,0,0,1,21.28,60.06Z"/><path class="cls-4" d="M126,59.84a20.31,20.31,0,0,0,.82-4.74,19.34,19.34,0,0,0-.77-4.74,8.4,8.4,0,0,1,1.19,4.74A8.47,8.47,0,0,1,126,59.84Z"/><path class="cls-4" d="M123.78,59.81c-.12,0,.37-2.07.35-4.64s-.48-4.6-.36-4.63a11.23,11.23,0,0,1,.79,4.63A11.21,11.21,0,0,1,123.78,59.81Z"/><polygon class="cls-3" points="173.94 0 253.79 0 253.79 104.2 174.48 104.2 173.94 0"/><rect class="cls-6" x="168.14" y="0.51" width="79.39" height="103.14" transform="translate(415.67 104.16) rotate(180)"/><path class="cls-3" d="M247.92.12V104H167.74V.12Zm-.79,103.14V.9h-78.6V103.26Z"/><rect class="cls-6" x="176.42" y="11.7" width="60.78" height="80.8"/><path class="cls-3" d="M176.3,11.68s0,.14,0,.39,0,.65,0,1.14c0,1,0,2.48,0,4.4,0,3.85,0,9.46,0,16.57,0,14.21.05,34.39.09,58.3l-.18-.19,60.77,0h0l-.21.21c0-30.09,0-58,0-80.8l.17.17-44.14-.09-12.29,0-3.23,0-1.12,0,1.08,0,3.21,0,12.25,0,44.24-.09h.17v.17c0,22.82,0,50.71,0,80.8v.2h-.21l-60.77,0h-.19v-.18c0-24,.07-44.18.09-58.42,0-7.09,0-12.69.05-16.53,0-1.9,0-3.36,0-4.36,0-.49,0-.86,0-1.12S176.3,11.68,176.3,11.68Z"/><path class="cls-3" d="M168,103.65A10.86,10.86,0,0,1,169,101.9c.7-1,1.7-2.47,2.84-4s2.23-2.92,3-3.89a8.9,8.9,0,0,1,1.39-1.51,11.45,11.45,0,0,1-1.16,1.69l-2.94,4-2.94,3.95A9.5,9.5,0,0,1,168,103.65Z"/><path class="cls-3" d="M168.14.51A57.89,57.89,0,0,1,172.38,6a57.4,57.4,0,0,1,3.92,5.7,59.5,59.5,0,0,1-4.25-5.46A59,59,0,0,1,168.14.51Z"/><line class="cls-6" x1="247.53" y1="0.51" x2="237.08" y2="12.09"/><path class="cls-3" d="M237.08,12.09a72.78,72.78,0,0,1,5.07-5.93A76.47,76.47,0,0,1,247.53.51a74.73,74.73,0,0,1-5.08,5.93A73,73,0,0,1,237.08,12.09Z"/><path class="cls-3" d="M247.53,103.65a65.31,65.31,0,0,1-5.14-5.39,66,66,0,0,1-4.84-5.67A71.78,71.78,0,0,1,242.69,98,68.22,68.22,0,0,1,247.53,103.65Z"/><path class="cls-3" d="M179.2,92.48s6.55-20.26,10.43-22.42a37.39,37.39,0,0,1,17.07-4.62c9-.07,13.28.59,18.56,4.22,6.1,4.19,10.22,22.61,10.22,22.61"/><path class="cls-3" d="M197.34,32.15c-5.59.24-7,7.75-6.58,12,.18,2,.8,4.24-.22,6-.73,1.25-2.16,2-2.76,3.31-.74,1.59,0,3.43.5,5.11s.76,3.78-.57,4.92a48.2,48.2,0,0,0,9.64,1.81,16.33,16.33,0,0,0,9.46-2.1"/><path class="cls-3" d="M193.35,47.13c-3.69-8.45,1.32-13.62,4.58-15.48a13.79,13.79,0,0,1,6.48-1.4,23.81,23.81,0,0,1,6.58.58A11.86,11.86,0,0,1,216.68,34c2.69,2.86,3.31,7.1,3.07,11a30.68,30.68,0,0,1-3.86,13.17,3.15,3.15,0,0,1-1.14,1.33,1.19,1.19,0,0,1-1.58-.28"/><path class="cls-4" d="M205.8,76.12c3.8.26,7.11-3,7.51-8.85l2-29.72-.14,2.06a2.39,2.39,0,0,0-2.14-2.42L201.27,36a7.17,7.17,0,0,0-7.89,6.71c-.27,4.52-.42,10.06.12,13.43,1.1,6.78,6.3,7.63,6.3,7.63l-.4,4.93a6.88,6.88,0,0,0,6.4,7.44Z"/><path class="cls-3" d="M195.64,46.52a.86.86,0,0,0,.84.87.84.84,0,0,0,.9-.79.87.87,0,0,0-.84-.87A.83.83,0,0,0,195.64,46.52Z"/><path class="cls-3" d="M194.59,45.56c.11.12.77-.37,1.7-.38s1.63.47,1.73.36-.06-.26-.36-.48a2.48,2.48,0,0,0-1.38-.42,2.33,2.33,0,0,0-1.36.44C194.63,45.31,194.54,45.51,194.59,45.56Z"/><path class="cls-3" d="M204.64,46.52a.86.86,0,0,0,.84.87.84.84,0,0,0,.9-.79.87.87,0,0,0-.85-.87A.82.82,0,0,0,204.64,46.52Z"/><path class="cls-3" d="M203.8,45.71c.11.11.76-.38,1.7-.38s1.63.47,1.73.35-.06-.25-.36-.47a2.49,2.49,0,0,0-1.39-.42,2.32,2.32,0,0,0-1.35.44C203.84,45.45,203.74,45.66,203.8,45.71Z"/><path class="cls-3" d="M200.42,52.67a5.51,5.51,0,0,0-1.52-.27c-.24,0-.47-.07-.51-.24a1.17,1.17,0,0,1,.16-.71c.22-.58.45-1.18.7-1.82a31,31,0,0,0,1.57-4.77,31.94,31.94,0,0,0-1.95,4.63c-.24.64-.46,1.25-.67,1.84a1.32,1.32,0,0,0-.12.93.59.59,0,0,0,.39.35,1.62,1.62,0,0,0,.41.06A6.28,6.28,0,0,0,200.42,52.67Z"/><path class="cls-2" d="M199.8,63.75a17.31,17.31,0,0,0,9.09-2.45s-2.43,4.7-9.22,4.09Z"/><path class="cls-3" d="M200.82,54.92a1.71,1.71,0,0,1,1.51-.63,1.54,1.54,0,0,1,1.07.57,1,1,0,0,1,.08,1.12,1.14,1.14,0,0,1-1.23.31,3.66,3.66,0,0,1-1.2-.71,1,1,0,0,1-.27-.28.32.32,0,0,1,0-.35"/><path class="cls-3" d="M203.18,53.31c-.16,0-.15,1-1,1.73s-1.95.61-2,.76.24.19.7.2a2.49,2.49,0,0,0,1.63-.57,2.19,2.19,0,0,0,.79-1.45C203.36,53.55,203.25,53.3,203.18,53.31Z"/><path class="cls-3" d="M203.37,44.07c.09.26,1,.13,2.13.26s2,.43,2.13.2-.09-.35-.45-.6a3.57,3.57,0,0,0-1.58-.54,3.47,3.47,0,0,0-1.66.2C203.53,43.75,203.33,44,203.37,44.07Z"/><path class="cls-3" d="M194.93,42.85c.16.21.81,0,1.58,0s1.44.14,1.59-.09,0-.32-.33-.52a2.18,2.18,0,0,0-1.29-.34,2.12,2.12,0,0,0-1.26.43C194.94,42.53,194.85,42.75,194.93,42.85Z"/><path class="cls-3" d="M198.68,31.25c6.57-3.7,13.63-1.11,18.95,4.23,1.18,1.18,2.24,2.57,3.76,3.22s3.85.6,4.84,2.1c1.14,1.76-.4,4.24.44,6.17.77,1.77,3.2,2.28,4.1,4,.72,1.34.27,3-.07,4.45s-.46,3.26.66,4.29l-14.15,5.37a3.59,3.59,0,0,1-2,.22c-2-.4-2.16-2.26-2-3.8a6.38,6.38,0,0,0-.09-3.42c-.57-1.25-2-1.91-2.55-3.18-.91-2.24,1.62-4.57,1.31-7A4.49,4.49,0,0,0,209,44.65c-1.39-.6-2.93-.8-4.37-1.26-3.34-1.07-6.09-4.13-7.51-7.53a3.67,3.67,0,0,1,1.52-4.61Z"/><rect class="cls-3" x="482.8" y="35.98" width="127.29" height="132.69"/><rect class="cls-5" x="474.18" y="35.98" width="127.29" height="132.69"/><path class="cls-3" d="M601.51,168.71H474.14V35.94H601.51Zm-127.29-.07H601.43V36H474.22Z"/><rect class="cls-6" x="491.29" y="53.82" width="93.07" height="97.02"/><path class="cls-3" d="M491.29,151.48a15.25,15.25,0,0,1-2.3,2.67c-1.48,1.57-3.57,3.69-5.91,6s-4.5,4.36-6.08,5.82a14.9,14.9,0,0,1-2.69,2.24,14.56,14.56,0,0,1,2.28-2.66c1.49-1.57,3.58-3.7,5.93-6s4.5-4.37,6.09-5.83A14.55,14.55,0,0,1,491.29,151.48Z"/><path class="cls-3" d="M584.36,151.24a15.25,15.25,0,0,1,2.67,2.3c1.57,1.49,3.69,3.58,6,5.92s4.36,4.49,5.82,6.08a15,15,0,0,1,2.24,2.69,14.93,14.93,0,0,1-2.66-2.29c-1.57-1.48-3.7-3.58-6-5.93s-4.37-4.5-5.83-6.09A14.17,14.17,0,0,1,584.36,151.24Z"/><path class="cls-3" d="M584.1,54.08a15.25,15.25,0,0,1,2.3-2.67c1.49-1.57,3.58-3.69,5.92-6s4.49-4.36,6.08-5.82a14.5,14.5,0,0,1,2.69-2.24A14.93,14.93,0,0,1,598.8,40c-1.48,1.57-3.58,3.7-5.93,6s-4.5,4.37-6.09,5.83A14.17,14.17,0,0,1,584.1,54.08Z"/><path class="cls-3" d="M491,54.32a15.7,15.7,0,0,1-2.67-2.3c-1.56-1.49-3.69-3.57-6-5.92S478,41.61,476.55,40a14.5,14.5,0,0,1-2.24-2.69A14.93,14.93,0,0,1,477,39.62c1.56,1.48,3.69,3.58,6,5.93s4.38,4.5,5.83,6.09A14.17,14.17,0,0,1,491,54.32Z"/><path class="cls-3" d="M584.1,150.84s0-.17,0-.47,0-.78,0-1.36c0-1.21,0-3,0-5.24,0-4.59,0-11.28-.09-19.77,0-17-.11-41.2-.19-70.18l.36.36-92.8,0h0l.41-.41c0,35.61,0,68.92-.06,97l-.35-.36,67.2.18,18.88.1,5,0,1.29,0a2.19,2.19,0,0,1,.45,0l-.41,0-1.25,0-4.93,0-18.79.09-67.43.18h-.35v-.35c0-28.1,0-61.41-.05-97v-.41h.42l92.8.05h.36v.36c-.07,29.08-.14,53.36-.18,70.41,0,8.46-.07,15.12-.09,19.69,0,2.24,0,4-.05,5.17,0,.56,0,1,0,1.32A2,2,0,0,1,584.1,150.84Z"/><path class="cls-4" d="M557.09,83.42A34.89,34.89,0,0,0,522,79s-1.74,23-1.61,33.08,10.16,11.6,10.16,11.6l0,10.87,24.4.92,3.64-50.92Z"/><path class="cls-3" d="M530.56,123.56a23.4,23.4,0,0,0,13.09-3.72s-3.09,7.22-13.11,6.32Z"/><path class="cls-4" d="M557.34,95c.17-.08,6.9-2,6.68,4.82s-7.07,5.22-7.07,5S557.34,95,557.34,95Z"/><path class="cls-3" d="M559.13,102.28s.11.09.31.19a1.21,1.21,0,0,0,.9,0,3,3,0,0,0,1.45-2.61,3.8,3.8,0,0,0-.28-1.72,1.39,1.39,0,0,0-.87-1,.61.61,0,0,0-.72.3c-.09.19-.06.33-.09.34s-.15-.12-.08-.4a.8.8,0,0,1,.28-.42.89.89,0,0,1,.67-.15,1.65,1.65,0,0,1,1.21,1.1,4,4,0,0,1,.36,1.93c-.09,1.38-.84,2.65-1.84,2.9a1.28,1.28,0,0,1-1.09-.21C559.13,102.45,559.1,102.3,559.13,102.28Z"/><path class="cls-3" d="M525.32,94.46a1.45,1.45,0,0,0,1.39,1.45,1.36,1.36,0,0,0,1.47-1.3,1.43,1.43,0,0,0-1.38-1.44A1.37,1.37,0,0,0,525.32,94.46Z"/><path class="cls-3" d="M523.93,93.14c.18.18,1.27-.62,2.81-.62s2.67.78,2.84.59-.1-.42-.59-.78a4,4,0,0,0-2.28-.7,3.83,3.83,0,0,0-2.23.72C524,92.72,523.85,93.05,523.93,93.14Z"/><path class="cls-3" d="M540.49,95.11a1.44,1.44,0,0,0,1.38,1.45,1.38,1.38,0,0,0,1.48-1.3A1.43,1.43,0,0,0,542,93.82,1.37,1.37,0,0,0,540.49,95.11Z"/><path class="cls-3" d="M539.1,93.42c.17.19,1.26-.61,2.8-.61s2.68.78,2.84.59-.09-.42-.59-.78a3.85,3.85,0,0,0-2.27-.7,3.79,3.79,0,0,0-2.24.72C539.17,93,539,93.34,539.1,93.42Z"/><path class="cls-3" d="M533.5,104.86a10.94,10.94,0,0,0-2.51-.45c-.39,0-.76-.12-.83-.38a2,2,0,0,1,.26-1.17c.37-1,.76-2,1.17-3,1.61-4.27,2.79-7.78,2.61-7.85s-1.62,3.35-3.24,7.62c-.39,1.05-.76,2.06-1.11,3a2.26,2.26,0,0,0-.21,1.54,1,1,0,0,0,.65.58,2.43,2.43,0,0,0,.67.09A9.5,9.5,0,0,0,533.5,104.86Z"/><path class="cls-3" d="M538.7,87.38c.15.42,1.69.22,3.5.44s3.27.71,3.51.33c.11-.18-.14-.57-.73-1a6.16,6.16,0,0,0-5.35-.59C539,86.85,538.63,87.18,538.7,87.38Z"/><path class="cls-3" d="M524.5,88.67c.27.35,1.33,0,2.61,0s2.36.24,2.61-.13c.11-.18-.06-.53-.53-.86a3.62,3.62,0,0,0-2.13-.57,3.55,3.55,0,0,0-2.08.7C524.53,88.14,524.38,88.5,524.5,88.67Z"/><path class="cls-3" d="M517.14,72.68a3.72,3.72,0,0,1,1.37-3.31,2.64,2.64,0,0,1,3.41.25,3.07,3.07,0,0,1,2.63-3.72c1.64-.1,3,1.14,4.62,1.57a7.48,7.48,0,0,0,4.69-.54c1.48-.6,2.87-1.43,4.37-2a12.84,12.84,0,0,1,16.42,7.53,5.7,5.7,0,0,1,6,2.29,9.32,9.32,0,0,1,1.44,6.59,21.4,21.4,0,0,1-1.15,4.5c0,.13,0,.26,0,.39-.1,5.52-.73,12-3.08,12-4.11.07-3.13-7.67-3.13-7.67-5-1.94-3.16-9.49-4.42-10.63s-3.89-3.81-14.44,1.58c-4.1,2.09-9.54,2-12.51,1.35l-.27,0h-.06l-.08,0a9.47,9.47,0,0,1-2.71-1.14,5.46,5.46,0,0,1-2.23-2.48,2.93,2.93,0,0,1,.58-3.14A6.48,6.48,0,0,1,517.14,72.68Z"/><path class="cls-3" d="M533.51,112.33a4.59,4.59,0,0,0,1.77-.21,2.55,2.55,0,0,0,1.33-1.22,2.65,2.65,0,0,0,0-2.16,3.45,3.45,0,0,0-.29-.5c-.13-.14-.11-.13-.25-.11s-.36.14-.53.21l-.55.22c-.71.29-1.35.54-1.89.74a5.6,5.6,0,0,1-1.8.54,6.11,6.11,0,0,1,1.64-.92c.52-.25,1.14-.55,1.84-.86l.53-.24a6.35,6.35,0,0,1,.61-.25.76.76,0,0,1,.49,0,1,1,0,0,1,.37.28,3.59,3.59,0,0,1,.37.63,3.13,3.13,0,0,1-.1,2.65,2.84,2.84,0,0,1-1.68,1.36,2.78,2.78,0,0,1-1.44.06C533.65,112.48,533.5,112.37,533.51,112.33Z"/><path class="cls-7" d="M382.23,286.66a16.4,16.4,0,0,1,16-13.77c34.54-.46,122.48-1.25,127.2,2.49,5.88,4.67,9,7.06,8.49,14.47-.42,6.8-7.84,124.29-7.84,124.29H361.47Z"/><path class="cls-8" d="M507.3,414.2a2,2,0,0,1,0-.35c0-.25-.05-.59-.09-1-.07-.92-.16-2.24-.29-3.91s-.26-3.79-.33-6.21-.24-5.18-.25-8.23c0-1.53,0-3.13-.05-4.79s0-3.4.06-5.19c0-3.59.21-7.42.38-11.45.46-8.06,1.22-16.9,2.46-26.13s2.9-18,4.61-25.85c.92-3.93,1.75-7.67,2.69-11.14.46-1.73.87-3.41,1.33-5s.91-3.13,1.33-4.6c.82-2.94,1.71-5.55,2.44-7.87s1.4-4.28,2-5.89,1-2.82,1.32-3.7l.36-1a1.58,1.58,0,0,1,.14-.32l-.09.34-.31,1-1.23,3.73c-.55,1.61-1.2,3.59-1.9,5.91s-1.56,4.94-2.35,7.88c-.42,1.47-.85,3-1.3,4.61s-.85,3.29-1.3,5c-.92,3.46-1.74,7.21-2.64,11.13-1.68,7.88-3.29,16.6-4.57,25.82s-2,18-2.49,26.08c-.18,4-.39,7.85-.43,11.44,0,1.79-.09,3.52-.09,5.18s0,3.26,0,4.78c0,3,.11,5.81.17,8.23s.15,4.5.25,6.2.14,3,.18,3.93c0,.42,0,.76,0,1A1.88,1.88,0,0,1,507.3,414.2Z"/><path class="cls-8" d="M414.75,332s.08,0,.25-.1a2.42,2.42,0,0,1,.76,0,3.43,3.43,0,0,1,2.41,1.42,4,4,0,0,1,.25,4.1,5.28,5.28,0,0,1-1.61,1.93,4.92,4.92,0,0,1-2.55.89,4.14,4.14,0,0,1-2.63-.69,3.32,3.32,0,0,1-1.36-2.14,4.47,4.47,0,0,1,1.26-3.94c1.85-1.58,3.49-1.63,3.45-1.48s-.09,0-.25,0a4.16,4.16,0,0,0-.7.24,7.23,7.23,0,0,0-2.24,1.45,4.16,4.16,0,0,0-1.05,3.59,2.83,2.83,0,0,0,1.18,1.81,3.62,3.62,0,0,0,2.3.59,4.49,4.49,0,0,0,2.29-.79A4.55,4.55,0,0,0,418,337.2a3.58,3.58,0,0,0-.11-3.68,3.41,3.41,0,0,0-2.13-1.43A8,8,0,0,0,414.75,332Z"/><path class="cls-8" d="M440.56,317.1c0,.11-1.7-.2-4.42,0a20.26,20.26,0,0,0-16.6,11.63c-1.17,2.47-1.45,4.16-1.56,4.14a4.72,4.72,0,0,1,.19-1.19,17,17,0,0,1,1-3.1,19.7,19.7,0,0,1,16.91-11.85,17.9,17.9,0,0,1,3.28.09A4.57,4.57,0,0,1,440.56,317.1Z"/><path class="cls-8" d="M392.83,347.67a2.78,2.78,0,0,1,.38-.85,13.45,13.45,0,0,1,1.45-2.08,15.43,15.43,0,0,1,15.18-5.18,14.09,14.09,0,0,1,2.43.77,2.82,2.82,0,0,1,.82.44c0,.09-1.24-.48-3.32-.85A16.06,16.06,0,0,0,394.94,345C393.52,346.54,392.91,347.72,392.83,347.67Z"/><path class="cls-8" d="M424.67,351.76a6.38,6.38,0,0,1-1.69-1.22,19.19,19.19,0,0,1-3.27-3.85,18.44,18.44,0,0,1-2.13-4.57,6,6,0,0,1-.41-2.05,36.91,36.91,0,0,0,3,6.34A38.71,38.71,0,0,0,424.67,351.76Z"/><path class="cls-8" d="M470.33,333.42s.08-.05.25-.1a2.47,2.47,0,0,1,.77,0,3.47,3.47,0,0,1,2.4,1.42,4,4,0,0,1,.25,4.1,5.2,5.2,0,0,1-1.61,1.93,4.92,4.92,0,0,1-2.55.89,4.16,4.16,0,0,1-2.63-.69,3.32,3.32,0,0,1-1.36-2.14,4.47,4.47,0,0,1,1.26-3.94c1.85-1.57,3.49-1.63,3.45-1.48s-.09,0-.25.05a4.48,4.48,0,0,0-.7.24,7.23,7.23,0,0,0-2.24,1.45,4.16,4.16,0,0,0-1.05,3.59,2.87,2.87,0,0,0,1.18,1.82,3.69,3.69,0,0,0,2.31.58,4.49,4.49,0,0,0,2.28-.79,4.55,4.55,0,0,0,1.47-1.72,3.58,3.58,0,0,0-.11-3.68,3.41,3.41,0,0,0-2.13-1.43A7.89,7.89,0,0,0,470.33,333.42Z"/><path class="cls-8" d="M496.14,318.49c0,.11-1.7-.2-4.42.05a20.26,20.26,0,0,0-16.6,11.63,40.92,40.92,0,0,0-1.55,4.14,4.36,4.36,0,0,1,.18-1.19,17.13,17.13,0,0,1,1-3.1,19.67,19.67,0,0,1,16.9-11.85,17.9,17.9,0,0,1,3.28.09A4.57,4.57,0,0,1,496.14,318.49Z"/><path class="cls-8" d="M448.41,349.06a2.78,2.78,0,0,1,.38-.85,13.45,13.45,0,0,1,1.45-2.08A15.49,15.49,0,0,1,465.43,341a13.93,13.93,0,0,1,2.42.77,2.82,2.82,0,0,1,.82.44c0,.09-1.24-.48-3.32-.85a16.08,16.08,0,0,0-14.83,5.06C449.1,347.93,448.49,349.11,448.41,349.06Z"/><path class="cls-8" d="M480.26,353.15a6.15,6.15,0,0,1-1.7-1.22,18.74,18.74,0,0,1-5.4-8.42,6.32,6.32,0,0,1-.41-2,38,38,0,0,0,3,6.33A37.57,37.57,0,0,0,480.26,353.15Z"/><path class="cls-9" d="M539.71,250.25C495.41,206.48,440.25,196,440.25,196c-32.8,19.56-54.93,52.39-71.78,91.79,28.26,26.15,64.6,51.22,95.7,53.52C513.35,328.91,539.71,250.25,539.71,250.25Z"/><g class="cls-10"><path d="M539.71,250.25C495.41,206.48,440.25,196,440.25,196c-32.8,19.56-54.93,52.39-71.78,91.79,28.26,26.15,64.6,51.22,95.7,53.52C513.35,328.91,539.71,250.25,539.71,250.25Z"/></g><path class="cls-9" d="M523.92,285l-.11-.3-.28-.9c-.25-.82-.6-2-1.06-3.52l-3.89-13.23.2.11-21.74,7,.14-.13a.64.64,0,0,1-.06.11c-.06.08-.21.12-.26.08a.28.28,0,0,1-.14-.14.9.9,0,0,1,0-.16l0-.24,0-.44,0-.88v-1.79c0-1.2,0-2.41,0-3.65,0-2.47,0-5,0-7.62s-.11-5.28-.26-8a71.72,71.72,0,0,0-.86-8.29l.31.2L476,247.85l-12,2.79-.26.06-.05-.26c-1.78-9.34-3.48-18.21-5-26.39l.3.19a178.15,178.15,0,0,1-31.56,5.51l-.16,0,0-.16c-.83-6.8-1.49-12.2-1.94-15.93-.21-1.83-.38-3.26-.5-4.24,0-.47-.08-.83-.11-1.1a2.07,2.07,0,0,1,0-.37s0,.12.07.37.09.62.16,1.08c.13,1,.33,2.41.58,4.24.49,3.72,1.2,9.12,2.09,15.91l-.18-.15a181.32,181.32,0,0,0,31.46-5.64l.25-.07.05.25c1.57,8.18,3.28,17,5.08,26.38l-.32-.2,12.05-2.8,19.75-4.58.27-.06,0,.26a71.45,71.45,0,0,1,.86,8.35c.14,2.73.21,5.41.24,8s0,5.16,0,7.63c0,1.24,0,2.46,0,3.65,0,.6,0,1.19,0,1.78v.88l0,.42,0,.2v.05s.05,0-.05,0-.1,0-.13.06,0,0,0,0-.13-.07-.13-.07l-.11-.06.25-.08,21.77-6.93.15-.05,0,.16,3.75,13.27c.43,1.52.75,2.71,1,3.54l.24.91A1.12,1.12,0,0,1,523.92,285Z"/><path class="cls-5" d="M515.45,298.93a.88.88,0,0,1-.1-.23c-.07-.18-.16-.41-.27-.71l-1-2.76c-.86-2.44-2.1-6-3.68-10.51l.17.09-25.9,6.92-.24.06,0-.24c-.62-4.77-1.31-9.88-2.06-15.27s-1.58-11.07-2.62-16.9l.31.2-19,4.41-12.84,3L448,267l-.05-.27-5-26.38.29.18a178.28,178.28,0,0,1-31.56,5.52h-.16l0-.15c-.83-6.8-1.48-12.21-1.94-15.93-.21-1.84-.38-3.26-.49-4.25,0-.46-.09-.83-.12-1.09a2.07,2.07,0,0,1,0-.37,1.81,1.81,0,0,1,.07.36c0,.27.09.63.16,1.09.13,1,.33,2.4.58,4.23.49,3.73,1.2,9.12,2.09,15.91l-.18-.14a181.58,181.58,0,0,0,31.47-5.64l.24-.07.05.25c1.57,8.18,3.28,17,5.08,26.38l-.31-.21,12.83-3,19-4.39.26-.06,0,.26c1,5.85,1.83,11.53,2.59,16.92s1.42,10.51,2,15.28l-.27-.18,25.94-6.77.13,0,0,.12c1.52,4.53,2.72,8.1,3.55,10.55.4,1.21.7,2.14.92,2.79.09.3.17.54.22.72S515.45,298.93,515.45,298.93Z"/><path class="cls-9" d="M498.11,320.49s0-.28,0-.83.11-1.37.2-2.41c.19-2.14.46-5.25.81-9.23l.17.14-26.86,8.92-.23.08-.05-.24c-2.12-11-4.62-24-7.34-38.09l.31.2-16.43,3.82-15.37,3.56-.26.06-.05-.26c-1.78-9.34-3.47-18.21-5-26.38l.29.18a178.44,178.44,0,0,1-31.56,5.52h-.16l0-.15c-.83-6.81-1.48-12.22-1.94-15.94-.21-1.84-.38-3.26-.49-4.24-.05-.47-.09-.83-.12-1.09a2.16,2.16,0,0,1,0-.38,2.41,2.41,0,0,1,.07.37c0,.27.09.63.16,1.09.13,1,.33,2.4.58,4.23.49,3.72,1.2,9.11,2.09,15.91l-.18-.14a181.74,181.74,0,0,0,31.47-5.64l.24-.07.05.25c1.57,8.17,3.28,17,5.08,26.38l-.31-.21,15.37-3.57,16.43-3.81.26-.06.05.27c2.68,14.09,5.16,27.1,7.25,38.1l-.27-.16,26.91-8.77.19-.06,0,.2c-.41,4-.72,7.07-.94,9.21-.11,1-.2,1.84-.26,2.41S498.11,320.49,498.11,320.49Z"/><path class="cls-5" d="M462.35,341.18l-.06-.19-.16-.57c-.13-.53-.32-1.26-.57-2.21-.48-2-1.18-4.82-2.07-8.42s-1.9-8-3.1-13-2.48-10.69-3.68-16.91l.28.19-31.79,7.4-.26.07-.06-.27c-.16-.87-.34-1.81-.52-2.75-1.58-8.25-3.1-16.2-4.52-23.63l.31.19a177.22,177.22,0,0,1-31.56,5.52l-.17,0,0-.18c-.81-6.69-1.47-12.1-1.92-15.85-.22-1.85-.38-3.29-.5-4.29-.05-.47-.09-.84-.11-1.12a3.58,3.58,0,0,1,0-.38,1.74,1.74,0,0,1,.08.38l.16,1.1c.14,1,.34,2.44.59,4.28.5,3.75,1.21,9.15,2.09,15.84l-.19-.16A181.19,181.19,0,0,0,416,280.56l.26-.07.05.27c1.43,7.43,2.95,15.37,4.54,23.62.18.94.36,1.88.53,2.75l-.32-.2,31.81-7.36.23-.05.05.24c1.17,6.2,2.48,11.86,3.6,16.9s2.15,9.43,3,13.07,1.49,6.46,1.94,8.44c.22,1,.39,1.7.51,2.24.05.23.08.42.12.57S462.36,341.18,462.35,341.18Z"/><path class="cls-9" d="M445.46,337.6a8.43,8.43,0,0,1-.37-1.38l-.86-3.86c-.7-3.27-1.66-7.85-2.71-13l.31.2-3,.7c-5.86,1.36-11.17,2.56-15,3.4l-4.56,1a11.55,11.55,0,0,1-1.69.29,9.87,9.87,0,0,1,1.64-.49l4.53-1.13c3.83-.94,9.12-2.2,15-3.56l3-.69L442,319l0,.26c1,5.19,1.92,9.78,2.54,13.07.28,1.59.52,2.89.7,3.89A9.09,9.09,0,0,1,445.46,337.6Z"/><path class="cls-9" d="M408.58,319.38a8.75,8.75,0,0,1-.37-1.41c-.22-1-.5-2.32-.83-3.89-.68-3.28-1.58-7.83-2.54-12.86q-.09-.47-.18-.9l.33.2c-4.75,1.29-9.08,2.21-12.21,2.77-1.56.29-2.83.49-3.71.61a6.9,6.9,0,0,1-1.37.14,7.86,7.86,0,0,1,1.34-.33l3.67-.77c3.11-.65,7.41-1.63,12.14-2.92l.27-.07.05.27q.09.43.18.9c1,5,1.81,9.59,2.39,12.89.27,1.58.49,2.9.67,3.92A7.73,7.73,0,0,1,408.58,319.38Z"/><path class="cls-9" d="M371.47,290.57a10.42,10.42,0,0,1-.66-3.14,10.11,10.11,0,0,1-.14-3.2,10.08,10.08,0,0,1,.66,3.14A9.77,9.77,0,0,1,371.47,290.57Z"/><path class="cls-5" d="M531.39,270.39a.83.83,0,0,1-.06-.25c0-.18-.08-.42-.15-.73-.12-.67-.29-1.62-.52-2.85-.45-2.52-1.09-6.18-1.91-10.8l.17.12-15.11,2.42-.2,0,0-.19c-1.52-9.08-3.34-20-5.35-32l.31.2-20.63,4.8-10.51,2.43-.25.06-.06-.25c-2.23-9.08-4.31-17.68-5.87-25.61l.27.19-30.69,4.71-.16,0,0-.16c-.59-4.92-1.06-8.81-1.38-11.5-.15-1.32-.27-2.34-.35-3.05,0-.33-.06-.59-.08-.79a.79.79,0,0,1,0-.27s0,.09.05.26l.12.78c.1.72.24,1.74.43,3.05.35,2.69.87,6.57,1.52,11.48l-.17-.13,30.66-4.88.22,0,.05.22c1.58,7.91,3.67,16.51,5.91,25.58l-.31-.19,10.51-2.44,20.63-4.78.26-.06.05.26c2,12,3.76,22.95,5.24,32l-.22-.16,15.13-2.32.14,0,0,.14c.76,4.64,1.36,8.3,1.78,10.83.19,1.23.34,2.18.44,2.86,0,.31.08.55.11.74A.94.94,0,0,1,531.39,270.39Z"/><path class="cls-8" d="M534.77,249.51l-.28.1-.83.25c-.72.25-1.81.48-3.17,1a64.42,64.42,0,0,0-11.12,4.94,77.75,77.75,0,0,0-14.58,10.61,100,100,0,0,0-14.48,16.67,149.07,149.07,0,0,0-11.1,19.16c-3,6.11-5.42,11.76-7.38,16.53s-3.48,8.66-4.54,11.34c-.53,1.31-.94,2.35-1.24,3.09-.13.32-.24.59-.33.79a1.53,1.53,0,0,1-.13.27,1.2,1.2,0,0,1,.08-.28l.29-.82q.41-1.12,1.14-3.12c1-2.71,2.48-6.61,4.39-11.41s4.3-10.46,7.29-16.6a145.65,145.65,0,0,1,11.1-19.24A98.52,98.52,0,0,1,504.47,266a76.19,76.19,0,0,1,14.72-10.57,61.82,61.82,0,0,1,11.24-4.82c1.37-.47,2.48-.68,3.21-.89l.84-.2A.79.79,0,0,1,534.77,249.51Z"/><path class="cls-2" d="M217.32,160.77l.14,2.69a2.34,2.34,0,1,1,.19,3.56l.15,2.7a2.34,2.34,0,1,1,.19,3.56l.14,2.7a2.31,2.31,0,0,1,1.47-.64,2.34,2.34,0,1,1-1.28,4.2l.15,2.7a2.28,2.28,0,0,1,1.47-.64,2.34,2.34,0,1,1-1.28,4.2l.14,2.7a2.34,2.34,0,1,1,.19,3.55l.15,2.71a2.28,2.28,0,0,1,1.47-.64,2.34,2.34,0,0,1,.25,4.67,2.28,2.28,0,0,1-1.53-.48l.09,1.68,72.09-1.73-3.65-42Z"/><path class="cls-4" d="M215.72,159l.15,2.7a2.28,2.28,0,0,1,1.47-.64,2.34,2.34,0,1,1-1.28,4.19l.14,2.7a2.34,2.34,0,1,1,.19,3.56l.15,2.7a2.34,2.34,0,1,1,.19,3.56l.14,2.7a2.31,2.31,0,0,1,1.47-.64,2.34,2.34,0,0,1,2.44,2.22,2.31,2.31,0,0,1-2.19,2.45,2.29,2.29,0,0,1-1.53-.47l.15,2.7a2.28,2.28,0,0,1,1.47-.64,2.34,2.34,0,1,1-1.28,4.2l.14,2.7a2.34,2.34,0,1,1,.19,3.55l.09,1.68,72.08-3.85-2.1-39.23Z"/><path class="cls-3" d="M288.22,162.94c0,.15-16.13,1.13-36,2.19s-36,1.81-36.05,1.67,16.12-1.12,36-2.19S288.21,162.8,288.22,162.94Z"/><path class="cls-3" d="M288.55,169.22c0,.14-16.12,1.12-36,2.19s-36.05,1.81-36.05,1.66,16.11-1.12,36-2.18S288.54,169.07,288.55,169.22Z"/><path class="cls-3" d="M288.89,175.49c0,.15-16.12,1.13-36,2.19s-36.05,1.81-36.06,1.67,16.12-1.12,36-2.19S288.88,175.35,288.89,175.49Z"/><path class="cls-3" d="M289.22,181.77c0,.14-16.12,1.12-36,2.19s-36,1.81-36,1.67,16.12-1.13,36-2.19S289.22,181.63,289.22,181.77Z"/><path class="cls-3" d="M289.56,188.05c0,.14-16.12,1.12-36,2.18s-36,1.82-36.06,1.67,16.12-1.12,36-2.19S289.55,187.9,289.56,188.05Z"/><rect class="cls-9" x="226.55" y="158.47" width="0.5" height="39.28" transform="translate(-9.19 12.37) rotate(-3.06)"/><path class="cls-3" d="M234.37,197.38c-.14,0-.73-8.77-1.31-19.6s-.93-19.62-.78-19.63.73,8.77,1.3,19.6S234.52,197.37,234.37,197.38Z"/><path class="cls-3" d="M221.54,198.06c-.14,0-.73-8.76-1.31-19.59s-.93-19.63-.79-19.63.73,8.76,1.31,19.6S221.69,198.06,221.54,198.06Z"/><path class="cls-3" d="M241.4,197c-.14,0-.73-8.77-1.31-19.6s-.93-19.62-.79-19.63.73,8.77,1.31,19.61S241.55,197,241.4,197Z"/><path class="cls-3" d="M248.43,196.63c-.14,0-.73-8.77-1.31-19.6s-.93-19.62-.79-19.63.73,8.76,1.31,19.6S248.57,196.62,248.43,196.63Z"/><path class="cls-3" d="M255.46,196.25c-.15,0-.73-8.77-1.31-19.6s-.94-19.62-.79-19.63.73,8.77,1.31,19.6S255.6,196.24,255.46,196.25Z"/><path class="cls-3" d="M262.48,195.87c-.14,0-.73-8.76-1.31-19.59s-.93-19.63-.79-19.63.73,8.76,1.31,19.6S262.63,195.87,262.48,195.87Z"/><path class="cls-3" d="M269.51,195.5c-.14,0-.73-8.77-1.31-19.6s-.93-19.62-.79-19.63.73,8.77,1.31,19.6S269.65,195.49,269.51,195.5Z"/><path class="cls-3" d="M276.54,195.12c-.15,0-.73-8.77-1.31-19.6s-.94-19.62-.79-19.63.73,8.77,1.31,19.61S276.68,195.11,276.54,195.12Z"/><path class="cls-3" d="M283.56,194.75c-.14,0-.73-8.77-1.3-19.6s-.94-19.62-.79-19.63.73,8.76,1.31,19.6S283.71,194.74,283.56,194.75Z"/><path class="cls-8" d="M282.69,171a1.68,1.68,0,0,1-.51.08l-1.47.13-5.42.36c-4.58.29-10.91.64-17.89,1s-13.32.61-17.91.76-7.43.15-7.42,0l25.3-1.27,17.9-.83,5.42-.21,1.48,0A1.61,1.61,0,0,1,282.69,171Z"/><path class="cls-8" d="M284.15,178.16c0,.14-11.62.79-26,1.45s-26,1.08-26,.93,11.62-.79,26-1.45S284.14,178,284.15,178.16Z"/><path class="cls-8" d="M284.92,184.43c0,.15-11.62.8-26,1.46s-26,1.07-26,.93,11.62-.8,26-1.45S284.91,184.29,284.92,184.43Z"/><path class="cls-3" d="M223.79,163.15a6.3,6.3,0,0,0,2.31,4,4.12,4.12,0,1,0,1.51-7.43"/><path class="cls-7" d="M223.62,163.14a3.28,3.28,0,1,0,3.1-3.45A3.28,3.28,0,0,0,223.62,163.14Z"/><path class="cls-7" d="M221.74,161.93a2,2,0,1,0,1.86-2.07A2,2,0,0,0,221.74,161.93Z"/><path class="cls-8" d="M223.57,163.75c0-.08.31-.06.71-.21a1.9,1.9,0,0,0,1.12-1.08,2,2,0,0,0-.15-1.57c-.2-.39-.43-.57-.39-.64s.36,0,.69.43a2.08,2.08,0,0,1,.34,1.95,2,2,0,0,1-1.52,1.27C223.84,164,223.55,163.8,223.57,163.75Z"/><path class="cls-8" d="M225.22,160.62c.07-.13.56,0,1.11-.12s.93-.46,1-.38-.15.7-.93.89S225.12,160.72,225.22,160.62Z"/><path class="cls-8" d="M225.72,165.6c-.14,0-.28-.61-.8-1.09s-1.13-.59-1.13-.73.79-.3,1.49.35S225.86,165.63,225.72,165.6Z"/><path class="cls-3" d="M279.2,160.84a6.27,6.27,0,0,0,2.3,4,4.12,4.12,0,1,0,1.52-7.43"/><path class="cls-9" d="M285.53,160a3.17,3.17,0,1,1-3.33-3A3.17,3.17,0,0,1,285.53,160Z"/><path class="cls-9" d="M287.21,158.59a1.9,1.9,0,1,1-2-1.8A1.89,1.89,0,0,1,287.21,158.59Z"/><path class="cls-8" d="M285.64,160.53c0,.05-.24.25-.75.23a1.91,1.91,0,0,1-1.6-1.06,2,2,0,0,1,.12-1.91c.28-.43.6-.54.63-.49s-.15.27-.3.66a1.93,1.93,0,0,0,0,1.51,1.81,1.81,0,0,0,1.18.93C285.34,160.5,285.62,160.45,285.64,160.53Z"/><path class="cls-8" d="M283.73,157.69c.11.1-.36.6-1.14.52s-1.11-.7-1-.77.51.19,1,.25S283.65,157.57,283.73,157.69Z"/><path class="cls-8" d="M283.76,162.53c-.14,0-.33-.75.27-1.46s1.42-.63,1.4-.49-.57.31-1,.83S283.91,162.52,283.76,162.53Z"/><polygon class="cls-3" points="162.82 254.2 221.74 261.71 220.95 240.15 162.82 254.2"/><rect class="cls-7" x="163.47" y="238.19" width="56.76" height="18.84" transform="translate(21.25 -15.1) rotate(4.77)"/><path class="cls-8" d="M213,246.21c0,.14-9.5-.53-21.18-1.51s-21.16-1.88-21.15-2,9.5.53,21.19,1.5S213,246.07,213,246.21Z"/><path class="cls-8" d="M212.85,251.11c0,.14-9.5-.53-21.19-1.51s-21.15-1.88-21.14-2,9.5.53,21.19,1.5S212.86,251,212.85,251.11Z"/><polygon class="cls-2" points="181.12 234.56 203.03 236.39 201.88 237.37 203.38 238.68 201.59 239.5 203.19 240.92 180.22 239 181.66 237.79 180.94 236.49 182.18 235.86 181.12 234.56"/><path class="cls-3" d="M129.41,200.59a2.57,2.57,0,0,1,.35,1.29,2.54,2.54,0,1,1-5.08,0,2.57,2.57,0,0,1,.35-1.29h-3a2.58,2.58,0,0,1,.36,1.29,2.55,2.55,0,1,1-4.74-1.29h-3a2.48,2.48,0,0,1,.36,1.29,2.55,2.55,0,1,1-5.09,0,2.48,2.48,0,0,1,.36-1.29h-3a2.48,2.48,0,0,1,.36,1.29,2.55,2.55,0,1,1-5.09,0,2.48,2.48,0,0,1,.36-1.29h-3a2.55,2.55,0,1,1-4.74,1.29,2.48,2.48,0,0,1,.36-1.29h-3a2.55,2.55,0,1,1-4.38,0H86.54v52.62l46,2.53-2.2-55.15Z"/><g class="cls-11"><path class="cls-4" d="M128.74,199.15a2.58,2.58,0,0,1,.36,1.29,2.55,2.55,0,1,1-4.74-1.29h-3a2.48,2.48,0,0,1,.36,1.29,2.55,2.55,0,1,1-4.74-1.29h-3a2.48,2.48,0,0,1,.36,1.29,2.55,2.55,0,1,1-5.09,0,2.48,2.48,0,0,1,.36-1.29h-3a2.48,2.48,0,0,1,.36,1.29,2.55,2.55,0,1,1-5.09,0,2.48,2.48,0,0,1,.36-1.29H99.43a2.55,2.55,0,1,1-4.74,1.29,2.48,2.48,0,0,1,.36-1.29h-3a2.57,2.57,0,0,1,.35,1.29,2.54,2.54,0,1,1-5.08,0,2.57,2.57,0,0,1,.35-1.29H85.87v52.63h43.84V199.15Z"/><path class="cls-3" d="M83.2,254.2c-.14,0-.39-12.75-.55-28.48s-.18-28.49,0-28.49.39,12.75.55,28.48S83.34,254.2,83.2,254.2Z"/><path class="cls-3" d="M90.24,254.13c-.15,0-.39-12.75-.56-28.48s-.17-28.49,0-28.49.39,12.75.56,28.48S90.38,254.13,90.24,254.13Z"/><path class="cls-3" d="M93.73,254.13c-.14,0-.39-12.75-.55-28.48s-.18-28.49,0-28.49.39,12.75.55,28.48S93.87,254.13,93.73,254.13Z"/><path class="cls-3" d="M100.84,254.13c-.14,0-.39-12.75-.55-28.48s-.17-28.49,0-28.49.39,12.75.55,28.48S101,254.13,100.84,254.13Z"/><path class="cls-3" d="M108,254.13c-.14,0-.39-12.75-.55-28.48s-.17-28.49,0-28.49.39,12.75.55,28.48S108.1,254.13,108,254.13Z"/><path class="cls-3" d="M115.07,254.13c-.15,0-.4-12.75-.56-28.48s-.17-28.49,0-28.49.39,12.75.55,28.48S115.21,254.13,115.07,254.13Z"/><path class="cls-3" d="M121.81,254.13c-.14,0-.39-12.75-.55-28.48s-.17-28.49,0-28.49.39,12.75.55,28.48S122,254.13,121.81,254.13Z"/><path class="cls-3" d="M128.56,254.13c-.14,0-.39-12.75-.55-28.48s-.18-28.49,0-28.49.39,12.75.55,28.48S128.71,254.13,128.56,254.13Z"/><path class="cls-3" d="M97.27,254.06c-.14,0-.39-12.76-.55-28.49s-.17-28.48,0-28.48.39,12.75.55,28.48S97.42,254.05,97.27,254.06Z"/><path class="cls-3" d="M104.31,254c-.14,0-.39-12.75-.55-28.48s-.18-28.48,0-28.49.39,12.75.55,28.49S104.45,254,104.31,254Z"/><path class="cls-3" d="M111.35,253.91c-.15,0-.39-12.75-.55-28.48s-.18-28.49,0-28.49.39,12.75.56,28.49S111.49,253.91,111.35,253.91Z"/><path class="cls-3" d="M118.38,253.84c-.14,0-.39-12.75-.55-28.48s-.17-28.49,0-28.49.39,12.75.55,28.48S118.53,253.84,118.38,253.84Z"/><path class="cls-3" d="M125.13,254.2c-.14,0-.39-12.75-.55-28.48s-.18-28.49,0-28.49.39,12.75.55,28.48S125.27,254.2,125.13,254.2Z"/><path class="cls-3" d="M132.46,253.7c-.15,0-.39-12.76-.55-28.48s-.18-28.49,0-28.49.4,12.75.56,28.48S132.6,253.69,132.46,253.7Z"/><path class="cls-3" d="M140,247c0,.14-12.75.39-28.48.54s-28.49.17-28.49,0,12.75-.39,28.48-.55S140,246.88,140,247Z"/><path class="cls-3" d="M140.3,250.62c0,.14-12.75.39-28.48.54s-28.49.17-28.49,0,12.75-.39,28.49-.55S140.3,250.47,140.3,250.62Z"/><path class="cls-3" d="M139.94,240c0,.15-12.75.39-28.48.55s-28.49.17-28.49,0,12.75-.39,28.48-.54S139.94,239.84,139.94,240Z"/><path class="cls-3" d="M139.87,233c0,.14-12.75.38-28.48.54s-28.49.17-28.49,0,12.75-.39,28.48-.55S139.87,232.8,139.87,233Z"/><path class="cls-3" d="M139.8,225.91c0,.14-12.76.39-28.48.54s-28.49.17-28.49,0,12.75-.39,28.48-.55S139.79,225.77,139.8,225.91Z"/><path class="cls-3" d="M139.73,218.87c0,.15-12.76.39-28.48.55s-28.49.17-28.49,0,12.75-.39,28.48-.54S139.72,218.73,139.73,218.87Z"/><path class="cls-3" d="M139.66,211.84c0,.14-12.76.38-28.49.54s-28.48.17-28.48,0,12.75-.38,28.48-.54S139.65,211.69,139.66,211.84Z"/><path class="cls-3" d="M139.59,204.8c0,.14-12.76.39-28.49.54s-28.48.17-28.48,0,12.74-.39,28.48-.55S139.58,204.65,139.59,204.8Z"/><path class="cls-3" d="M139.59,202c0,.14-12.76.39-28.49.54s-28.48.17-28.48,0,12.74-.39,28.48-.55S139.58,201.84,139.59,202Z"/><path class="cls-3" d="M139.59,208.39c0,.15-12.76.39-28.49.55s-28.48.17-28.48,0,12.74-.38,28.48-.54S139.58,208.25,139.59,208.39Z"/><path class="cls-3" d="M139.59,215.37c0,.15-12.76.39-28.49.55s-28.48.17-28.48,0,12.74-.38,28.48-.54S139.58,215.23,139.59,215.37Z"/><path class="cls-3" d="M139.59,222.36c0,.14-12.76.38-28.49.54s-28.48.17-28.48,0,12.74-.38,28.48-.54S139.58,222.21,139.59,222.36Z"/><path class="cls-3" d="M139.59,229.34c0,.14-12.76.38-28.49.54s-28.48.17-28.48,0,12.74-.39,28.48-.55S139.58,229.19,139.59,229.34Z"/><path class="cls-3" d="M139.59,236.32c0,.14-12.76.38-28.49.54s-28.48.17-28.48,0,12.74-.39,28.48-.55S139.58,236.17,139.59,236.32Z"/><path class="cls-3" d="M139.59,243.3c0,.14-12.76.39-28.49.54s-28.48.17-28.48,0,12.74-.39,28.48-.55S139.58,243.15,139.59,243.3Z"/><path class="cls-1" d="M128.74,199.15a2.58,2.58,0,0,1,.36,1.29,2.55,2.55,0,1,1-4.74-1.29h-3a2.48,2.48,0,0,1,.36,1.29,2.55,2.55,0,1,1-4.74-1.29h-3a2.48,2.48,0,0,1,.36,1.29,2.55,2.55,0,1,1-5.09,0,2.48,2.48,0,0,1,.36-1.29h-3a2.48,2.48,0,0,1,.36,1.29,2.55,2.55,0,1,1-5.09,0,2.48,2.48,0,0,1,.36-1.29H99.43a2.55,2.55,0,1,1-4.74,1.29,2.48,2.48,0,0,1,.36-1.29h-3a2.57,2.57,0,0,1,.35,1.29,2.54,2.54,0,1,1-5.08,0,2.57,2.57,0,0,1,.35-1.29H85.87v52.63h43.84V199.15Z"/></g><path class="cls-3" d="M104.78,206.77a6.3,6.3,0,0,0,2.31,4,4.12,4.12,0,1,0,1.51-7.42"/><path class="cls-9" d="M104.7,206.76a3.28,3.28,0,1,0,3.1-3.45A3.28,3.28,0,0,0,104.7,206.76Z"/><path class="cls-9" d="M102.82,205.55a2,2,0,1,0,1.86-2.07A2,2,0,0,0,102.82,205.55Z"/><path class="cls-8" d="M104.65,207.37c0-.08.31-.05.71-.2a1.92,1.92,0,0,0,1.12-1.09,2,2,0,0,0-.15-1.57c-.2-.38-.43-.57-.39-.63s.36,0,.7.42a2.1,2.1,0,0,1,.33,1.95,2,2,0,0,1-1.52,1.27C104.93,207.6,104.63,207.42,104.65,207.37Z"/><path class="cls-8" d="M106.3,204.24c.07-.13.56,0,1.11-.11s.93-.47,1-.39-.15.71-.93.89S106.21,204.35,106.3,204.24Z"/><path class="cls-8" d="M106.81,209.22c-.15,0-.29-.61-.8-1.09s-1.14-.59-1.13-.73.78-.29,1.49.35S107,209.25,106.81,209.22Z"/><path class="cls-8" d="M124.8,218c0,.14-7,.26-15.62.26s-15.63-.12-15.63-.26,7-.26,15.63-.26S124.8,217.81,124.8,218Z"/><path class="cls-8" d="M124.8,221.2c0,.14-7,.26-15.62.26s-15.63-.12-15.63-.26,7-.26,15.63-.26S124.8,221.06,124.8,221.2Z"/><path class="cls-8" d="M124.8,224.45c0,.14-7,.26-15.62.26s-15.63-.12-15.63-.26,7-.26,15.63-.26S124.8,224.3,124.8,224.45Z"/><path class="cls-8" d="M124.8,227.69c0,.15-7,.27-15.62.27s-15.63-.12-15.63-.27,7-.26,15.63-.26S124.8,227.55,124.8,227.69Z"/><path class="cls-8" d="M124.8,230.94c0,.15-7,.26-15.62.26s-15.63-.11-15.63-.26,7-.26,15.63-.26S124.8,230.8,124.8,230.94Z"/><path class="cls-8" d="M124.8,234.19c0,.14-7,.26-15.62.26s-15.63-.12-15.63-.26,7-.26,15.63-.26S124.8,234.05,124.8,234.19Z"/><path class="cls-8" d="M124.8,237.44c0,.14-7,.26-15.62.26s-15.63-.12-15.63-.26,7-.26,15.63-.26S124.8,237.3,124.8,237.44Z"/><path class="cls-8" d="M47.63,387a1.06,1.06,0,0,1-1-.8L11,250.67a1.08,1.08,0,0,1,.76-1.3,1.06,1.06,0,0,1,1.3.76l35.56,135.5a1.06,1.06,0,0,1-.76,1.3A.84.84,0,0,1,47.63,387Z"/><path class="cls-8" d="M38.24,390.32a1,1,0,0,1-1-.79L1.65,254a1.06,1.06,0,0,1,2.06-.54L39.27,389a1.06,1.06,0,0,1-.76,1.3Z"/><polygon class="cls-8" points="5.92 248.14 4.21 246.87 95.5 124.01 178.78 139.97 178.38 142.06 96.41 126.36 5.92 248.14"/><rect class="cls-8" x="-17.61" y="188.1" width="150.91" height="2.13" transform="translate(-128.6 123.09) rotate(-53.48)"/><path class="cls-9" d="M93.23,129.65A6,6,0,1,0,97,122,6,6,0,0,0,93.23,129.65Z"/><polygon class="cls-9" points="174.84 133.1 173.35 124.42 179.77 123.94 180.24 132.32 174.84 133.1"/><g class="cls-12"><polygon points="174.84 133.1 173.35 124.42 179.77 123.94 180.24 132.32 174.84 133.1"/></g><polyline class="cls-9" points="169.58 132.5 163.65 164.7 148.64 207.25 233.18 195.06 199.06 157.92 184.82 130.3 169.58 132.5"/><path class="cls-9" d="M0,251.74A6.71,6.71,0,1,0,6.71,245,6.71,6.71,0,0,0,0,251.74Z"/><path class="cls-9" d="M20.86,414.08c0-.45-.06-.89-.06-1.35a26.83,26.83,0,1,1,53.66,0c0,.46,0,.9-.07,1.35Z"/><path class="cls-13" d="M167.22,404c-.33.07-1.73,1.5.27,3.77s14.13,8.48,16.36,4.77-3.15-6.29-3.15-6.29Z"/><path class="cls-13" d="M180.53,400s12.5-1.38,17.6-.73c5.53.71,11.4-2.08,14.88-5.9a20,20,0,0,0,4.39-8.84l8-5.56s.86-18.91-11.75-15.86l-14.73.52s-29,4.8-33.47,8.41c0,0-5.46,5.31-7.06,7.36-.59.78-1.11,8.57,4.43,11.23,0,0-3.27,4.17-.39,6.53l1.35,1s-1.87,4.17-.11,5.36,15.67,5.41,19.62,2.66-.63-5.92-2.72-6.2"/><path class="cls-14" d="M165,389.92a12.8,12.8,0,0,1,1.64.18c1,.13,2.56.32,4.45.46.94.06,2,.12,3.08.14s2.3,0,3.57.09a7.31,7.31,0,0,1,3.82,1.21,4.24,4.24,0,0,1,1.87,3.86,3.27,3.27,0,0,1-1.12,2,5.62,5.62,0,0,1-1.89,1.05,17.07,17.07,0,0,1-3.91.73,35.13,35.13,0,0,1-6.68-.13c-1.89-.2-3.41-.45-4.45-.63a9,9,0,0,1-1.62-.34,11.61,11.61,0,0,1,1.65.14c1,.12,2.57.31,4.45.46a37,37,0,0,0,6.6,0,17.13,17.13,0,0,0,3.79-.73,5.37,5.37,0,0,0,1.72-.95,2.8,2.8,0,0,0,.94-1.67,3.73,3.73,0,0,0-1.65-3.37,7,7,0,0,0-3.57-1.14c-1.22-.11-2.42-.08-3.53-.14s-2.16-.11-3.1-.21c-1.9-.18-3.41-.42-4.46-.62A8,8,0,0,1,165,389.92Z"/><path class="cls-14" d="M163.93,380.89a10.53,10.53,0,0,1,1.63.18c1.05.14,2.56.34,4.43.5s4.12.29,6.6.29a8.82,8.82,0,0,1,3.95.59,3.15,3.15,0,0,1,1.5,1.61,4.08,4.08,0,0,1,.21,2.24,5.38,5.38,0,0,1-2.53,3.47,8.64,8.64,0,0,1-3.79,1.23,37.79,37.79,0,0,1-6.66-.31l-4.44-.45a12.1,12.1,0,0,1-1.63-.23,8.68,8.68,0,0,1,1.65,0l4.45.29a41.56,41.56,0,0,0,6.57.19,8.2,8.2,0,0,0,3.58-1.18,4.9,4.9,0,0,0,2.28-3.13,2.93,2.93,0,0,0-1.43-3.3,8.25,8.25,0,0,0-3.71-.57c-2.5,0-4.75-.19-6.63-.4s-3.39-.47-4.43-.67A9.29,9.29,0,0,1,163.93,380.89Z"/><path class="cls-14" d="M170.38,382a16.38,16.38,0,0,1-1.13-2.31,15.3,15.3,0,0,1-1.2-2.27c.1-.09,1,.72,1.66,2A4.22,4.22,0,0,1,170.38,382Z"/><path class="cls-13" d="M208.62,363.9l-11.82-1.57s-33.4-6.81-33.73-5.93-2,1.19-.74,4.77,20.52,6.75,21.37,7.89,1.48,7.77,9.05,10.82,12.25,2,12.25,2"/><path class="cls-14" d="M205,381.9a.65.65,0,0,1-.25.07l-.77.11a18,18,0,0,1-3,0,26.12,26.12,0,0,1-4.63-.82,25.51,25.51,0,0,1-5.81-2.26,13.35,13.35,0,0,1-5.2-5.44,29.14,29.14,0,0,1-1.61-3.89,3.61,3.61,0,0,0-.22-.44,1.06,1.06,0,0,0-.35-.22c-.32-.13-.67-.24-1-.35-.7-.22-1.42-.41-2.16-.6-2.94-.77-6-1.5-9.23-2.44-1.59-.47-3.2-1-4.8-1.63a16,16,0,0,1-2.35-1.16,5.33,5.33,0,0,1-1.07-.85,2.21,2.21,0,0,1-.42-.61c-.11-.23-.14-.44-.22-.65a4.86,4.86,0,0,1-.16-2.73,3.21,3.21,0,0,1,.72-1.18,2.24,2.24,0,0,0,.33-.46s0,0,.08-.13a.35.35,0,0,1,.19-.12,1.12,1.12,0,0,1,.22,0h.35c1.74.11,3.39.4,5,.66,3.27.54,6.41,1.12,9.4,1.69,6,1.13,11.35,2.21,15.85,3.14,1.13.22,2.2.48,3.21.65l2.9.4,4.63.66,2.93.44.76.13.26.06a.79.79,0,0,1-.27,0l-.76-.07-3-.35L200,362.9l-2.9-.37c-1-.16-2.1-.4-3.23-.61l-15.87-3c-3-.55-6.13-1.13-9.39-1.66-1.63-.25-3.3-.54-5-.65h-.29s-.11,0-.1,0,0,0,0,0,0-.08-.05-.12l0,0c.39.14.1.05.19.09l0,0a2.29,2.29,0,0,1-.42.59,2.77,2.77,0,0,0-.62,1,4.4,4.4,0,0,0,.17,2.42,2.25,2.25,0,0,0,.52,1.06,5.26,5.26,0,0,0,1,.76,15.44,15.44,0,0,0,2.27,1.12c1.57.64,3.17,1.15,4.75,1.62,3.16.94,6.26,1.68,9.21,2.46.73.2,1.46.4,2.17.62a8.39,8.39,0,0,1,1.06.38,1.25,1.25,0,0,1,.54.38,2.41,2.41,0,0,1,.27.53,29.58,29.58,0,0,0,1.57,3.86,13.06,13.06,0,0,0,5,5.32,25.58,25.58,0,0,0,5.7,2.3,26.47,26.47,0,0,0,4.57.89,20.21,20.21,0,0,0,2.94.1c.34,0,.6,0,.77-.05Z"/><path class="cls-14" d="M176.89,399.44a3.85,3.85,0,0,1,1.23.06,11.55,11.55,0,0,1,3.22,1,10,10,0,0,1,2,1.19,3.52,3.52,0,0,1,1.48,2.32,2.87,2.87,0,0,1-1.48,2.64,5.54,5.54,0,0,1-3.17.66,59.62,59.62,0,0,1-10.92-1.61c-1.37-.35-2.46-.71-3.2-1a5.66,5.66,0,0,1-1.13-.49,5.32,5.32,0,0,1,1.19.3c.76.21,1.85.51,3.22.81a71,71,0,0,0,10.85,1.45,5.1,5.1,0,0,0,2.89-.57,2.39,2.39,0,0,0,1.27-2.17,3.13,3.13,0,0,0-1.27-2,10,10,0,0,0-1.91-1.2A17.46,17.46,0,0,0,176.89,399.44Z"/><path class="cls-9" d="M263.84,331.17S278.65,306.79,282,290.7s20.53-41.62,26.07-48.28S335.8,228,335.8,228l8.18-4.42,63.4-5.57s42.16,4.44,54.93,16.09,22.75,38.29,22.75,51.6,12.88,128.64,12.88,128.64l-156.21-.2,3.5-56.86s-18.86-12.76-23.86-23.86-2.22-5.55-2.22-5.55S301.44,365.52,295.34,370s-77,26.21-77,26.21l-9.71-37.23Z"/><path class="cls-9" d="M448.27,238.75c-1.71.53-22.87,55.18-24.36,60.15s0,36.29,0,36.29l7,12.93s-2,9.44-.5,13.92l-31.32,6s-7.95-5.46-15.41,0l-36.94,3.13s10.84.12,7.61,16.76c-3.16,16.3-5.57,19.88-5.57,19.88l129.85-3s14.43-.72,12.23-28.46-8.39-104.26-8.39-104.26S473,231.09,448.27,238.75Z"/><path class="cls-8" d="M423.62,330.82a3.53,3.53,0,0,1-.31-.67l-.79-2c-.34-.85-.75-1.9-1.15-3.15s-.93-2.64-1.35-4.23-1-3.32-1.39-5.21-.85-3.91-1.26-6a108.8,108.8,0,0,1-1.52-14.09,111.58,111.58,0,0,1,.42-14.17c.26-2.16.47-4.22.82-6.13.16-1,.29-1.88.47-2.77s.36-1.72.53-2.53c.32-1.61.73-3.05,1.06-4.31s.64-2.35.93-3.23.49-1.5.65-2a3.39,3.39,0,0,1,.27-.69,4.88,4.88,0,0,1-.17.72c-.14.51-.32,1.19-.56,2s-.56,2-.84,3.24-.69,2.7-1,4.32c-.15.81-.32,1.65-.49,2.53s-.29,1.8-.44,2.76c-.33,1.9-.52,3.95-.77,6.11a107.38,107.38,0,0,0,1.09,28.12c.39,2.14.75,4.17,1.21,6s.89,3.62,1.32,5.21.9,3,1.28,4.24.75,2.31,1.06,3.17l.7,2A6,6,0,0,1,423.62,330.82Z"/><path class="cls-8" d="M468.8,390.09s-.13-.12-.33-.38-.53-.69-.87-1.15-.83-1.12-1.39-1.8-1.17-1.49-1.92-2.32-1.54-1.76-2.46-2.69-1.92-1.92-3-2.93a75.61,75.61,0,0,0-7.48-6,74.11,74.11,0,0,0-8.24-4.88c-1.33-.64-2.58-1.27-3.8-1.76s-2.34-1-3.38-1.35-2-.69-2.85-1-1.57-.5-2.17-.66l-1.38-.41a1.81,1.81,0,0,1-.48-.18,2.22,2.22,0,0,1,.5.08L431,363c.61.14,1.36.32,2.21.58s1.83.52,2.88.92,2.22.77,3.43,1.29,2.5,1.1,3.85,1.73a64.72,64.72,0,0,1,15.82,10.94c1.07,1,2.09,2,3,3s1.71,1.89,2.43,2.75,1.33,1.68,1.87,2.38,1,1.34,1.32,1.86l.79,1.21A2.06,2.06,0,0,1,468.8,390.09Z"/><path class="cls-8" d="M479.73,382.8c-.07.07-1.22-1.24-3.39-3a34.36,34.36,0,0,0-4-2.8,38.09,38.09,0,0,0-5.39-2.61,37.65,37.65,0,0,0-5.76-1.62,34.71,34.71,0,0,0-4.86-.57c-2.79-.11-4.52.1-4.53,0A6.44,6.44,0,0,1,453,372a12.36,12.36,0,0,1,1.43-.13c.56,0,1.19-.07,1.9,0a31.83,31.83,0,0,1,4.94.47,35,35,0,0,1,5.86,1.61,34.14,34.14,0,0,1,5.45,2.68,31.57,31.57,0,0,1,4,2.92c.55.45,1,.91,1.39,1.3a11.24,11.24,0,0,1,1,1A5.6,5.6,0,0,1,479.73,382.8Z"/><path class="cls-8" d="M467.73,364.53c-.07.09-1.6-1.13-4.4-2.51a22.74,22.74,0,0,0-2.34-1c-.84-.36-1.78-.63-2.76-.94a31.6,31.6,0,0,0-13.26-.91c-1,.17-2,.31-2.87.55a24.44,24.44,0,0,0-2.46.7c-3,1-4.64,2-4.69,1.88a7.06,7.06,0,0,1,1.17-.71,11.78,11.78,0,0,1,1.43-.72c.58-.24,1.22-.56,2-.8a21.93,21.93,0,0,1,2.47-.76,27.81,27.81,0,0,1,2.9-.62,30.48,30.48,0,0,1,13.47.93,25.32,25.32,0,0,1,2.8,1,21.39,21.39,0,0,1,2.34,1.09,19.62,19.62,0,0,1,1.84,1.07,11.65,11.65,0,0,1,1.33.9A6.9,6.9,0,0,1,467.73,364.53Z"/><path class="cls-8" d="M391.78,405.51a46.75,46.75,0,0,0,.92-5.56,35.92,35.92,0,0,0-.05-6.11,48.76,48.76,0,0,0-1.3-7.37,50.36,50.36,0,0,0-2.49-7.05,37.64,37.64,0,0,0-3-5.34,51,51,0,0,0-3.53-4.41,9.57,9.57,0,0,1,1.15,1,12.77,12.77,0,0,1,1.22,1.32l.72.85c.25.32.48.66.74,1a34.64,34.64,0,0,1,3.1,5.35,43.24,43.24,0,0,1,3.84,14.58,33.82,33.82,0,0,1-.06,6.18c-.05.44-.09.85-.14,1.25l-.22,1.1a11.43,11.43,0,0,1-.42,1.74A9.53,9.53,0,0,1,391.78,405.51Z"/><path class="cls-8" d="M370,368a1,1,0,0,1-.06-.29c0-.22-.08-.5-.14-.85-.11-.79-.27-1.89-.47-3.29-.41-2.86-.94-7-1.56-12.14-1.23-10.25-2.7-24.45-3.85-40.17s-1.74-30-2-40.31c-.14-5.16-.21-9.34-.22-12.23,0-1.41,0-2.53,0-3.32v-.87a.94.94,0,0,1,0-.29,1.11,1.11,0,0,1,0,.29c0,.23,0,.51,0,.87,0,.79.06,1.9.11,3.32.09,2.92.22,7.09.39,12.22.36,10.32,1,24.57,2.16,40.29s2.56,29.9,3.7,40.16c.58,5.1,1.06,9.25,1.39,12.15.16,1.41.28,2.51.37,3.31,0,.35.07.63.09.86A.91.91,0,0,1,370,368Z"/><path class="cls-8" d="M319,328.59a11.41,11.41,0,0,1-.68-1.53c-.4-1-1-2.43-1.75-4.2-1.5-3.53-3.74-8.34-6.41-13.56s-5.11-9.84-6.92-13.33c-.87-1.72-1.57-3.11-2-4.08a10.92,10.92,0,0,1-.67-1.54,9.71,9.71,0,0,1,.86,1.44l2.16,4c1.83,3.38,4.38,8,7.06,13.27s4.87,10.07,6.29,13.65c.71,1.79,1.26,3.25,1.6,4.27A10.61,10.61,0,0,1,319,328.59Z"/><path class="cls-8" d="M311,310.11a3.06,3.06,0,0,1-.91-.17c-.57-.14-1.39-.38-2.4-.71a59.68,59.68,0,0,1-7.64-3.14,58.64,58.64,0,0,1-7.13-4.18c-.88-.6-1.56-1.11-2-1.48s-.7-.58-.68-.61a31,31,0,0,1,2.91,1.78,80.38,80.38,0,0,0,7.16,4c2.87,1.42,5.56,2.52,7.53,3.26A33.85,33.85,0,0,1,311,310.11Z"/><path class="cls-8" d="M297.61,344.26a5.53,5.53,0,0,1-1.07-.65c-.67-.45-1.65-1.09-2.88-1.83A59.14,59.14,0,0,0,272.75,334c-1.42-.25-2.57-.41-3.37-.51a5.5,5.5,0,0,1-1.24-.21,5.54,5.54,0,0,1,1.26,0c.81,0,2,.15,3.41.34a52.33,52.33,0,0,1,21.05,7.89c1.21.79,2.16,1.47,2.79,2A6.85,6.85,0,0,1,297.61,344.26Z"/><path class="cls-8" d="M405.73,218.1a5.44,5.44,0,0,1-.06.81c-.07.58-.15,1.35-.26,2.32-.27,2-.62,4.92-1.24,8.5a107.72,107.72,0,0,1-2.8,12.44,57.88,57.88,0,0,1-6.29,14.28,43.78,43.78,0,0,1-5.21,6.68l-.2.22-.19-.25a26.45,26.45,0,0,0-9.49-7.87,25.37,25.37,0,0,0-5-1.84,22.22,22.22,0,0,0-4.55-.61,18.79,18.79,0,0,0-6.49.91c-1.45.51-2.22.89-2.24.84a3.6,3.6,0,0,1,.55-.29,13.55,13.55,0,0,1,1.63-.72,18.2,18.2,0,0,1,6.55-1.07,22.09,22.09,0,0,1,4.64.56,25.49,25.49,0,0,1,5.1,1.82,26.65,26.65,0,0,1,9.7,8l-.38,0a45.1,45.1,0,0,0,5.13-6.6A58.52,58.52,0,0,0,400.91,242a114.91,114.91,0,0,0,2.9-12.36c.66-3.56,1.07-6.47,1.39-8.47.16-1,.28-1.73.37-2.3A3.76,3.76,0,0,1,405.73,218.1Z"/><polygon class="cls-9" points="406.58 218.73 396.95 205.96 386.48 206.29 352.46 224.26 406.58 218.73"/><path class="cls-8" d="M361.72,254.53a2.3,2.3,0,0,1-.55,0,12.18,12.18,0,0,1-1.57-.26,19.49,19.49,0,0,1-5.37-2.3,11.78,11.78,0,0,0-3.65-1.51,10.87,10.87,0,0,0-4.51,0,10.57,10.57,0,0,0-7.56,6.57l-.54,1.46,0-1.56c0-.39,0-.8,0-1.22.13-7.88.13-15,.45-20.19.15-2.58.36-4.67.57-6.1.09-.72.2-1.27.28-1.64a2.11,2.11,0,0,1,.15-.56s-.1.79-.23,2.23-.3,3.51-.4,6.09c-.23,5.16-.17,12.29-.3,20.18,0,.42,0,.84,0,1.23l-.5-.1A11,11,0,0,1,346,250a11.21,11.21,0,0,1,8.44,1.67,21.13,21.13,0,0,0,5.24,2.42C361,254.43,361.73,254.48,361.72,254.53Z"/><path class="cls-13" d="M397,144.12v76.67a18.59,18.59,0,0,1-4.37,12h0a56.31,56.31,0,0,1-15.4,12.75l-15.46,8.71L348.93,242.8a18.6,18.6,0,0,1-6.2-13.15c-.22-5.58-.22-11.21-.22-11.21s-21.67-1.55-23.71-22.93c-.95-10.06-1.26-30.67-1.31-49.67a41.58,41.58,0,0,1,38.15-41.53l.61,0A39.75,39.75,0,0,1,397,144.12Z"/><path class="cls-14" d="M342.45,218.14s13.61,0,27.24-10.24c0,0-5.32,15.94-26.83,15.78Z"/><path class="cls-8" d="M324.69,160.21a3.07,3.07,0,0,0,3.2,2.84,2.93,2.93,0,0,0,2.92-3,3.06,3.06,0,0,0-3.19-2.84A2.93,2.93,0,0,0,324.69,160.21Z"/><path class="cls-8" d="M323,154.47c.41.36,2.59-1.54,5.87-1.8s5.84,1.18,6.16.75c.16-.2-.28-.88-1.4-1.56a8.35,8.35,0,0,0-5-1.09A8.05,8.05,0,0,0,324,152.7C323,153.56,322.75,154.31,323,154.47Z"/><path class="cls-8" d="M356,158.88a3.07,3.07,0,0,0,3.2,2.84,2.94,2.94,0,0,0,2.93-3,3.07,3.07,0,0,0-3.2-2.84A2.94,2.94,0,0,0,356,158.88Z"/><path class="cls-8" d="M355.32,152.41c.41.36,2.59-1.54,5.87-1.8s5.84,1.18,6.16.74c.16-.19-.28-.88-1.4-1.55a8.44,8.44,0,0,0-5-1.1,8.06,8.06,0,0,0-4.63,1.94C355.4,151.49,355.12,152.24,355.32,152.41Z"/><path class="cls-8" d="M345.4,177.78c0-.19-2.07-.38-5.41-.52-.85,0-1.66-.12-1.85-.68a4.27,4.27,0,0,1,.36-2.54l1.95-6.6c2.69-9.38,4.57-17.08,4.19-17.18s-2.87,7.42-5.56,16.8l-1.85,6.63a4.83,4.83,0,0,0-.16,3.33,2.12,2.12,0,0,0,1.48,1.12,5.65,5.65,0,0,0,1.44.08C343.34,178.12,345.41,178,345.4,177.78Z"/><path class="cls-8" d="M355.27,179.25c-.54,0-.25,3.58-3.09,6.37s-6.68,2.71-6.67,3.21c0,.23.91.62,2.52.53a8.93,8.93,0,0,0,5.58-2.48,7.75,7.75,0,0,0,2.36-5.32C356,180.06,355.51,179.21,355.27,179.25Z"/><path class="cls-8" d="M353.4,139.59c.4.87,3.65.17,7.54.32s7.11.94,7.55.09c.2-.4-.41-1.19-1.74-2a13.14,13.14,0,0,0-11.5-.31C353.88,138.42,353.23,139.18,353.4,139.59Z"/><path class="cls-8" d="M323.37,144.85c.64.7,2.84-.26,5.56-.52s5.07.08,5.54-.74c.2-.4-.22-1.12-1.29-1.74a7.76,7.76,0,0,0-4.63-.85,7.64,7.64,0,0,0-4.31,1.87C323.34,143.71,323.09,144.51,323.37,144.85Z"/><path class="cls-8" d="M371.78,122.58l.12.08A16.93,16.93,0,0,1,379.06,133l.09.43c1.35,6,1.71,12.25,3.11,18.27s1.14,10.62,7.17,12a8,8,0,0,0,8.39-3.41,5.23,5.23,0,0,0,.54-2.86c-.08-14.82,2.9-20.58,1.6-36a13,13,0,0,0-6.27-10.12c-3.42-2-7.55-4.12-11-2.13s-7.53,9.09-10.08,12.17"/><path class="cls-13" d="M390.54,154.4c.35-.19,14.34-5.57,15.08,9.1s-14.13,12.38-14.18,12S390.54,154.4,390.54,154.4Z"/><path class="cls-14" d="M395.64,169.68c.06-.05.26.17.7.34a2.54,2.54,0,0,0,1.91-.06c1.53-.64,2.71-3.17,2.64-5.82a8.41,8.41,0,0,0-.9-3.62,2.94,2.94,0,0,0-2-1.86,1.3,1.3,0,0,0-1.47.78c-.18.42-.07.7-.15.73s-.32-.23-.24-.84a1.68,1.68,0,0,1,.53-1,2,2,0,0,1,1.4-.44,3.6,3.6,0,0,1,2.78,2.14,8.76,8.76,0,0,1,1.1,4c.05,3-1.32,5.8-3.41,6.52a2.73,2.73,0,0,1-2.36-.27C395.68,170,395.59,169.71,395.64,169.68Z"/><path class="cls-8" d="M383.37,111.42c3.12-6.15-7.44-13.74-14.85-15.42s-16.62,2.63-23.61,5.61c-4.41,1.88-8.75,4.35-13.54,4.54-3.21.14-6.36-.77-9.47-1.59s-6.33-1.56-9.51-1.07-6.33,2.45-7.29,5.52,1.1,7,4.31,7.16c-4.23-1.89-9.84,1.51-10.12,6.14s4.88,8.69,9.31,7.33c-2.21-1.41-5.18,1.46-4.71,4s3,4.27,5.46,5.12c6.32,2.17,13.36.73,19.5-1.92s11.71-6.44,17.78-9.24,16.22-7.76,22.69-6.07c4.76,1.25,8.44,6.56,10.95,5.11a9,9,0,0,0,4.08-7,25.7,25.7,0,0,0-1-8.3"/><path class="cls-7" d="M307.61,115.91c.12-.08.85,1,2.56,2.6a20.27,20.27,0,0,0,8.56,4.55,18.59,18.59,0,0,0,13.9-1.71c4.79-2.64,8.68-7.46,13.23-12.06S355.91,101,361.65,100s11.18.64,14.39,3.68a12.87,12.87,0,0,1,4.1,9.18,10.18,10.18,0,0,1-.41,2.75c-.22.59-.36.89-.41.87a21.39,21.39,0,0,0,.25-3.6,12.63,12.63,0,0,0-4.22-8.44c-3-2.7-8.14-4.15-13.46-3.13s-10.57,4.44-15,9-8.48,9.45-13.61,12.21a20,20,0,0,1-23.5-3.61,13.88,13.88,0,0,1-1.72-2.15C307.73,116.23,307.57,115.94,307.61,115.91Z"/><path class="cls-7" d="M394.21,153.45c0,.05-.67-.35-1.32-1.47a9.84,9.84,0,0,1-1.16-5.24c-.07-4.74,3.68-10.14,3.67-16.69a14.76,14.76,0,0,0-2.34-8.6,11.28,11.28,0,0,0-5.83-4.25,9.5,9.5,0,0,0-4.93-.26c-1.16.29-1.77.61-1.84.5s.48-.56,1.67-1a9.18,9.18,0,0,1,5.38-.18,11.81,11.81,0,0,1,6.64,4.46,15.57,15.57,0,0,1,2.7,9.38,26.5,26.5,0,0,1-2.06,9.45,28.3,28.3,0,0,0-2,7.29C392.33,151.15,394.42,153.36,394.21,153.45Z"/><rect class="cls-8" x="391.86" y="158.8" width="7.53" height="17.43" rx="2.14" transform="translate(219.27 -224.25) rotate(42.82)"/><path class="cls-8" d="M485.16,289s0,.2.06.59.07,1,.13,1.72c.11,1.53.27,3.78.47,6.71.4,5.87,1,14.46,1.71,25.35s1.59,24.08,2.59,39.15q.38,5.65.76,11.65c.15,2,.23,4,.32,6.1.08,1,0,2.07,0,3.11s0,2.1-.18,3.15l-.39,3.18c-.23,1.05-.45,2.11-.68,3.17s-.66,2.08-1,3.13-.84,2.05-1.38,3c-2.09,3.89-5.37,7.53-9.91,9h-.06l-97.82,0-31,0h-.34l.09-.33q1.42-5.06,2.82-10.05.7-2.49,1.39-5a34.53,34.53,0,0,0,1.16-4.93,21.43,21.43,0,0,0-.86-9.82,12,12,0,0,0-2.34-4.22,6.88,6.88,0,0,0-4-2.35l-2.05-.32,2.05-.17,36.94-3.1-.11,0a12.62,12.62,0,0,1,8-2.45,16,16,0,0,1,7.71,2.46l-.17,0,31.33-5.93-.14.24a13.51,13.51,0,0,1-.54-3.69,30.16,30.16,0,0,1,.1-3.57,57.31,57.31,0,0,1,.95-6.76v.12l-6.93-12.94,0,0v0c-.49-11.53-.67-20.62-.58-26.82,0-3.1.15-5.48.31-7.08a12.1,12.1,0,0,1,.27-1.8c.09-.4.14-.6.14-.6s0,.21-.1.61a15.16,15.16,0,0,0-.23,1.8c-.14,1.6-.23,4-.24,7.07,0,6.2.18,15.29.71,26.81v-.06c2.13,3.95,4.45,8.23,7,12.91l0,0v.06a58.65,58.65,0,0,0-.92,6.71,29.73,29.73,0,0,0-.09,3.54,12.88,12.88,0,0,0,.53,3.58l.06.2-.2,0-31.32,6-.08,0-.08-.05a15.56,15.56,0,0,0-7.48-2.36,12.08,12.08,0,0,0-7.67,2.37l0,0h-.07l-36.94,3.14v-.49a7.33,7.33,0,0,1,4.32,2.5,12.45,12.45,0,0,1,2.44,4.4,21.75,21.75,0,0,1,.89,10.05,34.24,34.24,0,0,1-1.17,5q-.69,2.48-1.39,5-1.4,5-2.81,10l-.25-.33,31,0,97.82.07h0a15,15,0,0,0,5.67-3.5,21.12,21.12,0,0,0,4-5.29c.53-1,.91-2,1.36-3s.68-2.06,1-3.09.45-2.09.68-3.13l.39-3.15a29.82,29.82,0,0,0,.18-3.12,29,29,0,0,0,0-3.09c-.09-2-.16-4.07-.3-6.07q-.39-6-.75-11.66c-1-15.07-1.79-28.27-2.48-39.17S486,303.9,485.67,298c-.17-2.92-.3-5.17-.4-6.71,0-.75-.07-1.32-.09-1.72S485.16,289,485.16,289Z"/><path class="cls-8" d="M456.84,234.51s-.63.4-1.78,1.1a40.78,40.78,0,0,0-4.62,3.32,54.34,54.34,0,0,0-12,14.34,118.46,118.46,0,0,0-8,17l-2.08,5.32-.58,1.45a2.11,2.11,0,0,1-.23.49,1.87,1.87,0,0,1,.14-.53c.13-.39.29-.88.48-1.48.44-1.28,1.09-3.12,1.93-5.39A107.18,107.18,0,0,1,438,253a52.25,52.25,0,0,1,12.2-14.36,35.46,35.46,0,0,1,4.76-3.2c.58-.35,1.07-.56,1.38-.72A1.75,1.75,0,0,1,456.84,234.51Z"/><g class="cls-12"><path d="M417.7,272.69a66.38,66.38,0,0,0-5.59,29.91c.38,10.16,1.6,20.35.6,30.48s-4.51,20.46-12.06,27.27a10,10,0,0,0-2.44,2.71,2.76,2.76,0,0,0,.47,3.35,4,4,0,0,0,3.14.33c7.24-1.26,14.55-2.16,21.79-3.41,1.55-.27,6.76-1.29,6.76-1.29a28.28,28.28,0,0,1-.44-6c.23-1.81.94-8,.94-8a10.64,10.64,0,0,0-1.39-2.58,59.15,59.15,0,0,1-6-15.39c-2.47-5-3.58-10.13-4.73-14.85-3.17-13.11-3.08-26-1.06-42.61"/></g><g class="cls-12"><path d="M338.43,257.76c.59,1.5,1.19,3,1.78,4.51a1.82,1.82,0,0,0,.86,1.13c.89.34,1.6-.75,2-1.6a11.55,11.55,0,0,1,8.87-6.24c3-.35,6.16.53,9.15-.09a40.54,40.54,0,0,0-8.26-4.11,13.67,13.67,0,0,0-9.06-.09,8.36,8.36,0,0,0-5.48,6.84"/></g><g class="cls-12"><path d="M363.15,254a48.72,48.72,0,0,1,10.59.95,16.52,16.52,0,0,1,9.07,5.22c2.42,2.95,3.32,6.82,4.3,10.5.19.71.53,1.55,1.26,1.63a1.78,1.78,0,0,0,1.19-.47c6-4.4,9.94-11.13,12.1-18.23s2.66-14.58,2.78-22c-2.86,5.11-4.1,10.93-6,16.47s-4.67,11.12-9.57,14.32a4.78,4.78,0,0,0-1.12-3.51,10.48,10.48,0,0,0-2.91-2.38,27.8,27.8,0,0,0-22.26-2.73"/></g><path class="cls-13" d="M347.61,371.76H335.36s-27.63-10-33.31-9c-5.11.86-23.85,13.3-27.52,15.77a2.31,2.31,0,0,0-.89,1.13h0a4,4,0,0,0,2.24,5.1l.39.16-.17.56a6.63,6.63,0,0,0-.28,2.24,2.69,2.69,0,0,0,5,1.16l-.7,1.26a3.07,3.07,0,0,0-.39,1.68l.06,1.14a3.08,3.08,0,0,0,2.12,2.75h0a3,3,0,0,0,3.21-.85c2.38-2.61,7.51-7.84,11-8.42a81.21,81.21,0,0,1,11.34-.57,3.86,3.86,0,0,1,3.57,2.45h0c-2.06.15-16.42,7.64-21.5,10.32a5.41,5.41,0,0,0-2.95,4.09c-.19,1.59.61,3.25,3.76,2.52,6.75-1.58,18.9-7.16,18.9-7.16s6.26-1.79,10.32,1.07c5.71,4,8.33,5.51,13.23,3.88a41.54,41.54,0,0,0,8.52-4l9.66-1S360.1,375.26,347.61,371.76Z"/><path class="cls-14" d="M311.12,376.42c0,.11-2-.51-5.19-.72a26.81,26.81,0,0,0-22.33,9.53c-2.09,2.48-3,4.31-3.07,4.25a6.1,6.1,0,0,1,.61-1.28,23.47,23.47,0,0,1,2.18-3.2A25.91,25.91,0,0,1,306,375.34a24,24,0,0,1,3.81.64A6.5,6.5,0,0,1,311.12,376.42Z"/><path class="cls-14" d="M308.2,369.71a21,21,0,0,0-18,2.62,50.64,50.64,0,0,0-10.13,8.57l-2.78,3a8.19,8.19,0,0,1-1.05,1,7.79,7.79,0,0,1,.9-1.18c.61-.74,1.51-1.79,2.66-3.06A46.54,46.54,0,0,1,290,371.88a23,23,0,0,1,12.85-3.48,15.44,15.44,0,0,1,4,.74,7.2,7.2,0,0,1,1,.4A1.61,1.61,0,0,1,308.2,369.71Z"/><path class="cls-6" d="M467.72,91.93a40.88,40.88,0,0,0-33.54,64.27l-4.91,15.25,15-5.11a40.89,40.89,0,1,0,23.42-74.41Z"/><path class="cls-8" d="M456.94,132.51a3.53,3.53,0,1,1-3.42-3.64A3.54,3.54,0,0,1,456.94,132.51Z"/><path class="cls-8" d="M471.05,132.93a3.53,3.53,0,1,1-3.42-3.63A3.53,3.53,0,0,1,471.05,132.93Z"/><path class="cls-8" d="M485.18,131.59a3.53,3.53,0,1,1-4.78-1.44A3.53,3.53,0,0,1,485.18,131.59Z"/><path class="cls-8" d="M469,91.65a3.8,3.8,0,0,1,.71,0l2.1.12c.46,0,1,0,1.54.11l1.84.32,2.15.37,2.39.67a39.23,39.23,0,0,1,11.52,5.45,41.21,41.21,0,0,1,18,31.55,42.7,42.7,0,0,1-.05,5.65c-.1.95-.11,1.92-.28,2.88s-.35,1.92-.52,2.9a41.61,41.61,0,0,1-4.27,11.37,44.47,44.47,0,0,1-7.82,10.1,43.43,43.43,0,0,1-11.05,7.45,39.46,39.46,0,0,1-13.3,3.65,25.93,25.93,0,0,1-3.53.19,32.34,32.34,0,0,1-3.55,0,43,43,0,0,1-7.1-1.11,41.76,41.76,0,0,1-14-6.4l.43.06-14.61,5.36-.87.32.27-.88,4.71-15.31.06.39A41.53,41.53,0,0,1,426.59,139a37.37,37.37,0,0,1-.29-9.06,29.15,29.15,0,0,1,.54-4.32l.39-2.1c.15-.7.38-1.36.57-2a41.3,41.3,0,0,1,16.81-23,39.59,39.59,0,0,1,9.74-4.77l2.18-.71,2.07-.45,1.89-.41c.6-.1,1.18-.14,1.73-.21,1.1-.11,2.06-.27,2.9-.28h3.42a2.5,2.5,0,0,1,.44,0,1.89,1.89,0,0,1-.44,0l-1.29.07-2.11.08c-.84,0-1.8.22-2.88.35a41.06,41.06,0,0,0-33.74,29.46c-.18.66-.41,1.32-.55,2s-.25,1.38-.37,2.07a28.21,28.21,0,0,0-.52,4.25,37.47,37.47,0,0,0,.32,8.88,40.75,40.75,0,0,0,7.08,17.48l.13.17-.07.21q-2.27,7.43-4.67,15.32l-.6-.57,14.61-5.37.23-.09.2.14A40.87,40.87,0,0,0,458,172.38a42.14,42.14,0,0,0,6.93,1.09,31.08,31.08,0,0,0,3.48,0,26.25,26.25,0,0,0,3.44-.19,38.48,38.48,0,0,0,13-3.55,42.65,42.65,0,0,0,10.83-7.27,43.37,43.37,0,0,0,7.67-9.87,40.51,40.51,0,0,0,4.22-11.13c.18-.95.36-1.9.53-2.83s.18-1.9.28-2.83a43,43,0,0,0,.08-5.55,40.82,40.82,0,0,0-17.52-31.16A39.22,39.22,0,0,0,479.6,93.6l-2.36-.7-2.12-.42-1.82-.35c-.56-.08-1.08-.11-1.53-.16l-2.08-.22A5,5,0,0,1,469,91.65Z"/><path class="cls-8" d="M558.08,404.31a10.13,10.13,0,0,0-6.64,3.69,7.3,7.3,0,0,0-.93,7.35,5.77,5.77,0,0,0,6.45,3.16,3.66,3.66,0,0,0,7.3.12,4.35,4.35,0,0,0,7.61-3.18c-.08-1.15-.61-2.22-.74-3.35s.17-2.5.14-3.75a3.18,3.18,0,0,0-1.76-3.06"/><path class="cls-8" d="M506.78,411.09a43.4,43.4,0,0,1,12.76-5.1c3.23-.83,6.7-1.51,9.87-.47a9.72,9.72,0,0,1,6.24,6.58,4.82,4.82,0,0,1-.16,3.51c-.75,1.41-2.41,2.06-4,2.44-1.18.3-2.7.39-3.36-.64a4.58,4.58,0,0,1-6.71.52,4.43,4.43,0,0,1-8.44-2.48,4.86,4.86,0,0,1-4.27,2.11,4,4,0,0,1-3.52-3,3.38,3.38,0,0,1,2.36-3.85"/><path class="cls-8" d="M469.37,410.45A11,11,0,0,1,473.62,399c4-2.89,6.84-6.25,12.06-9.36a76.76,76.76,0,0,1,12.77-5.48c10.25-3.41,17.18-4.27,21.39-6.48,4.61-2.41,10.77-6.21,10.77-6.21l52.32,4.06s6.29,38.64-3.23,42.42c0,0-44.34.46-47.82-1.08-3.78-1.67-61.46-1.64-61.3-1.26Z"/><path class="cls-8" d="M497.68,403.07a164.31,164.31,0,0,1-28.1,2.26,50.35,50.35,0,0,0-9.9.64,10.88,10.88,0,0,0-5.4,2.51,5.32,5.32,0,0,0-1.53,5.5c.71,1.88,3.2,3,4.91,1.95a4,4,0,0,0,7.3,1.41,3.38,3.38,0,0,0,3.21,1,13.26,13.26,0,0,0,3.28-1.27c4.57-2.13,9.41-1.6,14.45-1.57,8.8.06,18.76,0,15.09,0"/><path class="cls-7" d="M501,415.51a6,6,0,0,1,.74-.05h0c0,.18,0,.05,0,.09h-.37l-.49,0-1.24,0-8,.09H486c-2,0-4.22-.1-6.52,0a20.85,20.85,0,0,0-7.1,1.27,37.23,37.23,0,0,1-3.64,1.53,4.69,4.69,0,0,1-2.11.12,3.09,3.09,0,0,1-1.9-1.09l.41,0A4.25,4.25,0,0,1,457.4,416l.4.17a3.62,3.62,0,0,1-4.14-.51,3.86,3.86,0,0,1-1.38-2.44,5.28,5.28,0,0,1,.35-2.73,7.15,7.15,0,0,1,3.71-3.69,16.57,16.57,0,0,1,4.87-1.32,39.7,39.7,0,0,1,4.8-.34c6.23,0,11.83-.06,16.53-.41s8.47-.82,11.08-1.15l3-.38.78-.09.27,0-.26.07-.78.14-3,.48c-2.61.39-6.38.94-11.09,1.32s-10.32.47-16.54.52a40.56,40.56,0,0,0-4.74.35,16.31,16.31,0,0,0-4.72,1.29,6.55,6.55,0,0,0-3.44,3.43,3.89,3.89,0,0,0,.87,4.57,3.1,3.1,0,0,0,3.53.47l.33-.21.06.38a3.74,3.74,0,0,0,6.84,1.32l.19-.3.22.28a3.31,3.31,0,0,0,3.49.81,38.39,38.39,0,0,0,3.59-1.5,21.09,21.09,0,0,1,7.27-1.26c2.33-.05,4.51.08,6.54.09l5.61.05,8,.06,1.24,0h.85s0-.09,0,.09h0A3.81,3.81,0,0,1,501,415.51Z"/><path class="cls-7" d="M571,413.46a2.76,2.76,0,0,1,.59.77,4.49,4.49,0,0,1,.48,2.7,4.6,4.6,0,0,1-.67,1.88,4,4,0,0,1-1.79,1.54,4.72,4.72,0,0,1-5.32-1.14l.36-.07a4.09,4.09,0,0,1-7.76,0l.3.16c-2.77.69-5.87-1.18-7-4a7.55,7.55,0,0,1,.43-6.35,10.31,10.31,0,0,1,4.18-4.27,14.39,14.39,0,0,1,5.16-1.63,22.65,22.65,0,0,1,4.7-.08,63.06,63.06,0,0,1,6.69,1l1.8.35a2.78,2.78,0,0,1,.62.16,3.84,3.84,0,0,1-.64-.05l-1.82-.26c-1.58-.23-3.85-.67-6.68-.87a17.31,17.31,0,0,0-9.59,1.76,9.81,9.81,0,0,0-4,4.08,7,7,0,0,0-.41,5.92c1.08,2.6,4,4.31,6.44,3.69l.23,0,.07.22a3.72,3.72,0,0,0,3.63,2.5,3.78,3.78,0,0,0,3.25-2.45l.12-.35.24.28a4.35,4.35,0,0,0,4.86,1.1,4,4,0,0,0,2.36-3.14,4.53,4.53,0,0,0-.36-2.6C571.2,413.73,571,413.48,571,413.46Z"/><path class="cls-7" d="M578.82,403.44c-.06.06-.6-.47-1.65-1a8.16,8.16,0,0,0-8.72.45c-1,.67-1.47,1.25-1.53,1.19a3.86,3.86,0,0,1,1.31-1.49,7.79,7.79,0,0,1,9.13-.46A4,4,0,0,1,578.82,403.44Z"/><path class="cls-7" d="M506.59,417.21a2.24,2.24,0,0,1-.39-.26,4.5,4.5,0,0,1-.86-1,6.2,6.2,0,0,1-.56-4.81,9.78,9.78,0,0,1,4.71-5.44c2.37-1.43,5.3-2.22,8.12-3.47a27.59,27.59,0,0,0,11.79-10.32,28.81,28.81,0,0,0,2.24-4.28,13.47,13.47,0,0,1,.69-1.64,2.16,2.16,0,0,1-.1.45c-.09.29-.2.73-.41,1.26a23.62,23.62,0,0,1-2.1,4.4,27.08,27.08,0,0,1-11.89,10.6c-2.89,1.28-5.79,2.05-8.1,3.41a9.53,9.53,0,0,0-4.59,5.13,6.08,6.08,0,0,0,.38,4.61A7.56,7.56,0,0,0,506.59,417.21Z"/><path class="cls-7" d="M527.43,416.9a5.57,5.57,0,0,0,1.14.88,4.33,4.33,0,0,0,3.74.06,5,5,0,0,0,2.6-4.72,6.69,6.69,0,0,0-.92-3.22,8.45,8.45,0,0,0-2.49-2.64,11.93,11.93,0,0,0-6.73-2,21.49,21.49,0,0,0-5.8.89c-1.62.46-2.91.92-3.8,1.22a9.4,9.4,0,0,1-1.41.44,7.06,7.06,0,0,1,1.34-.63c.87-.36,2.15-.87,3.77-1.38a20.42,20.42,0,0,1,5.9-1,12.24,12.24,0,0,1,7,2.08,8.91,8.91,0,0,1,2.63,2.81,7.12,7.12,0,0,1,1,3.47,5.31,5.31,0,0,1-2.93,5.06,4.43,4.43,0,0,1-4-.21,3.24,3.24,0,0,1-.84-.73A1.55,1.55,0,0,1,527.43,416.9Z"/><path class="cls-7" d="M521.6,417.62a4.44,4.44,0,0,0,1.67,1.08,4.72,4.72,0,0,0,2.08.35,2.82,2.82,0,0,0,2-1.34,3.24,3.24,0,0,0,.2-2.47,6.13,6.13,0,0,0-1-1.91,15.81,15.81,0,0,1-1.28-1.61,5.65,5.65,0,0,1,1.57,1.38,5.86,5.86,0,0,1,1.16,2,3.6,3.6,0,0,1-.21,2.87,3.22,3.22,0,0,1-2.42,1.56,4.78,4.78,0,0,1-2.28-.49,3.81,3.81,0,0,1-1.27-.91C521.61,417.84,521.57,417.63,521.6,417.62Z"/><path class="cls-7" d="M513.2,415.75a6.49,6.49,0,0,1,0,.79,3.88,3.88,0,0,0,.55,2,3.62,3.62,0,0,0,2.39,1.74,4.3,4.3,0,0,0,3.52-.81,4.89,4.89,0,0,0,1.71-3.24,5.36,5.36,0,0,0-.58-3,9.39,9.39,0,0,0-1.82-2.27s.28.09.7.41a5.7,5.7,0,0,1,1.44,1.69,5.45,5.45,0,0,1,.74,3.22,5.22,5.22,0,0,1-1.87,3.59,4.71,4.71,0,0,1-4,.88,3.93,3.93,0,0,1-2.6-2,3.71,3.71,0,0,1-.43-2.18A1.56,1.56,0,0,1,513.2,415.75Z"/><path class="cls-8" d="M534,380.49s11.06,12.19,24.79,10.65,24.28-14.86,24.28-14.86c2.11-3.35,1.24-6.81.58-9.37s-1.92-5-1.93-7.66c0-2.26.89-4.41,1.54-6.57,1.46-4.84,1.68-10,1.9-15,.09-2.17,0-4.75-1.86-5.91a4.16,4.16,0,0,0-3.87-.07,11.67,11.67,0,0,0-3.2,2.41,136.61,136.61,0,0,0-11.63,12.66,15.11,15.11,0,0,0-18.75,1.51C540,345.81,538,337.58,532,335.47a4.32,4.32,0,0,0-4,.29c-1.46,1.1-1.54,3.22-1.49,5.05.25,8.23.55,16.7,3.9,24.22a16.25,16.25,0,0,0,3.21,14.83"/><path class="cls-7" d="M554.06,382.23a5.55,5.55,0,0,1,6.82-1.94,1.79,1.79,0,0,1,.77.55.79.79,0,0,1,.07.89.68.68,0,0,0-1,0,1.61,1.61,0,0,0-.35,1.09,3.76,3.76,0,0,1-.13,1.16,1.37,1.37,0,0,1-2.3.43,4.12,4.12,0,0,1-.59-1.07,1.38,1.38,0,0,0-.88-.81,1.91,1.91,0,0,0-1,.21,1.27,1.27,0,0,1-1,.09c-.3-.14-.44-.61-.17-.79"/><path class="cls-7" d="M559.18,383.75c.08,0,.06.44.22,1.09a4,4,0,0,0,3.66,3.09c.66.05,1.09-.05,1.11,0s-.38.29-1.12.34a3.85,3.85,0,0,1-4-3.39C559,384.17,559.12,383.74,559.18,383.75Z"/><path class="cls-7" d="M559.26,383.1s.34.46.37,1.35a4.1,4.1,0,0,1-4.51,4.22c-.89-.09-1.35-.42-1.32-.47s.52.11,1.34.1a4,4,0,0,0,4.12-3.86C559.33,383.63,559.17,383.13,559.26,383.1Z"/><path class="cls-7" d="M580.44,387.68a26.51,26.51,0,0,0-14.89-1.83,7,7,0,0,1,2.18-.58,19.25,19.25,0,0,1,5.46-.1,19.79,19.79,0,0,1,5.28,1.42A7.11,7.11,0,0,1,580.44,387.68Z"/><path class="cls-7" d="M586.81,385c0,.08-1.26-.23-3.27-.58a49.07,49.07,0,0,0-15.86-.27c-2,.29-3.26.55-3.28.47a3.3,3.3,0,0,1,.85-.29c.55-.17,1.36-.35,2.37-.55a40.66,40.66,0,0,1,16,.27c1,.23,1.8.45,2.35.63A3.05,3.05,0,0,1,586.81,385Z"/><path class="cls-7" d="M590.18,377.88c0,.08-1.52,0-3.95,0a52.13,52.13,0,0,0-9.43.78,33.55,33.55,0,0,0-9,2.93c-2.16,1.09-3.38,2-3.43,1.92a4,4,0,0,1,.81-.69,21.85,21.85,0,0,1,2.45-1.55,30.06,30.06,0,0,1,9-3.12,44.06,44.06,0,0,1,9.53-.64c1.22,0,2.21.12,2.89.19A4.63,4.63,0,0,1,590.18,377.88Z"/><path class="cls-7" d="M532.84,393.77s.19-.23.59-.58a19.35,19.35,0,0,1,1.78-1.35A27.75,27.75,0,0,1,549,387.17a18.63,18.63,0,0,1,2.24,0,2.72,2.72,0,0,1,.81.1c0,.09-1.16.09-3,.28a32.46,32.46,0,0,0-7.09,1.53,33.43,33.43,0,0,0-6.57,3.08C533.82,393.13,532.9,393.84,532.84,393.77Z"/><path class="cls-7" d="M532,388.22s.26-.17.76-.4,1.24-.51,2.17-.83a36.28,36.28,0,0,1,15.16-1.63c1,.11,1.76.23,2.29.34a3.35,3.35,0,0,1,.83.23c0,.08-1.21-.08-3.15-.21a46.48,46.48,0,0,0-7.58.16,45.89,45.89,0,0,0-7.44,1.46A31.4,31.4,0,0,1,532,388.22Z"/><path class="cls-7" d="M525,385.88a4.77,4.77,0,0,1,1-.48c.68-.27,1.69-.62,2.95-1a42.47,42.47,0,0,1,20.33-.71,30.94,30.94,0,0,1,3,.78,4.22,4.22,0,0,1,1.07.4c0,.09-1.58-.36-4.15-.82a48.09,48.09,0,0,0-20.17.7C526.59,385.41,525.06,386,525,385.88Z"/><path class="cls-7" d="M551.69,372.17a3.45,3.45,0,0,1-1.54,1.1,6.82,6.82,0,0,1-8.31-2.16,3.57,3.57,0,0,1-.82-1.71c.08,0,.37.63,1.1,1.48a7.06,7.06,0,0,0,7.89,2.05C551.07,372.54,551.64,372.1,551.69,372.17Z"/><path class="cls-7" d="M574,367.37a2.66,2.66,0,0,1-.17,1.81,5.54,5.54,0,0,1-3,3.12,10.67,10.67,0,0,1-4.3.79,5.83,5.83,0,0,1-1.79-.14,6.33,6.33,0,0,1,1.78-.22,13.1,13.1,0,0,0,4.1-.9,5.69,5.69,0,0,0,2.92-2.79A15.91,15.91,0,0,0,574,367.37Z"/><path class="cls-7" d="M535.22,352.63a10.88,10.88,0,0,0,1.66-2.12,4.75,4.75,0,0,0,.62-2.77,6,6,0,0,0-1.27-2.72,26.11,26.11,0,0,0-5.48-5.57s-1.59-1.2-2.3,0c-.48.8-.18,13.93,1.65,14.77S535.22,352.63,535.22,352.63Z"/><path class="cls-7" d="M580.59,333.86c-2.92,2.29-4,6.23-6.23,9.23a8.82,8.82,0,0,0-1.05,1.71,2.89,2.89,0,0,0-.17,2,3.78,3.78,0,0,0,1.26,1.61,14.74,14.74,0,0,0,3.87,2.35s3,.94,3.83-1.82S582.55,332.32,580.59,333.86Z"/><path class="cls-8" d="M487.67,390.51c-3.52.54-11.65-.81-14-3.26s-1.71-6.29-.42-9.6,3.27-6.3,5-9.43c2.84-5.23,4.91-11,5.06-16.94s-1.77-12.09-6-16.29-10.85-6.09-16.4-3.94c-4.56,1.77-8.09,7-6.32,11.6,1.1,2.86,3.87,4.68,5.82,7a14.41,14.41,0,0,1,2.88,12.19c-1,4.59-4.29,8.4-5.52,12.94-1.87,6.92,1.52,14.6,7.24,18.94s13.31,5.63,20.43,4.79"/><path class="cls-9" d="M561.64,388.11s.43,2.68-.49,3.77a2.27,2.27,0,0,1-3.94-.42,6.1,6.1,0,0,1-.64-2.74s2.38-.86,2.73-2.25A3.73,3.73,0,0,0,561.64,388.11Z"/><path class="cls-7" d="M573.76,389.2a4.78,4.78,0,0,1-.78.88,18.37,18.37,0,0,1-2.47,2,20.31,20.31,0,0,1-20.22,1.63,17.32,17.32,0,0,1-2.77-1.61,4.6,4.6,0,0,1-.9-.74c0-.09,1.37.95,3.82,2a21,21,0,0,0,19.86-1.59C572.55,390.36,573.69,389.12,573.76,389.2Z"/><path class="cls-7" d="M559.48,407.21c0,.08-.69.45-1.6,1.36a7.71,7.71,0,0,0-1.42,9.16c.58,1.14,1.17,1.72,1.1,1.78a4.27,4.27,0,0,1-1.43-1.6,7.56,7.56,0,0,1,1.5-9.61A4.18,4.18,0,0,1,559.48,407.21Z"/><path class="cls-7" d="M569.22,408.37a10.87,10.87,0,0,0-2,.54,6.12,6.12,0,0,0-3.1,3.51,8.9,8.9,0,0,0-.07,4.8c.3,1.22.64,1.95.56,2a4.85,4.85,0,0,1-.91-1.88,8.27,8.27,0,0,1-.07-5.07,6,6,0,0,1,3.45-3.68A3.07,3.07,0,0,1,569.22,408.37Z"/><path class="cls-7" d="M542.11,401.9a4.71,4.71,0,0,1-.82,1.43,16.62,16.62,0,0,1-2.68,3,13.13,13.13,0,0,1-3.41,2.1,4.35,4.35,0,0,1-1.59.47c-.08-.17,2.35-1,4.67-3S542,401.78,542.11,401.9Z"/><path class="cls-7" d="M530,371.86a4.73,4.73,0,0,1-.57.43c-.38.28-1,.66-1.72,1.14a59.63,59.63,0,0,1-6.68,3.56A101.85,101.85,0,0,1,510.59,381c-4,1.31-8.49,2.55-13.1,4.08a77.33,77.33,0,0,0-12.62,5.24,42.88,42.88,0,0,0-9.06,6.45,32.33,32.33,0,0,0-4.84,5.73c-1,1.49-1.4,2.38-1.45,2.35a3.25,3.25,0,0,1,.29-.65c.2-.43.53-1,1-1.81a30,30,0,0,1,4.76-5.89,42.13,42.13,0,0,1,9.08-6.6,74.68,74.68,0,0,1,12.68-5.31c4.63-1.54,9.11-2.76,13.12-4.05a104.61,104.61,0,0,0,10.46-3.93,71.69,71.69,0,0,0,6.73-3.39c.77-.45,1.36-.8,1.76-1.05A2.83,2.83,0,0,1,530,371.86Z"/><path class="cls-7" d="M535.3,380.75a7.14,7.14,0,0,1-1.56-1.77,18.23,18.23,0,0,1-3.31-10.78,7.11,7.11,0,0,1,.3-2.34,28.64,28.64,0,0,0,1,7.84A29.05,29.05,0,0,0,535.3,380.75Z"/><path class="cls-8" d="M174.84,414.63l-33.18-83.29a10.9,10.9,0,0,1,10.08-15H255.11a10.89,10.89,0,0,1,10.31,7.39l28.5,84,33.29.16c2.7,0,4.89,4,4.89,6.67h0l-36.64-.42Z"/><path class="cls-9" d="M175.65,335.57a11.63,11.63,0,0,0-6.68,1.79,8.7,8.7,0,0,0-1.82,1.51c-1.77,2-4.93,5.86-3.67,11.9s5.15,6.87,7,7.07S185,354.43,185,354.43s4.61-3.91,3-9.05C186.53,341,182.45,335.82,175.65,335.57Z"/><path class="cls-4" d="M169.59,356s.46,3.23,2.08,4,4.64.67,7,.09,5.76-1.9,6.17-3.69a7.5,7.5,0,0,0-.21-4.21,10.53,10.53,0,0,0-8.51-.79A11.26,11.26,0,0,0,169.59,356Z"/><g class="cls-10"><path class="cls-6" d="M179.88,340.62a6.08,6.08,0,1,1-7.38-4.42A6.08,6.08,0,0,1,179.88,340.62Z"/></g><g class="cls-10"><path class="cls-6" d="M164.53,353.85a7.8,7.8,0,0,0,1.73-5.16,7.6,7.6,0,0,0-2.26-4.86,14.92,14.92,0,0,0-.66,6.15A11.11,11.11,0,0,0,164.53,353.85Z"/></g><g class="cls-10"><path class="cls-6" d="M188.3,347.87a7.73,7.73,0,0,1-4-3.73,6.91,6.91,0,0,1-.39-5.09,16.89,16.89,0,0,1,3.45,4.85C188.59,346.69,188.3,347.87,188.3,347.87Z"/></g><path class="cls-4" d="M222.62,368.91a6.72,6.72,0,1,1-6.72-6.71A6.72,6.72,0,0,1,222.62,368.91Z"/><path class="cls-8" d="M617.39,414.14c0,.14-137.46.26-307,.26s-307-.12-307-.26,137.43-.26,307-.26S617.39,414,617.39,414.14Z"/><path class="cls-9" d="M94.76,379.8c-9.78-5.67-15-18.86-15.4-29.66s4.1-22.05,13-28.24c9.32-6.52,22.6-6.4,32.18-.27s15.2,17.72,14.76,29.09-6.63,22.22-15.79,29"/><path class="cls-6" d="M110.37,380.84a12.57,12.57,0,0,1-.18-2.47c0-1.77-.12-4-.19-6.73-.15-5.69-.37-13.54-.75-22.2s-.85-16.51-1.2-22.18c-.17-2.71-.3-5-.41-6.73a12,12,0,0,1,0-2.47,12.77,12.77,0,0,1,.39,2.44c.19,1.58.43,3.87.69,6.71.52,5.66,1.09,13.51,1.47,22.19s.51,16.54.49,22.23c0,2.85-.05,5.15-.1,6.74A13.65,13.65,0,0,1,110.37,380.84Z"/><path class="cls-8" d="M82.25,347.7c0,.25-1.58.33-3.48.17s-3.43-.48-3.41-.74,1.58-.33,3.48-.17S82.27,347.45,82.25,347.7Z"/><path class="cls-8" d="M82.79,338c-.1.24-1.45-.14-3-.83s-2.73-1.44-2.63-1.67,1.45.14,3,.83S82.89,337.78,82.79,338Z"/><path class="cls-8" d="M87.77,330.82c-.13.21-1.64-.5-3.21-1.8s-2.56-2.66-2.38-2.82,1.43.85,3,2.11S87.91,330.61,87.77,330.82Z"/><path class="cls-8" d="M92.78,324c-.23.1-1-1-1.62-2.53s-1-2.8-.78-2.9,1,1,1.62,2.53S93,323.94,92.78,324Z"/><path class="cls-8" d="M100.65,319.23c-.23.1-1-1.1-1.53-2.77s-.56-3.11-.32-3.15.69,1.27,1.2,2.87S100.88,319.12,100.65,319.23Z"/><path class="cls-8" d="M113.77,313.8c.24.09.09,1.12-.33,2.3s-1,2.08-1.19,2-.09-1.12.33-2.3S113.53,313.72,113.77,313.8Z"/><path class="cls-8" d="M123.5,318c.17.19-.45,1-1.39,1.91s-1.85,1.43-2,1.25.45-1.05,1.39-1.92S123.33,317.79,123.5,318Z"/><path class="cls-8" d="M132.07,323.51c.14.21-.62,1-1.7,1.71s-2.07,1.15-2.22.94.62-1,1.7-1.7S131.93,323.3,132.07,323.51Z"/><path class="cls-8" d="M138.15,331.76c.1.24-1.1,1-2.68,1.64s-2.94,1-3,.8,1.1-1,2.68-1.64S138.05,331.53,138.15,331.76Z"/><path class="cls-8" d="M140.55,340.76c0,.25-1.19.61-2.73.8s-2.81.14-2.84-.11,1.19-.61,2.73-.8S140.52,340.51,140.55,340.76Z"/><path class="cls-8" d="M141.79,351.84c-.1.23-1.4-.11-2.9-.77s-2.64-1.37-2.54-1.6,1.4.11,2.91.76S141.9,351.6,141.79,351.84Z"/><path class="cls-8" d="M140.7,361.34c-.08.23-1.73-.16-3.45-1.29s-2.74-2.47-2.56-2.64,1.44.82,3.07,1.87S140.79,361.1,140.7,361.34Z"/><path class="cls-8" d="M135.75,370c-.15.2-1.46-.57-2.72-1.93s-1.93-2.71-1.72-2.85,1.19.93,2.39,2.23S135.91,369.79,135.75,370Z"/><path class="cls-8" d="M88.76,371c.12.22-1.26,1.17-3.07,2.11s-3.38,1.53-3.49,1.3,1.26-1.17,3.07-2.11S88.64,370.78,88.76,371Z"/><path class="cls-8" d="M84.47,363.18c.1.23-1,1-2.46,1.62s-2.74,1-2.84.79,1-1,2.46-1.62S84.36,363,84.47,363.18Z"/><path class="cls-8" d="M81.31,356.25c0,.25-1.32.65-3,.89s-3.12.24-3.15,0,1.32-.65,3-.89S81.28,356,81.31,356.25Z"/><path class="cls-8" d="M91.66,352.43c.08.24-1.25.85-3,1.05s-3.19-.1-3.17-.35,1.4-.37,3.07-.56S91.59,352.18,91.66,352.43Z"/><path class="cls-8" d="M100.26,343.88c.07.23-1,.77-2.4.9s-2.56-.17-2.53-.42,1.12-.36,2.44-.49S100.19,343.63,100.26,343.88Z"/><path class="cls-8" d="M101.9,337c-.08.24-1.22.07-2.54-.39s-2.33-1-2.25-1.26,1.22-.07,2.55.39S102,336.78,101.9,337Z"/><path class="cls-8" d="M105.05,330.09c-.17.18-1-.34-1.51-1.31s-.62-1.9-.38-2,.67.65,1.17,1.51S105.24,329.92,105.05,330.09Z"/><path class="cls-8" d="M101.25,358.46c.06.25-.92.7-2.2,1a8.53,8.53,0,0,1-1.85.27l-.18-.54c.33-.06.54,0,.58.06s-.09.26-.36.46l-.18-.53a8.1,8.1,0,0,1,1.77-.61C100.11,358.27,101.19,358.22,101.25,358.46Z"/><path class="cls-8" d="M103,370.61c.09.24-1.17.95-2.82,1.6s-3,1-3.14.74,1.16-.95,2.81-1.59S102.93,370.38,103,370.61Z"/><path class="cls-8" d="M93.31,365.22c.09.24-.75.74-1.87,1.12s-2.09.49-2.17.25.76-.74,1.87-1.12S93.23,365,93.31,365.22Z"/><path class="cls-8" d="M94.06,340.49c-.06.24-1.52.1-3.21-.5s-2.92-1.41-2.81-1.63,1.47.18,3.11.76S94.12,340.24,94.06,340.49Z"/><path class="cls-8" d="M117.56,337.8c.14.21-.69,1-1.84,1.76s-2.2,1.21-2.34,1,.68-1,1.84-1.76S117.42,337.59,117.56,337.8Z"/><path class="cls-8" d="M118.84,350c0,.25-.82.64-1.94.87s-2.06.22-2.11,0,.81-.64,1.93-.87S118.78,349.75,118.84,350Z"/><path class="cls-8" d="M120.32,363.72c-.11.23-1.35-.12-2.78-.79s-2.5-1.38-2.4-1.61,1.35.12,2.78.78S120.43,363.49,120.32,363.72Z"/><path class="cls-8" d="M117.18,377.07c-.2.16-1-.5-1.81-1.47s-1.29-1.9-1.1-2.06,1,.5,1.81,1.47S117.37,376.91,117.18,377.07Z"/><path class="cls-8" d="M116.54,328.82c.15.19-.38.87-1.3,1.32s-1.77.49-1.84.25.6-.65,1.43-1.07S116.38,328.61,116.54,328.82Z"/><path class="cls-8" d="M128.05,341.12c.08.24-1,.82-2.44,1s-2.64-.07-2.62-.31,1.14-.4,2.5-.6S128,340.88,128.05,341.12Z"/><path class="cls-8" d="M125.76,330.08c.11.22-1,1-2.45,1.45s-2.81.48-2.84.24,1.13-.65,2.56-1.11S125.64,329.85,125.76,330.08Z"/><path class="cls-8" d="M130.57,358.23c0,.25-1.82.41-4,0s-3.82-1.18-3.74-1.41,1.8.13,3.9.5S130.57,358,130.57,358.23Z"/><path class="cls-8" d="M126.29,374.28c-.16.19-1.49-.59-2.82-1.93s-2.11-2.67-1.91-2.82,1.27.88,2.56,2.17S126.45,374.07,126.29,374.28Z"/><path class="cls-6" d="M107.47,317c.13.2-3.65,1.73-8,6.35a39.14,39.14,0,0,0-10,22.12A49.75,49.75,0,0,0,90,359a105.59,105.59,0,0,0,2.54,10.87c.88,3.07,1.69,5.52,2.23,7.22a17.49,17.49,0,0,1,.77,2.67,16.52,16.52,0,0,1-1.11-2.55c-.64-1.67-1.55-4.1-2.51-7.15a91.49,91.49,0,0,1-2.75-10.92,48.56,48.56,0,0,1-.68-13.8c1.14-9.85,5.86-18,10.45-22.46a29.2,29.2,0,0,1,6-4.69,18.62,18.62,0,0,1,1.84-1C107.22,317.08,107.45,317,107.47,317Z"/><path class="cls-6" d="M120,380.39c-.19-.1,2.06-3.58,4.12-9.85a55.7,55.7,0,0,0,2.47-25.3,47.76,47.76,0,0,0-3.91-13.5,31.81,31.81,0,0,0-6.65-9.26,24,24,0,0,0-6.52-4.12c-1.69-.71-2.71-.88-2.7-.95a2.15,2.15,0,0,1,.75,0,13.63,13.63,0,0,1,2.08.56,22.66,22.66,0,0,1,6.82,4,31.49,31.49,0,0,1,7,9.39,47,47,0,0,1,4,13.73,53.83,53.83,0,0,1-2.75,25.65c-.52,1.58-1.19,2.94-1.68,4.16s-1.08,2.21-1.53,3A16.39,16.39,0,0,1,120,380.39Z"/><polygon class="cls-8" points="84.47 378.22 134.98 378.22 135.29 388.33 84.47 388.33 84.47 378.22"/><polygon class="cls-8" points="88.76 383.27 91.66 414.14 128.59 414.14 131.56 383.61 88.76 383.27"/><path class="cls-7" d="M135.29,388.45c0,.25-11.37.46-25.4.46s-25.41-.21-25.41-.46,11.38-.46,25.41-.46S135.29,388.2,135.29,388.45Z"/><path class="cls-7" d="M130.16,397.85a7.56,7.56,0,0,1-1.08,1.93,29.06,29.06,0,0,1-3.92,4.63l-.23.22-.23-.24a73.35,73.35,0,0,0-9.9-8.67l.56,0L111,399.55l-5.19,4.52-.29.25-.28-.25L96.77,397l.49-.05-4.36,5.32a13,13,0,0,1-1.71,1.88A12.08,12.08,0,0,1,92.6,402c1.09-1.47,2.47-3.31,4.12-5.51l.21-.29.28.23,8.56,6.94h-.57l5.17-4.54,4.4-3.84.27-.23.29.21a65.22,65.22,0,0,1,9.85,8.94h-.46A52.28,52.28,0,0,0,130.16,397.85Z"/></g></g></svg>