<svg xmlns="http://www.w3.org/2000/svg" version="1.1" xmlns:xlink="http://www.w3.org/1999/xlink" xmlns:svgjs="http://svgjs.dev/svgjs" width="1500" height="659" viewBox="0 0 1500 659"><g transform="matrix(1,0,0,1,-0.9090909090909918,0.43168965854812313)"><svg viewBox="0 0 396 174" data-background-color="#ffffff" preserveAspectRatio="xMidYMid meet" height="659" width="1500" xmlns="http://www.w3.org/2000/svg" xmlns:xlink="http://www.w3.org/1999/xlink"><g id="tight-bounds" transform="matrix(1,0,0,1,0.2400000000000091,-0.11398179148311272)"><svg viewBox="0 0 395.52 174.22796358296623" height="174.22796358296623" width="395.52"><g><svg viewBox="0 0 395.52 174.22796358296623" height="174.22796358296623" width="395.52"><g><svg viewBox="0 0 395.52 174.22796358296623" height="174.22796358296623" width="395.52"><g id="textblocktransform"><svg viewBox="0 0 395.52 174.22796358296623" height="174.22796358296623" width="395.52" id="textblock"><g><svg viewBox="0 0 395.52 174.22796358296623" height="174.22796358296623" width="395.52"><rect width="395.52" height="174.22796358296623" x="0" y="0" opacity="1" fill="#1e55b3" data-fill-palette-color="tertiary"></rect><g transform="matrix(1,0,0,1,23.607599999999998,23.607599999999998)"><svg width="348.3048" viewBox="0.7 -36.75 102.14 37.25" height="127.01276358296623" data-palette-color="#ffffff"><path d="M5.95 0.45L5.95 0.45Q3.95 0.45 2.8 0.03 1.65-0.4 1.18-1.07 0.7-1.75 0.7-2.5L0.7-2.5Q0.7-3.3 0.93-3.88 1.15-4.45 1.3-4.8L1.3-4.8Q2-4.2 3.1-3.68 4.2-3.15 5.45-3.15L5.45-3.15Q6.9-3.15 7.6-3.85 8.3-4.55 8.5-5.88 8.7-7.2 8.7-9.15L8.7-9.15 8.7-33.15Q8.7-34.1 8.88-34.48 9.05-34.85 9.9-34.93 10.75-35 12.8-35L12.8-35 12.8-8.25Q12.8-6.4 12.5-4.8 12.2-3.2 11.45-2.02 10.7-0.85 9.38-0.2 8.05 0.45 5.95 0.45ZM24.2 0.5L24.2 0.5Q22.3 0.5 20.82 0.03 19.35-0.45 18.35-1.8 17.35-3.15 16.85-5.73 16.35-8.3 16.35-12.5L16.35-12.5Q16.35-19.35 18.55-22.43 20.75-25.5 24.65-25.5L24.65-25.5Q27.3-25.5 29.02-24.4 30.75-23.3 31.6-20.5 32.45-17.7 32.45-12.65L32.45-12.65Q32.45-5.65 30.35-2.58 28.25 0.5 24.2 0.5ZM24.3-2.95L24.3-2.95Q25.4-2.95 26.22-3.73 27.05-4.5 27.55-6.6 28.05-8.7 28.05-12.6L28.05-12.6Q28.05-16.6 27.65-18.63 27.25-20.65 26.5-21.35 25.75-22.05 24.5-22.05L24.5-22.05Q23.4-22.05 22.55-21.28 21.7-20.5 21.22-18.4 20.75-16.3 20.75-12.4L20.75-12.4Q20.75-9.35 21-7.45 21.25-5.55 21.67-4.58 22.1-3.6 22.8-3.28 23.5-2.95 24.3-2.95ZM42 0.5L42 0.5Q40 0.5 38.52 0.1 37.05-0.3 36.15-1L36.15-1 36.15-34.85Q36.15-35.8 36.47-36.2 36.8-36.6 37.67-36.68 38.55-36.75 40.2-36.75L40.2-36.75 40.2-23.75Q41.25-24.55 42.52-25.03 43.8-25.5 45.55-25.5L45.55-25.5Q47.55-25.5 48.9-24.55 50.25-23.6 50.95-21.45 51.65-19.3 51.65-15.65L51.65-15.65Q51.65-11.35 51.07-8.4 50.5-5.45 49.47-3.7 48.45-1.95 47.2-1.03 45.95-0.1 44.59 0.2 43.25 0.5 42 0.5ZM42.55-3.1L42.55-3.1Q43.2-3.1 44-3.5 44.8-3.9 45.5-5.1 46.2-6.3 46.67-8.63 47.15-10.95 47.15-14.75L47.15-14.75Q47.15-17.45 46.75-19 46.34-20.55 45.62-21.2 44.9-21.85 43.7-21.85L43.7-21.85Q42.75-21.85 41.87-21.53 41-21.2 40.2-20.45L40.2-20.45 40.2-3.75Q40.55-3.5 41.09-3.3 41.65-3.1 42.55-3.1ZM61.24 0.5L61.24 0.5Q59.24 0.5 57.77 0.1 56.29-0.3 55.39-1L55.39-1 55.39-34.85Q55.39-35.8 55.72-36.2 56.04-36.6 56.92-36.68 57.79-36.75 59.44-36.75L59.44-36.75 59.44-23.75Q60.49-24.55 61.77-25.03 63.04-25.5 64.79-25.5L64.79-25.5Q66.79-25.5 68.14-24.55 69.49-23.6 70.19-21.45 70.89-19.3 70.89-15.65L70.89-15.65Q70.89-11.35 70.32-8.4 69.74-5.45 68.72-3.7 67.69-1.95 66.44-1.03 65.19-0.1 63.84 0.2 62.49 0.5 61.24 0.5ZM61.79-3.1L61.79-3.1Q62.44-3.1 63.24-3.5 64.04-3.9 64.74-5.1 65.44-6.3 65.92-8.63 66.39-10.95 66.39-14.75L66.39-14.75Q66.39-17.45 65.99-19 65.59-20.55 64.87-21.2 64.14-21.85 62.94-21.85L62.94-21.85Q61.99-21.85 61.12-21.53 60.24-21.2 59.44-20.45L59.44-20.45 59.44-3.75Q59.79-3.5 60.34-3.3 60.89-3.1 61.79-3.1ZM81.74 0.5L81.74 0.5Q80.04 0.5 78.57 0.03 77.09-0.45 76.02-1.7 74.94-2.95 74.37-5.25 73.79-7.55 73.79-11.2L73.79-11.2Q73.79-15.9 74.54-18.75 75.29-21.6 76.54-23.05 77.79-24.5 79.39-25 80.99-25.5 82.64-25.5L82.64-25.5Q85.79-25.5 87.39-23.5 88.99-21.5 88.99-17.45L88.99-17.45Q88.99-15.8 88.87-14.05 88.74-12.3 88.39-10.95L88.39-10.95Q86.69-10.6 84.59-10.45 82.49-10.3 80.59-10.23 78.69-10.15 77.47-10.15 76.24-10.15 76.24-10.15L76.24-10.15 76.29-13.45Q76.29-13.45 77.24-13.43 78.19-13.4 79.57-13.43 80.94-13.45 82.37-13.58 83.79-13.7 84.79-14L84.79-14Q84.94-14.7 84.99-15.5 85.04-16.3 85.04-17L85.04-17Q84.99-19.7 84.42-20.83 83.84-21.95 82.19-21.95L82.19-21.95Q81.34-21.95 80.57-21.48 79.79-21 79.19-19.83 78.59-18.65 78.27-16.6 77.94-14.55 77.94-11.35L77.94-11.35Q77.94-9 78.22-7.45 78.49-5.9 79.07-5.05 79.64-4.2 80.52-3.83 81.39-3.45 82.64-3.45L82.64-3.45Q84.14-3.45 85.62-3.85 87.09-4.25 88.29-5L88.29-5Q88.54-4.4 88.62-3.63 88.69-2.85 88.69-2.25L88.69-2.25Q88.69-1.5 87.74-0.85 86.79-0.2 85.22 0.15 83.64 0.5 81.74 0.5ZM92.54 0L92.54 0 92.54-23.25Q93.99-24.3 95.74-24.9 97.49-25.5 99.34-25.5L99.34-25.5Q101.29-25.5 102.06-24.98 102.84-24.45 102.84-23.4L102.84-23.4Q102.84-23 102.74-22.33 102.64-21.65 102.39-21L102.39-21Q101.84-21.3 101.24-21.45 100.64-21.6 99.99-21.6L99.99-21.6Q99.14-21.6 98.26-21.33 97.39-21.05 96.69-20.5L96.69-20.5 96.64-0.8Q96.64-0.4 96.46-0.25 96.29-0.1 95.44-0.05 94.59 0 92.54 0Z" opacity="1" transform="matrix(1,0,0,1,0,0)" fill="#ffffff" class="wordmark-text-0" data-fill-palette-color="quaternary" id="text-0"></path></svg></g></svg></g></svg></g></svg></g><g></g></svg></g><defs></defs></svg><rect width="395.52" height="174.22796358296623" fill="none" stroke="none" visibility="hidden"></rect></g></svg></g></svg>